<?xml version="1.0" encoding="utf-8"?> <!-- Generator: IcoMoon.io --> <!DOCTYPE svg PUBLIC "-//W3C//DTD SVG 1.1//EN" "http://www.w3.org/Graphics/SVG/1.1/DTD/svg11.dtd"> <svg width="32.000003814697266" height="32" viewBox="0 0 32.000003814697266 32" xmlns="http://www.w3.org/2000/svg" xmlns:xlink="http://www.w3.org/1999/xlink" fill="#000000"><g><path d="M 23.996,27.99L 3.999,27.99 L 3.999,15.955 l 2.639,0 c 1.373-1.526, 3.174-2.81, 5.384-3.803c 0.168-0.072, 0.335-0.143, 0.499-0.211L0,11.942 L0,32 l 27.995,0 L 27.995,21.935 l-3.999,2.707L 23.996,27.99 z M 6.203,24.096c0,0, 1.748-4.203, 8.433-5c 1.094-0.134, 2.749-0.261, 5.389-0.261l0,5.26 L 32,16.007 L 20.022,7.915l0,4.869 C 20.022,12.784, 6.203,13.848, 6.203,24.096z"></path></g></svg>