<?xml version="1.0" encoding="utf-8"?> <!-- Generator: IcoMoon.io --> <!DOCTYPE svg PUBLIC "-//W3C//DTD SVG 1.1//EN" "http://www.w3.org/Graphics/SVG/1.1/DTD/svg11.dtd"> <svg width="32" height="32" viewBox="0 0 32 32" xmlns="http://www.w3.org/2000/svg" xmlns:xlink="http://www.w3.org/1999/xlink" fill="#000000"><g><path d="M 26.5,27l-3,0 c-0.276,0-0.5-0.224-0.5-0.5s 0.224-0.5, 0.5-0.5L 26,26 l0-2.5 c0-0.276, 0.224-0.5, 0.5-0.5c 0.275,0, 0.5,0.224, 0.5,0.5l0,3 C 27,26.776, 26.775,27, 26.5,27z M 26.5,21c-0.276,0-0.5-0.224-0.5-0.5l0-3 c0-0.276, 0.224-0.5, 0.5-0.5c 0.275,0, 0.5,0.224, 0.5,0.5l0,3 C 27,20.776, 26.775,21, 26.5,21z M 26.5,15c-0.276,0-0.5-0.224-0.5-0.5l0-3 c0-0.276, 0.224-0.5, 0.5-0.5c 0.275,0, 0.5,0.224, 0.5,0.5l0,3 C 27,14.776, 26.775,15, 26.5,15z M 26.5,9C 26.224,9, 26,8.776, 26,8.5L 26,6 l-2.5,0 C 23.224,6, 23,5.776, 23,5.5S 23.224,5, 23.5,5l 3,0 C 26.775,5, 27,5.224, 27,5.5l0,3 C 27,8.776, 26.775,9, 26.5,9z M 20.5,27l-3,0 c-0.276,0-0.5-0.224-0.5-0.5s 0.224-0.5, 0.5-0.5l 3,0 c 0.275,0, 0.5,0.224, 0.5,0.5S 20.775,27, 20.5,27z M 20.5,6l-3,0 C 17.224,6, 17,5.776, 17,5.5S 17.224,5, 17.5,5l 3,0 C 20.775,5, 21,5.224, 21,5.5S 20.775,6, 20.5,6z M 19.938,15c 0.552,0, 1,0.447, 1,1 c0,0.552-0.448,1-1,1l-3,0 l0,3 c0,0.552-0.448,1-1,1c-0.553,0-1-0.448-1-1l0-3 l-3,0 c-0.552,0-1-0.448-1-1c0-0.553, 0.447-1, 1-1l 3,0 l0-3 c0-0.553, 0.447-1, 1-1c 0.552,0, 1,0.447, 1,1l0,3 L 19.938,15 z M 14.5,6l-3,0 C 11.224,6, 11,5.776, 11,5.5S 11.224,5, 11.5,5l 3,0 C 14.775,5, 15,5.224, 15,5.5S 14.775,6, 14.5,6z M 8.5,27l-3,0 C 5.224,27, 5,26.776, 5,26.5l0-3 C 5,23.224, 5.224,23, 5.5,23 C 5.776,23, 6,23.224, 6,23.5L 6,26 l 2.5,0 C 8.776,26, 9,26.224, 9,26.5S 8.776,27, 8.5,27z M 8.5,6L 6,6 l0,2.5 C 6,8.776, 5.776,9, 5.5,9 C 5.224,9, 5,8.776, 5,8.5l0-3 C 5,5.224, 5.224,5, 5.5,5l 3,0 C 8.776,5, 9,5.224, 9,5.5S 8.776,6, 8.5,6z M 5.5,11C 5.776,11, 6,11.224, 6,11.5l0,3 C 6,14.776, 5.776,15, 5.5,15C 5.224,15, 5,14.776, 5,14.5l0-3 C 5,11.224, 5.224,11, 5.5,11z M 5.5,17C 5.776,17, 6,17.224, 6,17.5l0,3 C 6,20.776, 5.776,21, 5.5,21C 5.224,21, 5,20.776, 5,20.5l0-3 C 5,17.224, 5.224,17, 5.5,17z M 11.5,26l 3,0 c 0.275,0, 0.5,0.224, 0.5,0.5 S 14.775,27, 14.5,27l-3,0 c-0.276,0-0.5-0.224-0.5-0.5S 11.224,26, 11.5,26z"></path></g></svg>