<?xml version="1.0" encoding="utf-8"?> <!-- Generator: IcoMoon.io --> <!DOCTYPE svg PUBLIC "-//W3C//DTD SVG 1.1//EN" "http://www.w3.org/Graphics/SVG/1.1/DTD/svg11.dtd"> <svg width="32" height="32" viewBox="0 0 32 32" xmlns="http://www.w3.org/2000/svg" xmlns:xlink="http://www.w3.org/1999/xlink" fill="#000000"><g><path d="M 17.427,4.151c-0.011-0.004-0.021-0.005-0.029-0.009C 17.169,4.052, 16.925,4, 16.667,4s-0.503,0.052-0.731,0.141 c-0.009,0.004-0.020,0.005-0.029,0.009c-0.248,0.101-0.471,0.251-0.657,0.437L 8.585,11.252c-0.781,0.781-0.781,2.047,0,2.828 c 0.78,0.781, 2.048,0.781, 2.828,0L 14.667,10.828L 14.667,23.333 c0,1.104, 0.895,2, 2,2c 1.104,0, 2-0.896, 2-2L 18.667,10.828 l 3.252,3.252 c 0.781,0.781, 2.047,0.781, 2.828,0C 25.139,13.691, 25.333,13.179, 25.333,12.667s-0.195-1.024-0.585-1.415l-6.664-6.664 C 17.897,4.401, 17.675,4.252, 17.427,4.151z"></path></g></svg>