<?xml version="1.0" encoding="utf-8"?> <!-- Generator: IcoMoon.io --> <!DOCTYPE svg PUBLIC "-//W3C//DTD SVG 1.1//EN" "http://www.w3.org/Graphics/SVG/1.1/DTD/svg11.dtd"> <svg width="32" height="32" viewBox="0 0 32 32" xmlns="http://www.w3.org/2000/svg" xmlns:xlink="http://www.w3.org/1999/xlink" fill="#000000"><g><path d="M 26.516,16.093c 0.004-0.009, 0.005-0.020, 0.009-0.029C 26.615,15.836, 26.667,15.592, 26.667,15.333s-0.052-0.503-0.141-0.731 c-0.004-0.009-0.005-0.020-0.009-0.029c-0.101-0.248-0.251-0.471-0.437-0.657l-6.664-6.664c-0.781-0.781-2.047-0.781-2.828,0 c-0.781,0.78-0.781,2.048,0,2.828L 19.839,13.333L 7.333,13.333 C 6.229,13.333, 5.333,14.228, 5.333,15.333S 6.229,17.333, 7.333,17.333l 12.505,0 l-3.252,3.252 c-0.781,0.78-0.781,2.048,0,2.828C 16.976,23.805, 17.488,24, 18,24s 1.024-0.195, 1.415-0.585l 6.664-6.664 C 26.265,16.564, 26.415,16.34, 26.516,16.093z"></path></g></svg>