<?xml version="1.0" encoding="utf-8"?> <!-- Generator: IcoMoon.io --> <!DOCTYPE svg PUBLIC "-//W3C//DTD SVG 1.1//EN" "http://www.w3.org/Graphics/SVG/1.1/DTD/svg11.dtd"> <svg width="32" height="32" viewBox="0 0 32 32" xmlns="http://www.w3.org/2000/svg" xmlns:xlink="http://www.w3.org/1999/xlink" fill="#000000"><g><path d="M 11.623,7.603l 6.062,3.5c 0.479,0.276, 1.090,0.112, 1.365-0.366 c 0.277-0.478, 0.113-1.090-0.365-1.365l-6.062-3.5c-0.479-0.276-1.090-0.112-1.366,0.365C 10.98,6.715, 11.145,7.326, 11.623,7.603z M 17.186,11.969l-6.062-3.5l-3.5,6.062l 6.062,3.5L 17.186,11.969z M 6.123,17.129l 6.062,3.5c 0.478,0.276, 1.090,0.112, 1.365-0.366 c 0.276-0.478, 0.112-1.090-0.365-1.365l-6.062-3.5c-0.479-0.276-1.090-0.112-1.366,0.365C 5.48,16.241, 5.645,16.853, 6.123,17.129z M 27.012,19.951l-11.076-5.817l-1,1.732l 10.576,6.683c 0.717,0.414, 1.635,0.169, 2.049-0.549S 27.729,20.365, 27.012,19.951z M 16.033,25c0-0.553-0.448-1-1-1l-9,0 c-0.553,0-1,0.447-1,1c0,0.552,0,1,0,1L 4,25.979L 4.033,27l 13,0 l 0.047-0.958L 16.096,26 C 16.096,26, 16.033,25.552, 16.033,25z"></path></g></svg>