<?xml version="1.0" encoding="utf-8"?> <!-- Generator: IcoMoon.io --> <!DOCTYPE svg PUBLIC "-//W3C//DTD SVG 1.1//EN" "http://www.w3.org/Graphics/SVG/1.1/DTD/svg11.dtd"> <svg width="32" height="32" viewBox="0 0 32 32" xmlns="http://www.w3.org/2000/svg" xmlns:xlink="http://www.w3.org/1999/xlink" fill="#000000"><g><path d="M 27.2,1.6l-3.52,0 C 22.797,1.6, 22.4,2.317, 22.4,3.2l0,27.2 l 6.4,0 L 28.8,3.2 C 28.8,2.317, 28.085,1.6, 27.2,1.6z M 17.6,11.2L 14.080,11.2 C 13.197,11.2, 12.8,11.917, 12.8,12.8l0,17.6 l 6.4,0 L 19.2,12.8 C 19.2,11.917, 18.485,11.2, 17.6,11.2z M 8,20.8L 4.48,20.8 C 3.597,20.8, 3.2,21.515, 3.2,22.4l0,8 l 6.4,0 l0-8 C 9.6,21.515, 8.883,20.8, 8,20.8z"></path></g></svg>