<?xml version="1.0" encoding="utf-8"?> <!-- Generator: IcoMoon.io --> <!DOCTYPE svg PUBLIC "-//W3C//DTD SVG 1.1//EN" "http://www.w3.org/Graphics/SVG/1.1/DTD/svg11.dtd"> <svg width="32" height="32" viewBox="0 0 32 32" xmlns="http://www.w3.org/2000/svg" xmlns:xlink="http://www.w3.org/1999/xlink" fill="#000000"><g><path d="M 23.44,13.621c-3.648-7.851-5.544-10.834-11.506-10.709c-2.123,0.043-1.613-1.538-3.232-0.938 C 7.085,2.573, 8.474,3.451, 6.818,4.81c-4.643,3.811-4.216,7.338-2.062,15.744c 0.909,3.539-2.187,3.714-0.963,7.146 c 0.894,2.501, 7.486,3.55, 14.442,0.968c 6.955-2.579, 11.344-7.701, 10.45-10.205C 27.459,15.032, 24.978,16.926, 23.44,13.621z M 17.478,26.554 c-6.21,2.304-11.315,0.949-11.531,0.347c-0.371-1.038, 2.005-4.506, 9.106-7.141c 7.101-2.635, 11.064-1.658, 11.478-0.498 C 26.776,19.947, 23.691,24.248, 17.478,26.554z M 15.483,20.963c-3.248,1.205-5.504,2.582-6.965,3.824 c 1.029,0.934, 2.954,1.162, 4.874,0.45c 2.443-0.907, 3.944-2.989, 3.35-4.648c-0.006-0.021-0.018-0.038-0.026-0.058 C 16.317,20.661, 15.906,20.805, 15.483,20.963z"></path></g></svg>