<?xml version="1.0" encoding="utf-8"?> <!-- Generator: IcoMoon.io --> <!DOCTYPE svg PUBLIC "-//W3C//DTD SVG 1.1//EN" "http://www.w3.org/Graphics/SVG/1.1/DTD/svg11.dtd"> <svg width="37.60093688964844" height="32" viewBox="0 0 37.60093688964844 32" xmlns="http://www.w3.org/2000/svg" xmlns:xlink="http://www.w3.org/1999/xlink" fill="#000000"><g><path d="M 29.978,28.189c-4.209,0-7.622-3.412-7.622-7.622c0-3.088, 1.841-5.741, 4.481-6.938 l-1.013-2.281l 0.165,0.399l-6.939,9.315l0,1.868 l 1.016,0 l0,1.017 l-1.016,0 l-1.016,0 l-1.017,0 l0-1.017 l 1.017,0 l0-1.017 l-2.875-0.27 c-0.524,3.699-3.694,6.547-7.537,6.547C 3.412,28.189,0,24.777,0,20.567c0-4.209, 3.412-7.621, 7.622-7.621 c 1.1,0, 2.144,0.238, 3.088,0.657l 1.905-4.785l-0.864-2.414c-0.38,0-0.734,0-1.016,0c-0.953,0-0.699-1.016-0.699-1.016 s 0.063-0.889, 0.762-0.889s 0.699,0.636, 1.842,0.636c 1.094,0, 2.667,0.317, 2.667,0.317s 0.699,0.952-0.635,0.952c-0.604,0-1.268,0-1.906,0 l 0.723,2.595l 11.045,0 l-0.867-1.972l-0.675,0 L 22.992,6.011 l 4.064,0 l0,1.016 l-2.296,0 l 2.975,6.256c 0.71-0.219, 1.464-0.337, 2.244-0.337 c 4.209,0, 7.622,3.412, 7.622,7.621C 37.6,24.777, 34.187,28.189, 29.978,28.189z M 7.622,13.961c-3.649,0-6.606,2.957-6.606,6.606 s 2.957,6.605, 6.606,6.605c 3.317,0, 6.056-2.447, 6.526-5.635l-5.29-0.545c-0.084,0.477-0.481,0.845-0.981,0.845 c-0.562,0-1.016-0.455-1.016-1.017c0-0.561, 0.455-1.017, 1.016-1.017c 0.12,0, 0.232,0.031, 0.339,0.070l 2.12-5.326 C 9.506,14.174, 8.589,13.961, 7.622,13.961z M 9.146,20.122l 5.076,0.537c 0.001-0.031, 0.005-0.061, 0.005-0.092 c0-2.348-1.228-4.405-3.075-5.577L 9.146,20.122z M 13.068,10.086l-1.542,3.945c 2.224,1.331, 3.716,3.756, 3.716,6.537 c0,0.066-0.008,0.133-0.010,0.199l 1.725,0.182L 13.068,10.086z M 24.961,9.4l0,0.614 l-11.113,0 l 4.047,10.832l 7.682-10.058L 24.961,9.4z M 29.978,13.961c-0.637,0-1.25,0.095-1.833,0.264l 2.372,5.42c 0.482,0.078, 0.857,0.48, 0.857,0.983c0,0.562-0.455,1.017-1.016,1.017 s-1.017-0.455-1.017-1.017c0-0.273, 0.111-0.521, 0.289-0.705l-2.382-5.368c-2.285,1.039-3.876,3.336-3.876,6.010 c0,3.648, 2.957,6.605, 6.605,6.605s 6.605-2.957, 6.605-6.605S 33.626,13.961, 29.978,13.961z"></path></g></svg>