<?xml version="1.0" encoding="utf-8"?> <!-- Generator: IcoMoon.io --> <!DOCTYPE svg PUBLIC "-//W3C//DTD SVG 1.1//EN" "http://www.w3.org/Graphics/SVG/1.1/DTD/svg11.dtd"> <svg width="32" height="32" viewBox="0 0 32 32" xmlns="http://www.w3.org/2000/svg" xmlns:xlink="http://www.w3.org/1999/xlink" fill="#000000"><g><path d="M 27,22L 4,22 c-1.104,0-2-0.896-2-2l0-5 c0-1.104, 0.896-2, 2-2l 1,0 c0,0, 1.479-4.5, 1.916-6 s 0.896-2, 2.001-2l 13.166,0 c 1.104,0, 1.438,0.312, 2,2S 26,13, 26,13l 1,0 c 1.104,0, 2,0.896, 2,2l0,5 C 29,21.104, 28.104,22, 27,22z M 9,20l 13,0 l0-1 L 9,19 L 9,20 z M 22,13c0-1.104-0.896-2.125-2-2.125S 18,11.896, 18,13C 18,13.026, 22,13.026, 22,13z M 9,18l 13,0 l0-1 L 9,17 L 9,18 z M 9,16l 13,0 l0-1 L 9,15 L 9,16 z M 4.062,17 c0,1.104, 0.896,2, 2,2s 2-0.896, 2-2s-0.896-2-2-2S 4.062,15.896, 4.062,17z M 23.083,7c-0.25-0.688-0.447-1-1-1L 16,6 l0,1 l 0.5,0 C 16.776,7, 17,7.224, 17,7.5S 16.776,8, 16.5,8l-2,0 C 14.224,8, 14,7.776, 14,7.5S 14.224,7, 14.5,7L 15,7 L 15,6 L 8.917,6 c-0.553,0-0.751,0.125-1,1 C 7.666,7.875, 6,13, 6,13l 11.46,0 c 0.023-1.364, 1.13-2.643, 2.495-2.643c 1.366,0, 2.472,1.278, 2.496,2.643L 25,13 C 25,13, 23.333,7.688, 23.083,7z M 24.938,15.062c-1.104,0-2,0.896-2,2s 0.896,2, 2,2s 2-0.896, 2-2S 26.042,15.062, 24.938,15.062z M 7,25.5C 7,26.328, 6.328,27, 5.5,27 S 4,26.328, 4,25.5L 4,23 l 3,0 L 7,25.5 z M 27,25.5c0,0.828-0.672,1.5-1.5,1.5S 24,26.328, 24,25.5L 24,23 l 3,0 L 27,25.5 z"></path></g></svg>