<?xml version="1.0" encoding="utf-8"?> <!-- Generator: IcoMoon.io --> <!DOCTYPE svg PUBLIC "-//W3C//DTD SVG 1.1//EN" "http://www.w3.org/Graphics/SVG/1.1/DTD/svg11.dtd"> <svg width="32.000003814697266" height="32" viewBox="0 0 32.000003814697266 32" xmlns="http://www.w3.org/2000/svg" xmlns:xlink="http://www.w3.org/1999/xlink" fill="#000000"><g><path d="M 29.496,10.659L 2.505,10.659 C 1.128,10.659,0,11.777,0,13.141l0,16.378 C0,30.885, 1.128,32, 2.505,32l 26.991,0 C 30.874,32, 32,30.885, 32,29.519L 32,13.141 C 32,11.777, 30.874,10.659, 29.496,10.659z M 2.505,12.629l 26.991,0 c 0.28,0, 0.517,0.234, 0.517,0.511 l0,1.804 L 1.987,14.945 l0-1.804 C 1.987,12.863, 2.225,12.629, 2.505,12.629z M 29.496,30.029L 2.505,30.029 c-0.28,0-0.517-0.234-0.517-0.511L 1.988,19.667 l 28.024,0 l0,9.853 C 30.012,29.796, 29.775,30.029, 29.496,30.029z"></path></g></svg>