<?xml version="1.0" encoding="utf-8"?> <!-- Generator: IcoMoon.io --> <!DOCTYPE svg PUBLIC "-//W3C//DTD SVG 1.1//EN" "http://www.w3.org/Graphics/SVG/1.1/DTD/svg11.dtd"> <svg width="32.000003814697266" height="32" viewBox="0 0 32.000003814697266 32" xmlns="http://www.w3.org/2000/svg" xmlns:xlink="http://www.w3.org/1999/xlink" fill="#000000"><g><path d="M 24.341,12.222c-0.44,0-0.874,0.038-1.294,0.109c-1.050-3.432-4.301-5.933-8.154-5.933c-4.701,0-8.51,3.725-8.51,8.32 c0,0.41, 0.032,0.813, 0.091,1.208C 6.248,15.901, 6.021,15.883, 5.787,15.883C 2.592,15.883,0,18.418,0,21.541 c0,3.125, 2.592,5.658, 5.787,5.658l 18.554,0 c 4.232,0, 7.659-3.354, 7.659-7.488C 32,15.574, 28.571,12.222, 24.341,12.222z"></path></g></svg>