<?xml version="1.0" encoding="utf-8"?> <!-- Generator: IcoMoon.io --> <!DOCTYPE svg PUBLIC "-//W3C//DTD SVG 1.1//EN" "http://www.w3.org/Graphics/SVG/1.1/DTD/svg11.dtd"> <svg width="32.000003814697266" height="32" viewBox="0 0 32.000003814697266 32" xmlns="http://www.w3.org/2000/svg" xmlns:xlink="http://www.w3.org/1999/xlink" fill="#000000"><g><path d="M 29.329,14.907c-1.917-1.314-3.776-1.549-4.733-1.549c-0.218,0-0.422,0.007-0.618,0.016l0-3.353 L0,10.021 l0,13.286 C0,29.157, 4.742,32, 10.591,32l 2.794,0 c 3.889,0, 7.281-0.205, 9.122-3.33c 0.321,0.044, 0.911,0.106, 1.677,0.106 c 1.032,0, 2.857-0.216, 4.883-1.542C 31.117,25.92, 32,24.139, 32,20.912C 32,18.188, 31.269,16.211, 29.329,14.907z M 26.978,24.093 c-1.024,0.699-2.276,0.913-2.794,0.913c-0.126,0-0.243-0.003-0.355-0.007c 0.089-0.553, 0.147-1.114, 0.147-1.693l0-6.157 c 0.19-0.012, 0.396-0.021, 0.618-0.021c 0.384,0, 1.671,0.226, 2.581,0.876c 0.885,0.659, 1.052,1.686, 1.052,2.908 C 28.227,22.28, 27.976,23.379, 26.978,24.093z"></path></g></svg>