<?xml version="1.0" encoding="utf-8"?> <!-- Generator: IcoMoon.io --> <!DOCTYPE svg PUBLIC "-//W3C//DTD SVG 1.1//EN" "http://www.w3.org/Graphics/SVG/1.1/DTD/svg11.dtd"> <svg width="32" height="32" viewBox="0 0 32 32" xmlns="http://www.w3.org/2000/svg" xmlns:xlink="http://www.w3.org/1999/xlink" fill="#000000"><g><path d="M 28.5,23L 16.254,23 c 0.359-0.619, 0.634-1.29, 0.816-2L 28.5,21 c 0.553,0, 1,0.447, 1,1 C 29.5,22.552, 29.053,23, 28.5,23z M 28.5,20L 17.264,20 c 0.041-0.328, 0.069-0.661, 0.069-1c0-0.34-0.028-0.672-0.069-1L 28.5,18 c 0.553,0, 1,0.447, 1,1C 29.5,19.552, 29.053,20, 28.5,20z M 28.5,17L 17.070,17 c-0.183-0.71-0.457-1.381-0.816-2L 28.5,15 c 0.553,0, 1,0.447, 1,1 C 29.5,16.552, 29.053,17, 28.5,17z M 28.5,14L 15.572,14 c-0.65-0.811-1.453-1.493-2.369-2L 28.5,12 c 0.553,0, 1,0.447, 1,1 C 29.5,13.552, 29.053,14, 28.5,14z M 28.5,11l-16,0 c-0.553,0-1-0.448-1-1c0-0.553, 0.447-1, 1-1l 16,0 c 0.553,0, 1,0.447, 1,1 C 29.5,10.552, 29.053,11, 28.5,11z M 28.5,8l-16,0 c-0.553,0-1-0.448-1-1c0-0.553, 0.447-1, 1-1l 16,0 c 0.553,0, 1,0.447, 1,1 C 29.5,7.552, 29.053,8, 28.5,8z M 16.5,19c0,3.866-3.135,7-7,7c-3.866,0-7-3.134-7-7s 3.134-7, 7-7C 13.365,12, 16.5,15.134, 16.5,19z M 11.978,19.761c-0.101-0.239-0.231-0.447-0.394-0.624c-0.163-0.177-0.348-0.329-0.556-0.456c-0.208-0.127-0.42-0.24-0.637-0.341 c-0.217-0.1-0.429-0.194-0.637-0.284c-0.208-0.089-0.395-0.185-0.559-0.287c-0.165-0.102-0.296-0.219-0.394-0.35 c-0.098-0.131-0.147-0.286-0.147-0.466c0-0.12, 0.022-0.234, 0.065-0.342c 0.044-0.107, 0.11-0.2, 0.2-0.277 c 0.089-0.076, 0.201-0.137, 0.334-0.18c 0.133-0.044, 0.29-0.065, 0.469-0.065c 0.229,0, 0.439,0.027, 0.631,0.083 c 0.191,0.057, 0.36,0.118, 0.506,0.187c 0.146,0.068, 0.269,0.131, 0.369,0.189c 0.1,0.058, 0.173,0.086, 0.219,0.086 s 0.082-0.012, 0.109-0.037c 0.026-0.025, 0.048-0.064, 0.062-0.119c 0.015-0.054, 0.024-0.123, 0.031-0.206 c 0.006-0.084, 0.009-0.187, 0.009-0.308c0-0.108-0.002-0.199-0.006-0.271c-0.004-0.073-0.012-0.134-0.021-0.182 c-0.011-0.048-0.023-0.087-0.037-0.116c-0.016-0.029-0.043-0.064-0.085-0.105c-0.042-0.042-0.127-0.094-0.256-0.155 c-0.129-0.062-0.277-0.118-0.443-0.167c-0.167-0.050-0.346-0.089-0.537-0.118c-0.039-0.006-0.079-0.004-0.118-0.009l0-1.034 L 9.171,13.807 l0,1.034 l0,0c-0.181,0.024-0.356,0.060-0.526,0.109c-0.331,0.096-0.618,0.24-0.862,0.434s-0.438,0.438-0.581,0.73 c-0.144,0.294-0.215,0.634-0.215,1.021c0,0.337, 0.050,0.627, 0.149,0.868c 0.1,0.241, 0.23,0.451, 0.391,0.628 c 0.161,0.177, 0.342,0.328, 0.546,0.455c 0.204,0.128, 0.415,0.241, 0.631,0.341c 0.217,0.1, 0.427,0.194, 0.631,0.284 s 0.386,0.186, 0.546,0.287c 0.161,0.103, 0.291,0.219, 0.391,0.35c 0.1,0.132, 0.15,0.289, 0.15,0.472c0,0.159-0.029,0.303-0.087,0.433 c-0.059,0.129-0.143,0.237-0.253,0.325c-0.11,0.088-0.244,0.155-0.402,0.203c-0.159,0.048-0.337,0.072-0.538,0.072 c-0.304,0-0.572-0.034-0.803-0.103c-0.231-0.069-0.43-0.145-0.597-0.229c-0.167-0.083-0.303-0.158-0.409-0.228 c-0.106-0.068-0.188-0.103-0.247-0.103c-0.042,0-0.079,0.012-0.109,0.034c-0.032,0.023-0.057,0.062-0.075,0.116 c-0.019,0.055-0.032,0.125-0.041,0.213s-0.013,0.196-0.013,0.325c0,0.192, 0.012,0.339, 0.034,0.441 c 0.023,0.103, 0.062,0.181, 0.116,0.234c 0.054,0.054, 0.142,0.115, 0.265,0.186s 0.276,0.137, 0.459,0.201 c 0.183,0.063, 0.395,0.118, 0.634,0.164c 0.239,0.045, 0.499,0.067, 0.778,0.067c 0.012,0, 0.023-0.002, 0.036-0.002l0,0.963 l 0.983,0 l0-1.092 c 0.047-0.012, 0.097-0.018, 0.143-0.031c 0.362-0.108, 0.679-0.27, 0.95-0.484c 0.271-0.214, 0.485-0.481, 0.644-0.802 c 0.158-0.321, 0.236-0.693, 0.236-1.118C 12.127,20.282, 12.077,20.001, 11.978,19.761z M 15.572,24L 28.5,24 c 0.553,0, 1,0.447, 1,1 c0,0.552-0.447,1-1,1L 13.203,26 C 14.119,25.493, 14.922,24.811, 15.572,24z"></path></g></svg>