<?xml version="1.0" encoding="utf-8"?> <!-- Generator: IcoMoon.io --> <!DOCTYPE svg PUBLIC "-//W3C//DTD SVG 1.1//EN" "http://www.w3.org/Graphics/SVG/1.1/DTD/svg11.dtd"> <svg width="32.1983528137207" height="32.91835403442383" viewBox="0 0 32.1983528137207 32.91835403442383" xmlns="http://www.w3.org/2000/svg" xmlns:xlink="http://www.w3.org/1999/xlink" fill="#000000"><g><path d="M 11.236,7.828L 2.558,10.025L 2.89,0.826l 2.707,2.272c 1.457-1.155, 3.149-2.051, 5.045-2.579 c 5.17-1.437, 10.448,0.165, 14.006,3.722l-3.273,1.94C 18.739,3.987, 15.133,3.071, 11.599,4.053c-1.133,0.315-2.179,0.814-3.128,1.456 L 11.236,7.828z M 9.669,24.496c-2.682-1.343-4.813-3.788-5.666-6.933c-0.436-1.608-0.493-3.256-0.209-4.849l-3.281-1.891 c-0.657,2.445-0.712,5.088,0,7.709c 1.247,4.598, 4.527,8.068, 8.587,9.713L 8.531,32l 7.967-4.44l-6.32-6.406L 9.669,24.496z M 32,11l-7.928-4.511l-2.043,8.814l 3.261-1.407c 0.152,2.144-0.305,4.284-1.379,6.195c-1.308,2.327-3.368,4.048-5.841,4.922 l-0.004,3.827c 0.081-0.021, 0.161-0.033, 0.241-0.055c 3.855-1.071, 6.917-3.622, 8.749-6.883c 1.579-2.81, 2.239-6.145, 1.718-9.509 L 32,11z"></path></g></svg>