<?xml version="1.0" encoding="utf-8"?> <!-- Generator: IcoMoon.io --> <!DOCTYPE svg PUBLIC "-//W3C//DTD SVG 1.1//EN" "http://www.w3.org/Graphics/SVG/1.1/DTD/svg11.dtd"> <svg width="34.250152587890625" height="32" viewBox="0 0 34.250152587890625 32" xmlns="http://www.w3.org/2000/svg" xmlns:xlink="http://www.w3.org/1999/xlink" fill="#000000"><g><path d="M 31.967,17.713l0-14.842 q0-0.232 -0.169-0.401t-0.401-0.169l-28.542,0 q-0.232,0 -0.401,0.169t-0.169,0.401l0,14.842 q0,0.232 0.169,0.401t 0.401,0.169l 28.542,0 q 0.232,0 0.401-0.169t 0.169-0.401zM 34.25,2.871l0,19.408 q0,1.177 -0.838,2.016t-2.016,0.838l-9.704,0 q0,0.66 0.285,1.383t 0.571,1.267t 0.285,0.776q0,0.464 -0.339,0.803t-0.803,0.339l-9.133,0 q-0.464,0 -0.803-0.339 t-0.339-0.803q0-0.25 0.285-0.785t 0.571-1.249t 0.285-1.391l-9.704,0 q-1.177,0 -2.016-0.838t-0.838-2.016l0-19.408 q0-1.177 0.838-2.016t 2.016-0.838l 28.542,0 q 1.177,0 2.016,0.838t 0.838,2.016z"></path></g></svg>