<?xml version="1.0" encoding="utf-8"?> <!-- Generator: IcoMoon.io --> <!DOCTYPE svg PUBLIC "-//W3C//DTD SVG 1.1//EN" "http://www.w3.org/Graphics/SVG/1.1/DTD/svg11.dtd"> <svg width="32.000003814697266" height="32" viewBox="0 0 32.000003814697266 32" xmlns="http://www.w3.org/2000/svg" xmlns:xlink="http://www.w3.org/1999/xlink" fill="#000000"><g><path d="M 29.339,13.331l-4,0 c0-4.417-4.188-8-9.339-8c-5.153,0-9.331,3.583-9.331,8l-4,0 C 1.19,13.331,0,14.52,0,15.992L0,32 l 32,0 L 32,15.992 C 32,14.52, 30.809,13.331, 29.339,13.331z M 22.661,25.322l-4,0 l0,4 l-5.331,0 l0-4 l-4,0 L 9.331,20 l 4,0 l0-4.008 l 5.331,0 l0,4.008 l 4,0 L 22.661,25.322 z M 9.331,13.331c0-2.947, 2.995-5.339, 6.669-5.339 c 3.681,0, 6.661,2.392, 6.661,5.339L 9.331,13.331 z"></path></g></svg>