<?xml version="1.0" encoding="utf-8"?> <!-- Generator: IcoMoon.io --> <!DOCTYPE svg PUBLIC "-//W3C//DTD SVG 1.1//EN" "http://www.w3.org/Graphics/SVG/1.1/DTD/svg11.dtd"> <svg width="32.373756408691406" height="32" viewBox="0 0 32.373756408691406 32" xmlns="http://www.w3.org/2000/svg" xmlns:xlink="http://www.w3.org/1999/xlink" fill="#000000"><g><path d="M 31.768,16.983c-1.282-1.627-6.263-5.67-6.263-5.67L 24.672,8.608l-5.513,7.010L 3.782,15.618 c-0.064-0.007-0.128-0.008-0.191,0L 3.496,15.618 l0,0.011 c-0.294,0.054-0.567,0.22-0.74,0.495l-2.583,4.056c-0.327,0.516-0.177,1.202, 0.339,1.528 c 0.184,0.113, 0.39,0.174, 0.593,0.174c 0.367,0, 0.725-0.186, 0.934-0.515l 1.456-2.29l0,4.211 l0,0 l0,7.378 c0,0.737, 0.594,1.333, 1.327,1.333 s 1.327-0.596, 1.327-1.333L 6.15,23.521 l 15.073,1.309l0,5.834 c0,0.739, 0.595,1.335, 1.324,1.335c 0.737,0, 1.333-0.597, 1.333-1.335l0-5.599 l0-2.513 l0-3.882 l 7.992-0.573C 31.873,17.832, 32.22,17.559, 31.768,16.983z"></path></g></svg>