<?xml version="1.0" encoding="utf-8"?> <!-- Generator: IcoMoon.io --> <!DOCTYPE svg PUBLIC "-//W3C//DTD SVG 1.1//EN" "http://www.w3.org/Graphics/SVG/1.1/DTD/svg11.dtd"> <svg width="38" height="32" viewBox="0 0 38 32" xmlns="http://www.w3.org/2000/svg" xmlns:xlink="http://www.w3.org/1999/xlink" fill="#000000"><g><path d="M 36.002,23.010l 0.057-17.089L 5.009,5.94L 5.008,3.98L 38,3.98 l0,19.031 L 36.002,23.010z M 34.995,26.017l-1.997-0.002l 0.057-17.089l-31.050,0.020l-0.001-1.96l 32.992,0 L 34.996,26.017 z M 32.053,28.020L0,28.020 L0,9.99 l 32.053,0 L 32.053,28.020 z M 30.049,11.931L 2.003,11.931 l0,14.086l 28.045,0 L 30.048,11.931 z M 27.045,24.515c0,0.177, 0.044,0.342, 0.101,0.5L 16.026,25.015 c 2.766,0, 5.009-2.69, 5.009-6.010 s-2.243-6.010-5.009-6.010l 11.119,0 c-0.057,0.158-0.101,0.323-0.101,0.501c0,0.83, 0.672,1.502, 1.502,1.502 c 0.178,0, 0.343-0.044, 0.501-0.101l0,8.215 c-0.158-0.056-0.323-0.101-0.501-0.101C 27.717,23.012, 27.045,23.685, 27.045,24.515z M 25.041,16.919c-0.83,0-1.502,0.896-1.502,2.003s 0.672,2.003, 1.502,2.003s 1.502-0.896, 1.502-2.003S 25.871,16.919, 25.041,16.919z M 18.123,15.394c 0.015,0.029, 0.027,0.068, 0.037,0.116c 0.011,0.048, 0.018,0.109, 0.021,0.182c 0.005,0.073, 0.007,0.164, 0.007,0.273 c0,0.121-0.003,0.224-0.009,0.307c-0.007,0.084-0.018,0.153-0.031,0.207c-0.016,0.055-0.036,0.095-0.062,0.119 c-0.027,0.025-0.064,0.038-0.11,0.038s-0.118-0.029-0.219-0.087c-0.101-0.059-0.224-0.121-0.369-0.189s-0.315-0.131-0.507-0.187 s-0.402-0.084-0.632-0.084c-0.18,0-0.336,0.021-0.469,0.065c-0.134,0.044-0.246,0.104-0.335,0.181c-0.090,0.077-0.157,0.17-0.2,0.277 c-0.044,0.108-0.066,0.223-0.066,0.343c0,0.18, 0.049,0.335, 0.147,0.467c 0.098,0.131, 0.229,0.248, 0.395,0.35 c 0.165,0.103, 0.352,0.198, 0.56,0.288s 0.421,0.185, 0.638,0.284c 0.217,0.101, 0.43,0.214, 0.639,0.342 c 0.209,0.127, 0.395,0.279, 0.557,0.456c 0.163,0.178, 0.295,0.386, 0.395,0.626s 0.15,0.522, 0.15,0.848c0,0.425-0.080,0.799-0.238,1.119 c-0.158,0.321-0.373,0.59-0.645,0.805s-0.588,0.376-0.951,0.484c-0.046,0.014-0.096,0.020-0.143,0.031l0,1.094 l-0.985,0 l0-0.965 c-0.013,0-0.024,0.003-0.037,0.003c-0.279,0-0.539-0.023-0.779-0.068c-0.24-0.046-0.452-0.101-0.635-0.164 c-0.184-0.064-0.337-0.132-0.46-0.202c-0.124-0.070-0.212-0.132-0.266-0.186s-0.093-0.132-0.116-0.234s-0.035-0.25-0.035-0.442 c0-0.129, 0.004-0.238, 0.013-0.325c 0.008-0.088, 0.022-0.159, 0.041-0.214c 0.019-0.054, 0.044-0.093, 0.075-0.116 c 0.031-0.022, 0.068-0.034, 0.109-0.034c 0.059,0, 0.141,0.034, 0.248,0.104c 0.106,0.068, 0.243,0.145, 0.41,0.228s 0.366,0.159, 0.598,0.228 c 0.231,0.069, 0.5,0.104, 0.804,0.104c 0.2,0, 0.38-0.024, 0.538-0.072c 0.159-0.048, 0.293-0.116, 0.404-0.203 c 0.11-0.088, 0.194-0.197, 0.253-0.326c 0.059-0.13, 0.088-0.274, 0.088-0.433c0-0.184-0.051-0.342-0.15-0.473 c-0.1-0.132-0.23-0.248-0.391-0.351c-0.161-0.102-0.343-0.198-0.547-0.287c-0.205-0.090-0.415-0.185-0.632-0.285 c-0.217-0.1-0.428-0.214-0.632-0.341c-0.204-0.127-0.387-0.279-0.547-0.457c-0.16-0.177-0.291-0.387-0.391-0.628 c-0.1-0.242-0.15-0.532-0.15-0.87c0-0.388, 0.072-0.729, 0.216-1.022c 0.144-0.294, 0.338-0.538, 0.582-0.732 c 0.244-0.193, 0.532-0.339, 0.863-0.435c 0.17-0.049, 0.346-0.085, 0.527-0.109l0-1.035 l 0.985,0 l0,1.035 c 0.039,0.005, 0.078,0.003, 0.117,0.009 c 0.192,0.029, 0.372,0.068, 0.539,0.118c 0.166,0.050, 0.314,0.105, 0.443,0.168c 0.13,0.062, 0.215,0.113, 0.258,0.155 C 18.080,15.329, 18.108,15.364, 18.123,15.394z M 11.018,19.005c0,3.319, 2.242,6.010, 5.008,6.010L 4.907,25.015 c 0.056-0.158, 0.101-0.323, 0.101-0.5 c0-0.83-0.673-1.503-1.502-1.503c-0.178,0-0.343,0.045-0.501,0.101l0-8.215 c 0.158,0.057, 0.323,0.101, 0.501,0.101 c 0.83,0, 1.502-0.672, 1.502-1.502c0-0.178-0.045-0.343-0.101-0.501l 11.119,0 C 13.26,12.995, 11.018,15.686, 11.018,19.005z M 7.011,16.919 c-0.83,0-1.502,0.896-1.502,2.003s 0.673,2.003, 1.502,2.003c 0.83,0, 1.502-0.896, 1.502-2.003S 7.841,16.919, 7.011,16.919z"></path></g></svg>