<?xml version="1.0" encoding="utf-8"?> <!-- Generator: IcoMoon.io --> <!DOCTYPE svg PUBLIC "-//W3C//DTD SVG 1.1//EN" "http://www.w3.org/Graphics/SVG/1.1/DTD/svg11.dtd"> <svg width="33.68195724487305" height="32" viewBox="0 0 33.68195724487305 32" xmlns="http://www.w3.org/2000/svg" xmlns:xlink="http://www.w3.org/1999/xlink" fill="#000000"><g><path d="M 5.6,1.782L 4.481,1.782L 4.481,30.881L 5.6,30.881L 5.6,10.735L 20.15,6.259 zM 30.613,18.076c-3.877-4.406-11.692-3.228-16.121-0.31c-2.387,1.571-3.61,4.265-5.912,5.917 c-0.588,0.422-1.254,0.68-1.954,0.866c-2.082,0.553-4.453,0.466-5.864,2.166c-2.1,2.525, 0.561,4.652, 3.159,5.023 c 3.665,0.528, 7.441,0.144, 11.113-0.133c 3.587-0.271, 7.379-0.765, 10.577-2.453c 2.442-1.288, 5.145-2.978, 6.077-5.635 C 32.344,21.649, 31.937,19.581, 30.613,18.076z M 5.262,30.437c-1.821,0-3.3-0.787-3.3-1.759c0-0.97, 1.478-1.759, 3.3-1.759 c 1.822,0, 3.3,0.789, 3.3,1.759C 8.562,29.649, 7.084,30.437, 5.262,30.437z"></path></g></svg>