<?xml version="1.0" encoding="utf-8"?> <!-- Generator: IcoMoon.io --> <!DOCTYPE svg PUBLIC "-//W3C//DTD SVG 1.1//EN" "http://www.w3.org/Graphics/SVG/1.1/DTD/svg11.dtd"> <svg width="42.125" height="32" viewBox="0 0 42.125 32" xmlns="http://www.w3.org/2000/svg" xmlns:xlink="http://www.w3.org/1999/xlink" fill="#000000"><g><path d="M 32.639,17.561c0,0-4.592-4.682-10.92-4.682c-6.183,0-12.295,4.682-12.295,4.682 l-3.433-1.433l0,4.204 c 0.541,0.184, 0.937,0.682, 0.937,1.285c0,0.609-0.404,1.108-0.953,1.288l 1.015,2.831L 3.994,25.736 l 1.024-2.855 c-0.492-0.209-0.836-0.695-0.836-1.264c0-0.557, 0.334-1.031, 0.811-1.247l0-4.659 L0,13.629l 21.969-9.861l 20.156,9.985L 32.639,17.561z M 21.469,15.251c 6.366,0, 9.486,3.37, 9.486,3.37l0,6.99 c0,0-3.245,2.621-9.985,2.621s-8.987-2.621-8.987-2.621l0-6.99 C 11.983,18.621, 15.103,15.251, 21.469,15.251z M 21.344,26.734c 4.412,0, 7.989-0.895, 7.989-1.997s-3.577-1.997-7.989-1.997 s-7.988,0.895-7.988,1.997S 16.932,26.734, 21.344,26.734z"></path></g></svg>