<?xml version="1.0" encoding="utf-8"?> <!-- Generator: IcoMoon.io --> <!DOCTYPE svg PUBLIC "-//W3C//DTD SVG 1.1//EN" "http://www.w3.org/Graphics/SVG/1.1/DTD/svg11.dtd"> <svg width="32" height="32.81730651855469" viewBox="0 0 32 32.81730651855469" xmlns="http://www.w3.org/2000/svg" xmlns:xlink="http://www.w3.org/1999/xlink" fill="#000000"><g><path d="M 18.090,5.511c 3.708-1.004, 7.081,3.29, 7.081,3.29l 3.121-0.043c0,0-4.037-8.597-9.453-8.597c-1.95,0-4.847,0-7.116,0 c-0.495,0-0.962,0.911-1.374,0.854c-1.158-0.165-1.907-0.546-2.084-0.643c-0.629-0.414-1.693-0.369-2.589-0.369L 5.344,0.003 c-1.37,0-1.636-0.11-1.636,1.479l0,4.332 c0,1.589, 0.267,1.477, 1.636,1.477l 0.333,0 c 1.011,0, 2.233,0.058, 2.806-0.547 c 0.531-0.363, 1.72-1.027, 2.928-0.67c 1.502,0.568, 1.551,1.941, 1.686,2.604l0,6.771 c-0.682,0.357-1.144,0.902-1.144,1.635 c0,0.090,0,0.215,0,0.371c0,0,0,9.567,0,12.051c0,0.155,0,0.281,0,0.367c0,2.837, 6.783,2.837, 6.783,0c0-0.086,0-0.213,0-0.367 c0-2.49,0-12.051,0-12.051c0-0.156,0-0.281,0-0.371c0-0.733-0.467-1.277-1.145-1.636L 17.59,7.272 C 17.671,6.415, 17.773,5.596, 18.090,5.511z"></path></g></svg>