<?xml version="1.0" encoding="utf-8"?> <!-- Generator: IcoMoon.io --> <!DOCTYPE svg PUBLIC "-//W3C//DTD SVG 1.1//EN" "http://www.w3.org/Graphics/SVG/1.1/DTD/svg11.dtd"> <svg width="32" height="32" viewBox="0 0 32 32" xmlns="http://www.w3.org/2000/svg" xmlns:xlink="http://www.w3.org/1999/xlink" fill="#000000"><g><path d="M 27.502,6.64c-2.675-2.454-7.013-2.454-9.688,0L 16,8.307L 14.184,6.64c-2.675-2.454-7.011-2.454-9.686,0 c-3.010,2.763-3.010,7.238,0,10.002L 16,27.2l 11.502-10.558C 30.512,13.88, 30.512,9.403, 27.502,6.64z M 25.8,15L 16,24.142L 6.202,15 c-0.989-0.906-1.371-2.099-1.371-3.36c0-1.258, 0.221-2.291, 1.21-3.198C 6.912,7.64, 8.085,7.2, 9.339,7.2 c 1.256,0, 2.429,0.762, 3.301,1.563L 16,11.685L 19.36,8.763C 20.232,7.962, 21.403,7.2, 22.659,7.2s 2.429,0.44, 3.302,1.242 c 0.987,0.907, 1.206,1.941, 1.21,3.198C 27.171,12.899, 26.787,14.094, 25.8,15z"></path></g></svg>