<?xml version="1.0" encoding="utf-8"?> <!-- Generator: IcoMoon.io --> <!DOCTYPE svg PUBLIC "-//W3C//DTD SVG 1.1//EN" "http://www.w3.org/Graphics/SVG/1.1/DTD/svg11.dtd"> <svg width="32" height="32.005950927734375" viewBox="0 0 32 32.005950927734375" xmlns="http://www.w3.org/2000/svg" xmlns:xlink="http://www.w3.org/1999/xlink" fill="#000000"><g><path d="M 18.33,6.851l 0.056,0 c 2.252-0.007, 3.864-1.879, 3.864-3.857c0-0.762-0.225-1.507-0.719-2.070 C 21.041,0.358, 20.28-0.004, 19.317,0c-2.541,0.010-3.862,2.119-3.865,3.718C 15.464,5.575, 16.566,6.851, 18.33,6.851z M 22.26,25.869l-1.004-2.147l-0.287,0.254c-1.217,1.091-3.096,2.347-3.379,2.381c-0.013-0.040-0.033-0.125-0.031-0.258 c0-0.233, 0.051-0.602, 0.177-1.107l 2.646-10.497c 0.232-0.978, 0.358-2.486, 0.358-3.209c0-0.662-0.102-1.213-0.359-1.637 c-0.25-0.43-0.715-0.696-1.25-0.687c-1.873,0.022-5.953,2.474-9.349,5.533l-0.184,0.166l 0.94,2.486l 0.32-0.233 c 0.907-0.686, 2.741-1.996, 3.16-2.143c-0.004,0.205-0.069,0.602-0.186,1.166l-2.413,10.129c-0.273,1.111-0.394,2.649-0.394,3.361 c0,0.932, 0.209,1.584, 0.613,2.011c 0.401,0.426, 0.956,0.563, 1.491,0.563l 0.011,0 c 1.578-0.019, 5.727-2.155, 9.091-5.734l 0.173-0.188 L 22.26,25.869z"></path></g></svg>