<?xml version="1.0" encoding="utf-8"?> <!-- Generator: IcoMoon.io --> <!DOCTYPE svg PUBLIC "-//W3C//DTD SVG 1.1//EN" "http://www.w3.org/Graphics/SVG/1.1/DTD/svg11.dtd"> <svg width="32" height="32" viewBox="0 0 32 32" xmlns="http://www.w3.org/2000/svg" xmlns:xlink="http://www.w3.org/1999/xlink" fill="#000000"><g><path d="M 13.453,4.817c 0.078,0.376, 0.457,0.683, 0.84,0.683l 3.414,0 c 0.384,0, 0.762-0.307, 0.84-0.683l 0.413-2.135 C 19.039,2.307, 18.789,2, 18.405,2L 13.595,2 c-0.384,0-0.634,0.307-0.556,0.683L 13.453,4.817zM 13.787,6c-0.384,0-0.698,0.314-0.698,0.698l0,0.604 c0,0.384, 0.314,0.698, 0.698,0.698l 4.425,0 c 0.383,0, 0.698-0.314, 0.698-0.698l0-0.604 c0-0.384-0.314-0.698-0.698-0.698L 13.787,6 zM 22.591,11.645l-2.778-2.727c-0.253-0.258-0.605-0.418-0.996-0.418L 13.183,8.5 c-0.386,0-0.735,0.156-0.988,0.408 l-2.784,2.735C 9.157,11.895, 9,12.244, 9,12.632l0,15.972 C 9,29.372, 9.628,30, 10.396,30l 11.209,0 C 22.372,30, 23,29.372, 23,28.605L 23,12.632 C 23,12.275, 22.864,11.917, 22.591,11.645z M 20.086,22.147 c 0.195,0.195, 0.195,0.512,0,0.707l-1.5,1.5c-0.196,0.195-0.512,0.195-0.707,0L 16,22.475l-1.879,1.879 c-0.195,0.195-0.512,0.195-0.707,0l-1.5-1.5c-0.195-0.195-0.195-0.512,0-0.707l 1.879-1.879l-1.879-1.879 c-0.195-0.195-0.195-0.512,0-0.707l 1.5-1.5c 0.195-0.195, 0.512-0.195, 0.707,0L 16,18.061l 1.879-1.88 c 0.195-0.195, 0.511-0.195, 0.707,0l 1.5,1.5c 0.195,0.195, 0.195,0.512,0,0.707l-1.879,1.879L 20.086,22.147z"></path></g></svg>