<?xml version="1.0" encoding="utf-8"?> <!-- Generator: IcoMoon.io --> <!DOCTYPE svg PUBLIC "-//W3C//DTD SVG 1.1//EN" "http://www.w3.org/Graphics/SVG/1.1/DTD/svg11.dtd"> <svg width="34.25010299682617" height="32" viewBox="0 0 34.25010299682617 32" xmlns="http://www.w3.org/2000/svg" xmlns:xlink="http://www.w3.org/1999/xlink" fill="#000000"><g><path d="M 7.421,22.85q-1.177,0 -2.016-0.838t-0.838-2.016l0-12.558 q0-1.177 0.838-2.016t 2.016-0.838l 19.408,0 q 1.177,0 2.016,0.838t 0.838,2.016l0,12.558 q0,1.177 -0.838,2.016t-2.016,0.838l-19.408,0 zM 6.85,7.437l0,12.558 q0,0.232 0.169,0.401t 0.401,0.169l 19.408,0 q 0.232,0 0.401-0.169t 0.169-0.401l0-12.558 q0-0.232 -0.169-0.401t-0.401-0.169l-19.408,0 q-0.232,0 -0.401,0.169t-0.169,0.401z M 31.396,23.992l 2.854,0 l0,1.713 q0,0.714 -0.838,1.213t-2.016,0.5l-28.542,0 q-1.177,0 -2.016-0.5t-0.838-1.213l0-1.713 l 2.854,0 l 28.542,0 zM 18.552,25.704q 0.285,0 0.285-0.285t-0.285-0.285l-2.854,0 q-0.285,0 -0.285,0.285t 0.285,0.285l 2.854,0 z"></path></g></svg>