<?xml version="1.0" encoding="utf-8"?> <!-- Generator: IcoMoon.io --> <!DOCTYPE svg PUBLIC "-//W3C//DTD SVG 1.1//EN" "http://www.w3.org/Graphics/SVG/1.1/DTD/svg11.dtd"> <svg width="32" height="32" viewBox="0 0 32 32" xmlns="http://www.w3.org/2000/svg" xmlns:xlink="http://www.w3.org/1999/xlink" fill="#000000"><g><path d="M 25.28,12.8L 22.4,12.8 L 22.4,8.96 C 22.4,4.325, 20.264,1.6, 16,1.6C 11.734,1.6, 9.6,4.325, 9.6,8.96L 9.6,9.6 l 3.2,0 L 12.8,8.32 C 12.8,6.008, 14.075,4.8, 16,4.8c 1.923,0, 3.2,1.208, 3.2,3.52L 19.2,12.8 L 6.4,12.8 C 5.515,12.8, 4.8,13.835, 4.8,14.72L 4.8,27.2 c0,0.88, 0.686,1.821, 1.523,2.091l 1.914,0.619C 9.075,30.179, 10.48,30.4, 11.36,30.4l 9.28,0 c 0.882,0, 2.286-0.221, 3.123-0.491l 1.914-0.619C 26.514,29.021, 27.2,28.080, 27.2,27.2L 27.2,14.72 C 27.2,13.835, 26.165,12.8, 25.28,12.8z"></path></g></svg>