<?xml version="1.0" encoding="utf-8"?> <!-- Generator: IcoMoon.io --> <!DOCTYPE svg PUBLIC "-//W3C//DTD SVG 1.1//EN" "http://www.w3.org/Graphics/SVG/1.1/DTD/svg11.dtd"> <svg width="32" height="32" viewBox="0 0 32 32" xmlns="http://www.w3.org/2000/svg" xmlns:xlink="http://www.w3.org/1999/xlink" fill="#000000"><g><path d="M 25.282,12.803L 22.4,12.803 l0-2.24 c0-4.635-2.134-7.36-6.4-7.36c-4.264,0-6.4,2.725-6.4,7.36l0,2.24 L 6.4,12.803 c-0.883,0-1.6,1.035-1.6,1.92l0,12.48 c0,0.88, 0.686,1.822, 1.523,2.091l 1.914,0.619c 0.837,0.27, 2.242,0.491, 3.123,0.491l 9.28,0 c 0.88,0, 2.286-0.221, 3.123-0.491l 1.914-0.619 C 26.515,29.026, 27.2,28.083, 27.2,27.203l0-12.48 C 27.2,13.838, 26.165,12.803, 25.282,12.803z M 12.8,9.923c0-2.312, 1.277-3.52, 3.2-3.52 c 1.925,0, 3.2,1.208, 3.2,3.52l0,2.88 L 12.8,12.803 L 12.8,9.923 z"></path></g></svg>