<?xml version="1.0" encoding="utf-8"?> <!-- Generator: IcoMoon.io --> <!DOCTYPE svg PUBLIC "-//W3C//DTD SVG 1.1//EN" "http://www.w3.org/Graphics/SVG/1.1/DTD/svg11.dtd"> <svg width="32" height="32" viewBox="0 0 32 32" xmlns="http://www.w3.org/2000/svg" xmlns:xlink="http://www.w3.org/1999/xlink" fill="#000000"><g><path d="M 2.55,8.458c 0.781,0.421, 11.598,6.23, 12.002,6.446C 14.954,15.12, 15.475,15.224, 16,15.224c 0.526,0, 1.048-0.104, 1.45-0.322 c 0.403-0.216, 11.219-6.026, 12-6.446C 30.232,8.037, 30.971,6.72, 29.536,6.72L 2.466,6.72 C 1.030,6.72, 1.768,8.037, 2.55,8.458z M 29.781,11.658 c-0.888,0.464-11.787,6.162-12.331,6.446S 16.526,18.426, 16,18.426c-0.525,0-0.904-0.037-1.448-0.322S 3.107,12.12, 2.221,11.658 C 1.595,11.331, 1.6,11.714, 1.6,12.008c0,0.294,0,11.736,0,11.736C 1.6,24.416, 2.494,25.28, 3.187,25.28l 25.627,0 c 0.694,0, 1.586-0.864, 1.586-1.534 c0,0,0-11.442,0-11.736C 30.4,11.714, 30.406,11.331, 29.781,11.658z"></path></g></svg>