<?xml version="1.0" encoding="utf-8"?> <!-- Generator: IcoMoon.io --> <!DOCTYPE svg PUBLIC "-//W3C//DTD SVG 1.1//EN" "http://www.w3.org/Graphics/SVG/1.1/DTD/svg11.dtd"> <svg width="32" height="32.000003814697266" viewBox="0 0 32 32.000003814697266" xmlns="http://www.w3.org/2000/svg" xmlns:xlink="http://www.w3.org/1999/xlink" fill="#000000"><g><path d="M 25.847,9.848C 25.847,4.41, 21.439,0, 16,0C 10.563,0, 6.153,4.41, 6.153,9.848c0,1.795, 0.492,3.473, 1.33,4.923l-0.013,0 L 16,32 l 8.533-17.229l-0.017,0 C 25.359,13.32, 25.847,11.643, 25.847,9.848z M 16.005,14.769c-2.721,0-4.924-2.205-4.924-4.922 c0-2.719, 2.203-4.924, 4.924-4.924c 2.717,0, 4.918,2.205, 4.918,4.924C 20.924,12.565, 18.723,14.769, 16.005,14.769z"></path></g></svg>