<?xml version="1.0" encoding="utf-8"?> <!-- Generator: IcoMoon.io --> <!DOCTYPE svg PUBLIC "-//W3C//DTD SVG 1.1//EN" "http://www.w3.org/Graphics/SVG/1.1/DTD/svg11.dtd"> <svg width="32" height="32" viewBox="0 0 32 32" xmlns="http://www.w3.org/2000/svg" xmlns:xlink="http://www.w3.org/1999/xlink" fill="#000000"><g><path d="M 15.986,11.896c 2.39-1.18, 4.584-0.666, 6.175,1.409 c 0.437,0.57, 0.747,1.238, 1.15,1.838c 0.492,0.732, 0.979,1.473, 1.546,2.146c 0.606,0.719, 1.445,0.976, 2.384,0.931 c 1.166-0.056, 1.741-0.642, 1.765-1.828c 0.005-0.272, 0.001-0.543, 0.001-0.831c 1.394,1.056, 1.309,3.107-0.195,4.152 c-0.486,0.338-1.061,0.603-1.634,0.747c-2.679,0.672-5.264,0.408-7.694-0.961 c-1.384-0.779-2.253-1.778-3.438-3.882c-0.16,0.254-0.31,0.468-0.435,0.696 C 14.085,19.093, 11.634,20.431, 8.579,20.756c-1.488,0.158-2.974,0.048-4.391-0.52 c-1.115-0.446-1.894-1.186-2.132-2.412c-0.185-0.951, 0.095-1.606, 1.010-2.237c0,0.38-0.020,0.734, 0.004,1.084 c 0.060,0.871, 0.559,1.401, 1.42,1.52c 1.216,0.168, 2.254-0.206, 2.983-1.186c 0.645-0.868, 1.215-1.795, 1.762-2.73 c 0.758-1.294, 1.762-2.281, 3.174-2.83C 13.673,10.952, 14.854,11.169, 15.986,11.896"></path></g></svg>