<?xml version="1.0" encoding="utf-8"?> <!-- Generator: IcoMoon.io --> <!DOCTYPE svg PUBLIC "-//W3C//DTD SVG 1.1//EN" "http://www.w3.org/Graphics/SVG/1.1/DTD/svg11.dtd"> <svg width="32" height="32" viewBox="0 0 32 32" xmlns="http://www.w3.org/2000/svg" xmlns:xlink="http://www.w3.org/1999/xlink" fill="#000000"><g><path d="M 8.5,5l-3,0 C 5.224,5, 5,5.224, 5,5.5l0,3 C 5,8.776, 5.224,9, 5.5,9C 5.776,9, 6,8.776, 6,8.5 L 6,6 l 2.5,0 C 8.776,6, 9,5.776, 9,5.5S 8.776,5, 8.5,5z M 11.5,6l 3,0 C 14.775,6, 15,5.776, 15,5.5S 14.775,5, 14.5,5l-3,0 C 11.224,5, 11,5.224, 11,5.5 S 11.224,6, 11.5,6z M 20.5,5l-3,0 C 17.224,5, 17,5.224, 17,5.5S 17.224,6, 17.5,6l 3,0 C 20.775,6, 21,5.776, 21,5.5S 20.775,5, 20.5,5z M 26.5,5l-3,0 C 23.224,5, 23,5.224, 23,5.5S 23.224,6, 23.5,6L 26,6 l0,2.5 C 26,8.776, 26.224,9, 26.5,9C 26.775,9, 27,8.776, 27,8.5l0-3 C 27,5.224, 26.775,5, 26.5,5z M 26.5,11c-0.276,0-0.5,0.224-0.5,0.5l0,3 c0,0.276, 0.224,0.5, 0.5,0.5c 0.275,0, 0.5-0.224, 0.5-0.5l0-3 C 27,11.224, 26.775,11, 26.5,11z M 26.5,17c-0.276,0-0.5,0.224-0.5,0.5l0,3 c0,0.276, 0.224,0.5, 0.5,0.5c 0.275,0, 0.5-0.224, 0.5-0.5l0-3 C 27,17.224, 26.775,17, 26.5,17z M 26.5,23c-0.276,0-0.5,0.224-0.5,0.5L 26,26 l-2.5,0 c-0.276,0-0.5,0.224-0.5,0.5s 0.224,0.5, 0.5,0.5l 3,0 c 0.275,0, 0.5-0.224, 0.5-0.5l0-3 C 27,23.224, 26.775,23, 26.5,23z M 20.5,26l-3,0 c-0.276,0-0.5,0.224-0.5,0.5s 0.224,0.5, 0.5,0.5l 3,0 c 0.275,0, 0.5-0.224, 0.5-0.5S 20.775,26, 20.5,26z M 14.5,26l-3,0 c-0.276,0-0.5,0.224-0.5,0.5s 0.224,0.5, 0.5,0.5l 3,0 c 0.275,0, 0.5-0.224, 0.5-0.5S 14.775,26, 14.5,26z M 8.5,26L 6,26 l0-2.5 C 6,23.224, 5.776,23, 5.5,23C 5.224,23, 5,23.224, 5,23.5l0,3 C 5,26.776, 5.224,27, 5.5,27l 3,0 C 8.776,27, 9,26.776, 9,26.5S 8.776,26, 8.5,26z M 5.5,21C 5.776,21, 6,20.776, 6,20.5l0-3 C 6,17.224, 5.776,17, 5.5,17C 5.224,17, 5,17.224, 5,17.5l0,3 C 5,20.776, 5.224,21, 5.5,21z M 5.5,15C 5.776,15, 6,14.776, 6,14.5l0-3 C 6,11.224, 5.776,11, 5.5,11C 5.224,11, 5,11.224, 5,11.5l0,3 C 5,14.776, 5.224,15, 5.5,15z M 11.938,17l 8,0 c 0.553,0, 1-0.448, 1-1 c0-0.553-0.447-1-1-1l-8,0 c-0.553,0-1,0.447-1,1C 10.938,16.552, 11.385,17, 11.938,17z"></path></g></svg>