<?xml version="1.0" encoding="utf-8"?> <!-- Generator: IcoMoon.io --> <!DOCTYPE svg PUBLIC "-//W3C//DTD SVG 1.1//EN" "http://www.w3.org/Graphics/SVG/1.1/DTD/svg11.dtd"> <svg width="32" height="32.34880447387695" viewBox="0 0 32 32.34880447387695" xmlns="http://www.w3.org/2000/svg" xmlns:xlink="http://www.w3.org/1999/xlink" fill="#000000"><g><path d="M 7.938,32c-2.138,0-4.139-0.906-5.586-2.354c-2.8-2.8-3.582-7.69, 0.344-11.616C 4.998,15.731, 14.214,6.515, 18.814,1.915 c 1.634-1.634, 3.71-2.264, 5.701-1.73c 1.954,0.522, 3.557,2.123, 4.080,4.078c 0.533,1.99-0.099,4.069-1.731,5.701l-15.411,15.413 c-0.88,0.88-1.874,1.402-2.874,1.506c-0.989,0.104-1.933-0.214-2.595-0.875c-1.2-1.198-1.37-3.454, 0.624-5.446l 10.824-10.827 c 0.445-0.443, 1.166-0.443, 1.611,0c 0.445,0.445, 0.445,1.166,0,1.611l-10.826,10.826c-0.936,0.936-1.022,1.83-0.624,2.229 c 0.174,0.173, 0.44,0.253, 0.746,0.221c 0.469-0.050, 1.003-0.354, 1.502-0.853l 15.411-15.411c 1.058-1.058, 1.462-2.301, 1.141-3.502 c-0.317-1.182-1.286-2.152-2.469-2.469c-1.202-0.322-2.445,0.085-3.502,1.141C 15.824,8.126, 6.608,17.342, 4.307,19.642 c-3.002,3.002-2.283,6.456-0.346,8.395c 1.939,1.938, 5.394,2.658, 8.397-0.346L 28.475,11.576c 0.443-0.445, 1.166-0.445, 1.61,0 c 0.445,0.445, 0.445,1.166,0,1.61L 13.968,29.302C 12.069,31.203, 9.944,32, 7.938,32z"></path></g></svg>