<?xml version="1.0" encoding="utf-8"?> <!-- Generator: IcoMoon.io --> <!DOCTYPE svg PUBLIC "-//W3C//DTD SVG 1.1//EN" "http://www.w3.org/Graphics/SVG/1.1/DTD/svg11.dtd"> <svg width="32" height="32" viewBox="0 0 32 32" xmlns="http://www.w3.org/2000/svg" xmlns:xlink="http://www.w3.org/1999/xlink" fill="#000000"><g><path d="M 29.91,4.216C 29.362,4.41, 2.197,13.981, 1.662,14.17c-0.454,0.16-0.557,0.552-0.016,0.766 c 0.642,0.258, 6.074,2.434, 6.074,2.434L 7.718,17.37 l 3.602,1.443c0,0, 17.339-12.734, 17.574-12.906c 0.235-0.173, 0.509,0.152, 0.338,0.338 c-0.171,0.187-12.594,13.622-12.594,13.622c-0.002,0-0.002,0-0.002,0l-0.723,0.806l 0.958,0.515l0,0c0,0, 7.44,4.005, 7.97,4.291 c 0.464,0.25, 1.069,0.042, 1.203-0.536c 0.158-0.682, 4.552-19.619, 4.65-20.038C 30.822,4.357, 30.461,4.022, 29.91,4.216z M 11.288,27.459 c0,0.395, 0.222,0.504, 0.53,0.226c 0.4-0.365, 4.558-4.096, 4.558-4.096l-5.088-2.634L 11.288,27.459 z"></path></g></svg>