<?xml version="1.0" encoding="utf-8"?> <!-- Generator: IcoMoon.io --> <!DOCTYPE svg PUBLIC "-//W3C//DTD SVG 1.1//EN" "http://www.w3.org/Graphics/SVG/1.1/DTD/svg11.dtd"> <svg width="32" height="32" viewBox="0 0 32 32" xmlns="http://www.w3.org/2000/svg" xmlns:xlink="http://www.w3.org/1999/xlink" fill="#000000"><g><path d="M 24.674,21.909c0,0, 3.33-2.278, 3.33-6.771c0-6.688-7.088-9.161-10.899-9.095 c-3.812,0.067-4.948,1.070-4.948,1.070S 10.86,6.17, 9.485,5.38C 8.433,4.97, 8.189,4.911, 7.458,5.146c-0.585,0-0.217,0.974, 0.018,1.325 c 0.233,0.351, 1.366,2.29, 1.366,2.29s-2.378,2.449-2.554,4.059c0-0.029-1.12-0.009-1.734-0.009s-0.556,0.669-0.556,0.669 l 0.017,4.714c0,0-0.038,0.669, 0.519,0.669c 0.556,0, 1.738,0.013, 1.738,0.013s 1.663,2.415, 2.717,2.854 c0,0.029-0.911,2.503-0.911,2.503s-0.439,0.761, 0.351,1.054c 0.79,0.292, 2.851,1.157, 3.729,1.421 c 0.877,0.263, 1.003-0.334, 1.003-0.334l 0.869-1.877l 5.685,0.009l 0.869,1.935c0,0, 0.167,0.898, 1.337,0.401 c 1.171-0.497, 2.449-1.087, 3.415-1.584c 0.965-0.497, 0.33-1.426, 0.33-1.426L 24.674,21.909z M 9.322,13.764 c-0.533,0-0.965-0.433-0.965-0.966s 0.432-0.965, 0.965-0.965s 0.966,0.432, 0.966,0.965S 9.855,13.764, 9.322,13.764z M 22.925,10.756 c-0.308,0.365-0.509,0.096-0.757,0.023c0,0-1.051-0.975-2.595-1.43c-1.599-0.47-3.282-0.243-3.282-0.243 c-0.248-0.073-0.549-0.081-0.551-0.464c 0.013-0.473, 0.587-0.477, 0.58-0.493c0,0, 1.894-0.175, 3.479,0.291 c 1.559,0.458, 2.75,1.454, 2.75,1.454S 23.186,10.333, 22.925,10.756z"></path></g></svg>