<?xml version="1.0" encoding="utf-8"?> <!-- Generator: IcoMoon.io --> <!DOCTYPE svg PUBLIC "-//W3C//DTD SVG 1.1//EN" "http://www.w3.org/Graphics/SVG/1.1/DTD/svg11.dtd"> <svg width="32" height="32" viewBox="0 0 32 32" xmlns="http://www.w3.org/2000/svg" xmlns:xlink="http://www.w3.org/1999/xlink" fill="#000000"><g><path d="M 19.971,14.602c 0.578-0.088, 1.666-0.472, 2.049-0.771c 0.418-0.244, 0.635-0.534, 0.648-0.872 c 0.041-0.515, 0.018-1.015-0.070-1.501c-0.088-0.487-0.187-1.041-0.295-1.663c-1.176,1.853-2.771,3.103-4.786,3.752l-0.224,0.486 C 18.24,14.642, 19.133,14.831, 19.971,14.602L 19.971,14.602z M 13.42,13.547c-2.028-0.649-3.631-1.899-4.807-3.752 c-0.095,0.622-0.189,1.176-0.284,1.663c-0.095,0.486-0.115,0.986-0.061,1.501c 0.027,0.352, 0.243,0.642, 0.649,0.872 c 0.306,0.252, 1.511,0.723, 2.028,0.771c 0.838,0.229, 1.73,0.040, 2.678-0.568L 13.42,13.547z M 14.018,17.015 c-0.155,0.406-0.125,1.037, 0.092,1.578l 0.941,0 l0-2.978 C 14.658,16.143, 14.173,16.609, 14.018,17.015z M 16.053,18.593l 0.908,0 c 0.054-0.148, 0.095-0.438, 0.122-0.554s 0.041-0.24, 0.041-0.375c0-0.365-0.079-0.696-0.235-0.994 c-0.156-0.297-0.564-0.648-0.836-1.055L 16.053,18.593 z M 26.568,8.654c 0.203,0.798, 0.271,1.609, 0.203,2.434 c-0.135,1.65-0.838,3.306-2.109,4.604l 1.116,2.13l-1.644,1.866c-2.326-1.11-3.063,0.044-3.063,1.663L 21.071,28 l-1.047,0 l0-5.964 l-0.946,0 L 19.078,28 L 17.99,28 l0-5.964 l-0.938,0 L 17.052,28 l-1.034,0 l0-5.964 L 15.080,22.036 L 15.080,28 l-1.033,0 l0-5.946 l-0.939-0.018L 13.108,28 l-1.090,0 l0-5.964 l-0.943,0 L 11.075,28 l-1.035,0 l0-6.649 c0-1.625-0.867-2.855-3.198-1.663l-1.683-1.866l 1.176-2.13c-1.271-1.298-1.951-2.951-2.1-4.613C 4.16,10.246, 4.221,9.432, 4.417,8.634 c 0.997-4.056, 4.496-4.698, 5.182-4.807c 3.905-0.541, 7.818-0.541, 11.737,0C 22.005,3.942, 25.549,4.646, 26.568,8.654z"></path></g></svg>