<?xml version="1.0" encoding="utf-8"?> <!-- Generator: IcoMoon.io --> <!DOCTYPE svg PUBLIC "-//W3C//DTD SVG 1.1//EN" "http://www.w3.org/Graphics/SVG/1.1/DTD/svg11.dtd"> <svg width="32" height="32" viewBox="0 0 32 32" xmlns="http://www.w3.org/2000/svg" xmlns:xlink="http://www.w3.org/1999/xlink" fill="#000000"><g><path d="M 30,16c0,7.732-6.268,14-14,14S 2,23.732, 2,16c0-3.408, 1.226-6.523, 3.25-8.95 c 0.154-0.284, 0.368-0.531, 0.635-0.71c 0.045-0.047, 0.085-0.1, 0.131-0.146c 0.001,0.023, 0.011,0.045, 0.013,0.068C 6.318,6.1, 6.646,6, 7,6 c 1.104,0, 2,0.896, 2,2c0,0.696-0.355,1.308-0.895,1.666C 8.14,9.692, 8.165,9.724, 8.201,9.75C 6.826,11.462, 6,13.633, 6,16 c0,5.523, 4.477,10, 10,10s 10-4.477, 10-10c0-2.367-0.826-4.538-2.201-6.25c 0.036-0.026, 0.062-0.058, 0.096-0.084 C 23.355,9.308, 23,8.696, 23,8c0-1.104, 0.896-2, 2-2c 0.354,0, 0.682,0.1, 0.971,0.262c 0.002-0.023, 0.012-0.045, 0.014-0.068 c 0.045,0.046, 0.085,0.099, 0.131,0.146c 0.267,0.179, 0.48,0.426, 0.635,0.71C 28.773,9.477, 30,12.592, 30,16z M 17,18l-2,0 c-0.553,0-1-0.447-1-1L 14,3 c0-0.552, 0.447-1, 1-1l 2,0 c 0.553,0, 1,0.448, 1,1l0,14 C 18,17.553, 17.553,18, 17,18z"></path></g></svg>