<?xml version="1.0" encoding="utf-8"?> <!-- Generator: IcoMoon.io --> <!DOCTYPE svg PUBLIC "-//W3C//DTD SVG 1.1//EN" "http://www.w3.org/Graphics/SVG/1.1/DTD/svg11.dtd"> <svg width="32.09850311279297" height="32.120304107666016" viewBox="0 0 32.09850311279297 32.120304107666016" xmlns="http://www.w3.org/2000/svg" xmlns:xlink="http://www.w3.org/1999/xlink" fill="#000000"><g><path d="M 31.681,18.202L 15.125,1.646c-0.397-0.397-1.176-0.762-1.734-0.813L 4.436,0.018 c-0.558-0.051-1.339,0.231-1.734,0.628L 0.657,2.689C 0.262,3.085-0.022,3.866, 0.028,4.423l 0.798,8.978 c 0.049,0.559, 0.414,1.338, 0.81,1.734l 16.557,16.556c 0.396,0.396, 1.043,0.396, 1.439,0L 31.681,19.642 C 32.076,19.246, 32.076,18.598, 31.681,18.202z M 6.952,7c-0.863,0.865-2.26,0.863-3.123,0c-0.864-0.862-0.865-2.26-0.001-3.123 c 0.862-0.863, 2.26-0.861, 3.124,0.001C 7.815,4.742, 7.814,6.14, 6.952,7z"></path></g></svg>