<?xml version="1.0" encoding="utf-8"?> <!-- Generator: IcoMoon.io --> <!DOCTYPE svg PUBLIC "-//W3C//DTD SVG 1.1//EN" "http://www.w3.org/Graphics/SVG/1.1/DTD/svg11.dtd"> <svg width="32.000003814697266" height="32" viewBox="0 0 32.000003814697266 32" xmlns="http://www.w3.org/2000/svg" xmlns:xlink="http://www.w3.org/1999/xlink" fill="#000000"><g><path d="M 19.803,23.117C 15.818,21.68, 14.544,20.467, 14.544,17.87c0-1.558, 1.218-1.050, 1.752-3.904c 0.222-1.184, 1.298-0.019, 1.501-2.722 c0-1.077-0.586-1.346-0.586-1.346s 0.299-1.595, 0.414-2.821C 17.77,5.549, 16.733,1.6, 11.2,1.6S 4.63,5.549, 4.774,7.078 c 0.117,1.227, 0.416,2.821, 0.416,2.821S 4.603,10.166, 4.603,11.245c 0.206,2.702, 1.282,1.538, 1.501,2.722 c 0.536,2.854, 1.754,2.346, 1.754,3.904c0,2.597-1.275,3.81-5.261,5.246c-0.48,0.171-1.624,0.44-2.597,0.861L0,30.4 l 25.6,0 c0,0,0-2.366,0-3.368S 23.803,24.558, 19.803,23.117z M 27.2,14.4L 27.2,9.6 l-3.2,0 l0,4.8 l-4.8,0 l0,3.2 l 4.8,0 l0,4.8 l 3.2,0 l0-4.8 l 4.8,0 L 32,14.4 L 27.2,14.4 z"></path></g></svg>