<?xml version="1.0" encoding="utf-8"?> <!-- Generator: IcoMoon.io --> <!DOCTYPE svg PUBLIC "-//W3C//DTD SVG 1.1//EN" "http://www.w3.org/Graphics/SVG/1.1/DTD/svg11.dtd"> <svg width="32.000003814697266" height="32" viewBox="0 0 32.000003814697266 32" xmlns="http://www.w3.org/2000/svg" xmlns:xlink="http://www.w3.org/1999/xlink" fill="#000000"><g><path d="M 32,30.080c0,0-0.062-6.059-0.434-6.686c-0.552-0.936-1.834-1.578-4.214-2.573c-2.373-0.992-3.133-1.83-3.133-3.621 c0-1.077, 0.725-0.725, 1.043-2.694c 0.131-0.818, 0.771-0.014, 0.894-1.878c0-0.744-0.349-0.93-0.349-0.93s 0.176-1.101, 0.246-1.947 c 0.086-1.056-0.533-3.781-3.827-3.781s-3.91,2.726-3.826,3.781c 0.069,0.846, 0.245,1.947, 0.245,1.947s-0.349,0.186-0.349,0.93 c 0.123,1.866, 0.763,1.062, 0.896,1.878c 0.317,1.97, 1.042,1.618, 1.042,2.694c0,1.218-0.352,1.995-1.323,2.678 c 5.184,2.595, 5.88,3.125, 5.88,5.445L 24.792,30.080 L 32,30.080 z M 16.358,21.72c-3.166-1.322-4.176-2.438-4.176-4.827c0-1.434, 0.966-0.966, 1.39-3.594 c 0.174-1.090, 1.030-0.018, 1.192-2.504c0-0.992-0.466-1.238-0.466-1.238s 0.237-1.467, 0.33-2.597C 14.744,5.555, 13.918,1.92, 9.526,1.92 c-4.392,0-5.216,3.634-5.101,5.040c 0.093,1.13, 0.328,2.597, 0.328,2.597S 4.29,9.803, 4.29,10.795 c 0.165,2.488, 1.018,1.416, 1.194,2.504c 0.424,2.627, 1.39,2.158, 1.39,3.594c0,2.389-1.013,3.506-4.176,4.827 C 1.733,22.123,0,22.749,0,24.25L0,30.080 l 22.23,0 c0,0,0-3.448,0-4.37C 22.23,24.339, 19.531,23.048, 16.358,21.72z"></path></g></svg>