<?xml version="1.0" encoding="utf-8"?> <!-- Generator: IcoMoon.io --> <!DOCTYPE svg PUBLIC "-//W3C//DTD SVG 1.1//EN" "http://www.w3.org/Graphics/SVG/1.1/DTD/svg11.dtd"> <svg width="32" height="32" viewBox="0 0 32 32" xmlns="http://www.w3.org/2000/svg" xmlns:xlink="http://www.w3.org/1999/xlink" fill="#000000"><g><path d="M 23.712,23.117c-3.944-1.437-5.205-2.65-5.205-5.246c0-1.558, 1.205-1.050, 1.733-3.904c 0.219-1.184, 1.283-0.019, 1.488-2.722 c0-1.077-0.581-1.346-0.581-1.346s 0.296-1.595, 0.411-2.821C 21.699,5.549, 20.675,1.6, 15.2,1.6C 9.726,1.6, 8.699,5.549, 8.843,7.078 C 8.958,8.304, 9.254,9.899, 9.254,9.899S 8.672,10.166, 8.672,11.245c 0.203,2.702, 1.267,1.538, 1.486,2.722 c 0.53,2.854, 1.734,2.346, 1.734,3.904c0,2.597-1.261,3.81-5.205,5.246c-3.958,1.44-6.528,2.91-6.528,3.914c0,1.002,0,3.368,0,3.368 l 15.040,0 l 15.040,0 c0,0,0-2.366,0-3.368C 30.24,26.029, 27.669,24.558, 23.712,23.117z"></path></g></svg>