<svg xmlns="http://www.w3.org/2000/svg" xmlns:xlink="http://www.w3.org/1999/xlink" version="1.1" id="Layer_1" x="0px" y="0px" width="1352.5px" height="977.833px" viewBox="0 0 1352.5 977.833" enable-background="new 0 0 1352.5 977.833" xml:space="preserve">
<symbol id="_x32__Top_H" viewBox="-10 -7.168 20 14.336">
	<path fill="#FFFFFF" d="M10-6.093c0-0.601-0.672-1.075-1.5-1.075h-17c-0.828,0-1.5,0.479-1.5,1.075V6.093   c0,0.601,0.671,1.075,1.5,1.075h17c0.829,0,1.5-0.479,1.5-1.075V-6.093L10-6.093z"></path>
</symbol>
<symbol id="_x36__Top_H" viewBox="-10.653 -15.925 21.306 31.849">
	<path fill="#FFFFFF" d="M-7.654-15.925c-1.653,0.001-2.999,0.983-2.999,2.207V13.72c0.002,1.22,1.348,2.204,3,2.204H7.653   c1.652,0,3-0.984,3-2.202l-0.001-27.438c0-1.218-1.353-2.205-3-2.205L-7.654-15.925z"></path>
</symbol>
<symbol id="_x38__Top_V" viewBox="-10.652 -20.33 21.305 40.659">
	<path fill="#FFFFFF" d="M-7.652-20.33c-1.652,0.001-3,1.261-3,2.816v35.028c0,1.558,1.346,2.814,3,2.814H7.652   c1.652,0,3-1.262,3-2.812v-35.028c0-1.562-1.353-2.817-3-2.817L-7.652-20.33z"></path>
</symbol>
<symbol id="Bar" viewBox="-22 -71.219 44 142.438">
	<g>
		<path fill="#626E75" d="M22-68.219c0-1.657-1.343-3-3-3h-38c-1.656,0-3,1.343-3,3V68.219c0,1.656,1.344,3,3,3h38    c1.657,0,3-1.344,3-3V-68.219z"></path>
		<g>
			<path fill="#2D3236" d="M2.633-7.256h-5.265v2.589c0,0.972,0.6,1.5,1.342,1.5c0.655,0,1.104-0.427,1.208-0.916     c0.087,0.567,0.647,1.019,1.287,1.019c0.82,0,1.428-0.532,1.428-1.526V-7.256z M-1.14-4.115c-0.388,0-0.68-0.269-0.68-0.729     V-6.33h1.358v1.483C-0.461-4.383-0.737-4.115-1.14-4.115z M1.086-4.012c-0.395,0-0.734-0.276-0.734-0.797v-1.524h1.469v1.524     C1.82-4.312,1.544-4.012,1.086-4.012z"></path>
			<path fill="#2D3236" d="M2.633,1.559L1.615,1.172v-2.416l1.018-0.388v-1.049l-5.265,2.062v1.152L2.633,2.6V1.559z M-1.708-0.036     l2.51-0.948v1.896L-1.708-0.036z"></path>
			<path fill="#2D3236" d="M2.633,6.182L0.668,5.022V4.098h1.965V3.173h-5.265v2.313c0,1.042,0.67,1.729,1.649,1.729     c0.932,0,1.444-0.617,1.548-1.256l2.067,1.295L2.633,6.182L2.633,6.182z M-0.99,6.268c-0.505,0-0.829-0.379-0.829-0.896V4.098     h1.674v1.271C-0.146,5.889-0.478,6.268-0.99,6.268z"></path>
		</g>
	</g>
</symbol>
<symbol id="Border" viewBox="-259.5 -187.291 519 374.582">
	<line fill="none" stroke="#626E75" stroke-width="2" stroke-miterlimit="10" x1="146.5" y1="184.068" x2="146.5" y2="16.412"></line>
	<polyline fill="none" stroke="#626E75" stroke-width="2" stroke-miterlimit="10" points="-256.5,5.922 -118.54,5.922    -118.54,-21.709  "></polyline>
	<polyline fill="none" stroke="#626E75" stroke-width="2" stroke-miterlimit="10" points="-81.604,-20.671 -25,-20.671    -25,-119.709  "></polyline>
	<line fill="none" stroke="#626E75" stroke-width="2" stroke-miterlimit="10" x1="246.5" y1="-34.751" x2="131.5" y2="-34.751"></line>
	
		<line fill="none" stroke="#626E75" stroke-width="2" stroke-miterlimit="10" x1="110.831" y1="-88.501" x2="110.831" y2="-120.001"></line>
	<line fill="none" stroke="#626E75" stroke-width="2" stroke-miterlimit="10" x1="257.75" y1="-9.078" x2="102.25" y2="-9.078"></line>
	<line fill="none" stroke="#626E75" stroke-width="2" stroke-miterlimit="10" x1="74.5" y1="29.457" x2="-1.5" y2="29.457"></line>
	<line fill="none" stroke="#626E75" stroke-width="2" stroke-miterlimit="10" x1="-65" y1="185.729" x2="-65" y2="110.465"></line>
	<line fill="none" stroke="#626E75" stroke-width="2" stroke-miterlimit="10" x1="-64.5" y1="90.791" x2="-64.5" y2="36.729"></line>
	<line fill="none" stroke="#626E75" stroke-width="2" stroke-miterlimit="10" x1="-118.54" y1="29.229" x2="-256.5" y2="29.229"></line>
	<line fill="none" stroke="#626E75" stroke-width="2" stroke-miterlimit="10" x1="36.5" y1="185.729" x2="36.5" y2="101.08"></line>
	<line fill="none" stroke="#626E75" stroke-width="2" stroke-miterlimit="10" x1="36.5" y1="87.791" x2="36.5" y2="29.33"></line>
	<polyline fill="none" stroke="#626E75" stroke-width="3" stroke-miterlimit="10" points="-25.54,-137.876 -25.54,-120.709    -258,-120.709 -258,185.791 258,185.791 258,-120.709 -6.5,-120.709 -6.5,-137.876  "></polyline>
	<polyline fill="none" stroke="#626E75" stroke-width="2" stroke-miterlimit="10" points="-5.5,-161.958 -5.5,-186.291    258.5,-186.291 258.5,-120.709  "></polyline>
	<polyline fill="none" stroke="#626E75" stroke-width="2" stroke-miterlimit="10" points="-258.5,-120.709 -258.5,-186.291    -27.041,-186.291 -27.041,-162.042  "></polyline>
</symbol>
<symbol id="Disabled_4_Top" viewBox="-10 -10 20 20">
	<g id="Square_Table_2_2_">
		<path fill="#626E75" d="M10-8.5C10-9.328,9.328-10,8.5-10h-17C-9.328-10-10-9.328-10-8.5v17c0,0.829,0.671,1.5,1.5,1.5h17    C9.329,10,10,9.329,10,8.5V-8.5L10-8.5z"></path>
	</g>
</symbol>
<symbol id="HLTable" viewBox="-23.833 -10.652 47.666 21.305">
	<path fill="#FFFFFF" d="M23.833-7.652c-0.001-1.646-1.478-2.999-3.301-2.999l-41.064-0.001c-1.823,0.001-3.301,1.354-3.301,3V7.652   c0,1.651,1.478,3,3.299,3H20.53c1.817,0,3.301-1.347,3.301-3L23.833-7.652z"></path>
</symbol>
<symbol id="Host_Stand" viewBox="-22 -44.5 44 89">
	<path fill="#626E75" d="M22-40.5c0-2.209-1.791-4-4-4h-36c-2.209,0-4,1.791-4,4v81c0,2.209,1.791,4,4,4h36c2.209,0,4-1.791,4-4   V-40.5z"></path>
	<g>
		<path fill="#2D3236" d="M4.365-11.329H0.429v-4.412h3.936v-1.979h-9.343v1.979h3.67v4.412h-3.67v2.003h9.343V-11.329z"></path>
		<path fill="#2D3236" d="M-0.3-7.945c-2.815,0-4.833,2.062-4.833,4.896c0,2.812,2.017,4.874,4.833,4.874    c2.816,0,4.833-2.062,4.833-4.874C4.533-5.887,2.516-7.945-0.3-7.945z M-0.3-0.228c-1.751,0-3.068-1.106-3.068-2.829    C-3.368-4.794-2.051-5.9-0.3-5.9c1.737,0,3.068,1.105,3.068,2.854C2.768-1.334,1.437-0.228-0.3-0.228z"></path>
		<path fill="#2D3236" d="M3.048,2.568L1.493,3.661c0.687,0.658,1.275,1.682,1.275,2.97c0,1.105-0.49,1.624-1.037,1.624    c-1.625,0-0.49-5.379-4.006-5.379c-1.555,0-2.843,1.346-2.843,3.544c0,1.484,0.448,2.719,1.302,3.646l1.485-1.105    c-0.7-0.757-1.022-1.766-1.022-2.718c0-0.841,0.364-1.316,0.925-1.316c1.471,0,0.476,5.364,3.964,5.364    c1.709,0,2.998-1.23,2.998-3.739C4.533,4.739,3.931,3.451,3.048,2.568z"></path>
		<path fill="#2D3236" d="M4.365,13.589h-7.592V10.86h-1.751V18.3h1.751v-2.71h7.592V13.589z"></path>
	</g>
</symbol>
<symbol id="Large_Booth_V" viewBox="-13.623 -21.054 27.246 42.107">
	<path fill="#FFFFFF" d="M13.621-17.895c0-1.745-0.914-3.159-2.043-3.159H-11.58c-1.127,0-2.043,1.414-2.043,3.159v35.788   c0,1.746,0.914,3.16,2.043,3.16h23.158c1.129,0,2.045-1.414,2.045-3.16v-35.788H13.621z"></path>
</symbol>
<symbol id="New_Symbol" viewBox="-7.168 -10 14.336 20">
	<g id="Table48_1_" enable-background="new    ">
		<path fill="#FFFFFF" d="M6.093,10c0.598,0,1.075-0.672,1.075-1.5v-17c0-0.828-0.479-1.5-1.075-1.5H-6.093    c-0.598,0-1.075,0.671-1.075,1.5v17c0,0.829,0.479,1.5,1.075,1.5H6.093L6.093,10z"></path>
	</g>
</symbol>
<symbol id="New_Symbol_2" viewBox="-311.144 -100.274 622.287 200.549">
	<g>
		<path fill="#364349" d="M-295.43-16.324l-12.141-3.341l3.68,27.445l10.787,3.669l3.369,39.027l1.812,0.647    c1.273,0.457,31.38,11.205,46.531,14.367c5.199,1.084,9.162,1.588,12.476,1.588c8.258,0,13.296-3.146,16.848-10.515    c4.11-8.53,3.392-22.047-4.161-32.055c7.041-3.297,11.775-11.719,12.504-22.914c0.889-13.654-8.207-38.525-36.393-47.131    c-20.495-6.257-54.186-15.07-54.521-15.158l-4.051-1.06L-295.43-16.324z M-270.107-25.305c8.228,2.608,26.16,8.33,32.289,10.54    c5.118,1.845,7.38,5.066,8.375,7.444c1.083,2.586,1.159,5.489,0.198,7.577c-0.335,0.729-1.572,1.954-4.098,1.954    c-0.939,0-1.965-0.174-3.049-0.515c-1.078-0.339-25.408-8.116-32.521-10.39L-270.107-25.305z M-267.593,19.686    c7.248,2.193,21.853,6.642,26.931,8.386c3.448,1.186,5.794,3.066,6.784,5.442c0.73,1.752,0.683,3.725-0.131,5.408    c-0.334,0.688-1.851,1.686-3.725,1.686c-0.461,0-0.9-0.062-1.31-0.186c-0.903-0.271-21.154-6.438-27.62-8.407L-267.593,19.686z"></path>
		<path fill="#99A5AA" d="M-228.914,64.082c7.135,0,11.152-2.608,14.145-8.816c4.353-9.03,2.504-23.395-6.854-32.315    c8.923-0.979,14.177-10.314,14.907-21.544c0.869-13.384-8.137-36.088-34.274-44.066c-20.674-6.312-54.405-15.125-54.405-15.125    l3.266,45.481l-11.86-3.266l2.829,21.108l10.881,3.7l3.373,39.062c0,0,31.012,11.1,46.135,14.255    C-236.048,63.543-232.158,64.082-228.914,64.082 M-270.915,15.549c0,0,24.265,7.291,31.228,9.686    c9.232,3.175,10.633,10.325,8.379,14.993c-0.938,1.946-3.642,3.38-6.425,3.38c-0.729,0-1.462-0.1-2.171-0.312    c-1.089-0.326-29.596-9.01-29.596-9.01L-270.915,15.549 M-273.417-29.498c0,0,28.451,8.967,36.615,11.911    c10.433,3.762,12.857,13.501,10.281,19.1c-0.84,1.824-3.172,3.699-6.822,3.699c-1.182,0-2.5-0.195-3.949-0.652    c-1.276-0.399-34.467-11.011-34.467-11.011L-273.417-29.498 M-228.912,70.082v-6V70.082h-0.003c-3.522,0-7.683-0.524-13.085-1.651    c-15.354-3.205-45.649-14.021-46.932-14.479l-3.625-1.298l-0.332-3.835l-3.035-35.16l-7.172-2.438l-3.521-1.196l-0.494-3.688    l-2.828-21.109l-1.205-8.987l8.744,2.407l3.676,1.012l-2.656-37.016l-0.601-8.353l8.101,2.117    c0.34,0.088,34.089,8.917,54.642,15.19c16.461,5.024,25.698,15,30.548,22.481c5.557,8.572,8.533,18.933,7.963,27.714    c-0.699,10.744-4.856,19.205-11.214,23.694c6.05,9.854,7.308,22.566,2.579,32.38C-213.378,66.201-219.591,70.082-228.912,70.082    L-228.912,70.082z M-263.826,29.742c7.855,2.393,24.823,7.562,25.645,7.807c0.127,0.039,0.283,0.06,0.449,0.06    c0.48,0,0.915-0.156,1.147-0.288c0.202-0.555,0.403-1.53-0.062-2.649c-0.643-1.539-2.414-2.875-4.99-3.762    c-4.189-1.439-14.967-4.748-22.635-7.078L-263.826,29.742L-263.826,29.742z M-266.063-10.931    c8.788,2.811,29.581,9.456,30.567,9.766c0.798,0.251,1.521,0.377,2.153,0.377c0.896,0,1.305-0.25,1.433-0.351    c0.422-1.048,0.578-2.927-0.3-5.021c-0.764-1.823-2.533-4.308-6.627-5.782c-5.182-1.869-18.926-6.285-27.961-9.163    L-266.063-10.931L-266.063-10.931z"></path>
	</g>
	<g>
		<polygon fill="#364349" points="24.229,96.485 48.132,96.485 48.132,-10.875 24.229,-10.896   "></polygon>
		<path fill="#99A5AA" d="M45.132,93.485V-7.877L27.229-7.894V93.485H45.132 M51.132,99.485h-6H27.229h-6v-6V-7.894V-13.9    l6.007,0.007l17.901,0.017l5.994,0.007v5.993V93.485L51.132,99.485L51.132,99.485z"></path>
	</g>
	<g>
		<path fill="#364349" d="M43.572,96.84l25.334-2.405l0.612-1.86c0.11-0.334,9.682-29.333,16.636-48.827l15.695,46.561l24.843-2.295    L87.333-25.163L43.572,96.84z"></path>
		<path fill="#99A5AA" d="M47.992,93.408l18.68-1.773c0,0,12.711-38.547,19.592-56.959l17.673,52.426l18.665-1.725L87.289-16.155    L47.992,93.408 M39.154,100.274l3.188-8.895L81.642-18.181l5.734-15.989l5.58,16.044l35.312,101.531l2.52,7.239l-7.635,0.705    l-18.664,1.727l-4.723,0.436l-1.515-4.495L86.093,52.953C79.66,71.42,72.465,93.224,72.37,93.513l-1.229,3.725l-3.902,0.37    l-18.681,1.773L39.154,100.274L39.154,100.274z"></path>
	</g>
	<g>
		<path fill="#364349" d="M124.741-19.519V24.89l-9.629,2.678v25.872l3.479-0.562c1.405-0.228,2.766-0.562,4.205-0.916    c0.891-0.219,1.796-0.441,2.755-0.65v37.283l73.792-15.547l-0.071-25.051l-49.952,10.381V46.806l36.286-8.228l-0.067-27.27    l-36.219,8.192V3.588l53.657-13.072l1.908-29.045L124.741-19.519z"></path>
		<path fill="#99A5AA" d="M128.55,84.896l67.785-14.281l-0.054-18.934l-49.964,10.384V44.41l36.28-8.227l-0.053-21.122    l-36.229,8.193V1.231l53.809-13.109l1.498-22.795l-73.882,17.526V27.17l-9.629,2.677v20.067c3.02-0.488,6.054-1.578,10.438-2.192    L128.55,84.896 M122.55,92.293v-7.396V55.108c-1.155,0.279-2.285,0.535-3.479,0.729l-6.958,1.125v-7.049V29.847v-4.56l4.393-1.223    l5.236-1.455v-39.757v-4.742l4.614-1.096l73.885-17.525l7.903-1.875l-0.531,8.105l-1.498,22.795l-0.289,4.395l-4.278,1.042    l-49.23,11.994v9.803l28.904-6.537l7.305-1.652l0.02,7.49l0.053,21.121l0.012,4.805l-4.685,1.062l-31.606,7.166v5.486    l42.741-8.883l7.2-1.496l0.021,7.354l0.054,18.932l0.014,4.884l-4.775,1.006l-67.786,14.281L122.55,92.293L122.55,92.293z"></path>
	</g>
	<g>
		<polygon fill="#364349" points="-201.987,75.905 -178.332,80.332 -182.61,-29.414 -208.436,-35.187   "></polygon>
		<path fill="#99A5AA" d="M-181.475,76.691l-4.043-103.683l-19.692-4.4l6.082,104.778L-181.475,76.691 M-175.188,83.972    l-7.392-1.384l-17.653-3.303l-4.613-0.863l-0.272-4.688L-211.2-31.045l-0.461-7.938l7.76,1.734l19.692,4.4l4.507,1.007    l0.181,4.615l4.043,103.683L-175.188,83.972L-175.188,83.972z"></path>
	</g>
	<g>
		<path fill="#364349" d="M8.21-29.882l-0.681,1.354C7.298-28.064-15.278,16.94-30.384,47.545l-1.127-57.328h-28.793l3.778,106.994    h48.315c20.868,0,34.824-14.223,34.824-35.391c0-16.919-6.929-26.73-21.726-30.59L38.72-35.112L8.21-29.882z M-8.685,54.004    c3.176,0.043,7.935,2.527,7.935,7.727c0,3.086-3.134,6.027-6.449,6.058h-22.786l-0.271-13.781h21.571V54.004z"></path>
		<path fill="#99A5AA" d="M-8.113,94.211c18.959,0,31.729-13.02,31.729-32.391c0-16.611-7.074-25.632-23.166-28.486l32.883-64.478    L10.21-27.181c0,0-23.701,47.241-38.956,78.187h20.06C-3.726,51.071,2.25,54.889,2.25,61.73c0,4.854-4.593,9.018-9.425,9.057    h-25.752l-1.524-77.568h-22.744l3.568,100.994h45.419C-8.179,94.211-8.145,94.211-8.113,94.211 M-8.111,100.211v-6V100.211h-0.002    h-0.107h-45.407h-5.792l-0.204-5.789L-63.191-6.571l-0.22-6.212h6.216h22.744h5.883l0.116,5.882l0.828,42.108    C-13.079,5.866,4.644-29.463,4.849-29.871l1.36-2.712l2.989-0.513l23.121-3.962l11.797-2.021L38.677-28.42L9.186,29.412    c5.732,2.031,10.202,5.088,13.552,9.241c4.628,5.739,6.878,13.317,6.878,23.168C29.614,84.424,14.102,100.211-8.111,100.211    L-8.111,100.211z M-27.044,64.787h19.869c1.607-0.015,3.425-1.613,3.425-3.059c0-3.463-3.4-4.688-4.985-4.726h-18.461    L-27.044,64.787L-27.044,64.787z"></path>
	</g>
	<g>
		<path fill="#364349" d="M-136.396-21.405c-0.754,0-1.365,0.022-1.859,0.043c-0.27,0.012-0.495,0.021-0.686,0.021    c-26.076,0-41.66,24.034-41.66,47.271c0,16.621,6.449,33.31,17.693,45.785c11.664,12.941,26.95,20.07,43.043,20.07    c7.672,0,24.529-5.341,30.814-15.98l1.063-1.799l-1.319-1.621c-4.396-5.397-9.709-10.494-14.328-14.766l-1.68-1.554l26.543,3.918    l-0.349-3.8c-0.259-2.822-0.051-7.229,0.071-9.857c0.048-0.975,0.08-1.717,0.08-2.087c0-13.59-4.662-28.221-12.791-40.137    c-6.598-9.671-18.416-21.833-37.258-24.856C-131.744-21.192-134.159-21.405-136.396-21.405z M-122.408,67.201    c-19.658,0-32.863-18.938-32.863-36.625c0-11.379,8.273-24.057,20.146-24.057c12.521,0,23.386,8.916,29.064,23.552l-27.285-4.307    v26.163l26.258,3.875l-1.295,2.733C-110.501,63.012-119.309,67.201-122.408,67.201z"></path>
		<path fill="#99A5AA" d="M-119.865,88.785c7.059,0,22.725-5.184,28.232-14.507c-4.135-5.079-9.242-10.021-14.039-14.457    c-2.723,5.75-12.668,10.38-16.736,10.38c-21.048,0-35.863-19.949-35.863-39.625c0-13.117,9.603-27.057,23.146-27.057    c14.308,0,27.48,10.399,33.326,29.725c-0.319,0.303-0.582,0.344-0.889,0.344c-0.113,0-0.231-0.006-0.363-0.006    c-0.002,0-0.006,0-0.008,0l-27.287-4.306v20.062l48.24,7.119c-0.373-4.055,0.139-10.854,0.139-12.219    c0-24.732-16.877-57.111-47.524-62.031c-3.14-0.504-5.349-0.612-6.903-0.612c-1.188,0-1.994,0.062-2.545,0.062    c-24.035,0-38.66,21.999-38.66,44.271C-177.602,58.859-151.723,88.785-119.865,88.785 M-119.865,94.785    c-16.953,0-33.031-7.48-45.271-21.062c-11.733-13.02-18.465-30.439-18.465-47.793c0-12.562,4.243-25.046,11.642-34.247    c8.309-10.333,20.034-16.022,33.021-16.022c0.157,0,0.344-0.01,0.566-0.02c0.486-0.02,1.152-0.045,1.979-0.045    c2.397,0,4.969,0.227,7.854,0.688c19.896,3.192,32.332,15.972,39.261,26.128c8.46,12.403,13.312,27.647,13.312,41.827    c0,0.485-0.032,1.179-0.082,2.228c-0.112,2.388-0.321,6.828-0.082,9.443l0.697,7.598l-7.549-1.113l-13.326-1.967    c3.196,3.125,6.445,6.521,9.33,10.064l2.637,3.24l-2.125,3.598C-93.665,89.514-112.065,94.785-119.865,94.785L-119.865,94.785z     M-135.125,9.521c-8.109,0-17.146,8.646-17.146,21.056c0,20.112,15.44,33.625,29.862,33.625c2.19-0.061,8.461-3.082,10.744-6.039    l-19.558-2.888l-5.125-0.757v-5.181V29.276v-7.021l6.937,1.095l18.36,2.897C-116.557,15.625-125.154,9.521-135.125,9.521    L-135.125,9.521z"></path>
	</g>
	<path fill="#99A5AA" d="M153.846-86.392c0-7.803,6.334-13.863,14.321-13.863c7.994,0,14.325,6.062,14.325,13.863   c0,7.797-6.331,13.855-14.325,13.855C160.18-72.535,153.846-78.595,153.846-86.392L153.846-86.392z M159.026-86.392   c0,5.172,4.337,9.193,9.14,9.193c4.805,0,9.143-4.021,9.143-9.193c0-5.173-4.338-9.201-9.143-9.201   C163.363-95.593,159.026-91.563,159.026-86.392L159.026-86.392z"></path>
	<polygon fill="#99A5AA" points="213.773,-100.255 218.672,-100.255 218.672,-88.469 221.924,-88.469 229.654,-100.255    235.903,-100.255 225.306,-84.76 235.521,-72.535 229.396,-72.535 220.486,-83.612 218.672,-83.612 218.672,-72.535    213.773,-72.535 213.773,-83.612 210.608,-83.612 210.608,-88.469 213.773,-88.469  "></polygon>
	<path fill="#99A5AA" d="M236.153-95.339c3.253-3.518,7.452-4.916,11.078-4.916c5.929,0,11.406,3.35,11.406,8.901   c0,11.061-16.677,5.084-16.677,11.061c0,1.612,1.482,3.604,5.435,3.604c2.513,0,4.655-0.805,7.002-3.176l3.543,3.264   c-2.556,2.67-6.017,4.066-10.299,4.066c-5.889,0-10.71-3.261-10.71-8.012c0-10.853,16.686-5.127,16.686-11.062   c0-2.539-2.557-3.941-6.181-3.983c-3.008,0-5.727,1.484-7.656,3.604L236.153-95.339L236.153-95.339z"></path>
	<path fill="#99A5AA" d="M-67.194-100.255h15.473c4.754,0,8.34,3.094,8.34,8.034c0,3.529-2.03,5.83-4.842,6.753   c2.033,0.933,3.328,2.958,3.328,5.521c0,4.94-3.673,7.41-7.82,7.41h-14.479v-11.077h-3.238v-4.854h3.238V-100.255L-67.194-100.255z    M-62.182-77.391h8.902c2.205,0,3.371-1.452,3.371-3.084c0-1.682-1.166-3.139-3.371-3.139h-8.902V-77.391L-62.182-77.391z    M-62.182-88.468h9.896c2.247,0,3.889-1.5,3.889-3.487c0-1.939-1.642-3.443-3.889-3.443h-9.896V-88.468L-62.182-88.468z"></path>
	<polygon fill="#99A5AA" points="20.433,-100.255 26.807,-84.512 32.927,-100.255 44.023,-72.535 38.833,-72.535 32.927,-88.622    26.807,-74.001 20.771,-88.622 14.776,-72.535 9.629,-72.535  "></polygon>
	<polygon fill="#99A5AA" points="131.933,-100.255 138.307,-84.512 144.427,-100.255 155.523,-72.535 150.333,-72.535    144.427,-88.622 138.307,-74.001 132.271,-88.622 126.276,-72.535 121.129,-72.535  "></polygon>
	<polygon fill="#99A5AA" points="47.396,-100.255 51.354,-100.255 51.354,-72.535 47.396,-72.535  "></polygon>
	<polygon fill="#99A5AA" points="79.854,-100.255 79.854,-73.086 74.874,-73.086 74.874,-89.403 57.484,-72.535 57.484,-99.703    62.465,-99.703 62.465,-83.383  "></polygon>
	<path fill="#99A5AA" d="M82.71-86.411c0-7.803,6.393-13.863,14.458-13.863c10.468,0,14.458,8.646,14.458,13.014v3.52h-14.5v-4.662   h9.18c-1.072-4.537-4.677-7.207-9.138-7.207c-4.85,0-9.225,4.028-9.225,9.201s4.375,9.193,9.225,9.193   c3.047,0,5.665-1.396,7.378-3.857l4.119,3.055c-3.003,3.733-7.207,5.467-11.497,5.467C89.104-72.555,82.71-78.614,82.71-86.411   L82.71-86.411z"></path>
	<path fill="#99A5AA" d="M-40.024-100.255h4.73v8.742h5.789l5.344-8.742h5.951l-6.401,9.888c3.425,1.147,5.993,4.328,5.993,8.345   c0,5.43-3.506,9.488-9.213,9.488h-12.193v-14.122h-3.059v-4.855h3.059V-100.255L-40.024-100.255z M-35.294-77.392h7.094   c3.344,0,4.852-2.162,4.852-4.633s-1.508-4.633-4.852-4.633h-7.094V-77.392L-35.294-77.392z"></path>
	<path fill="#99A5AA" d="M187.475-100.255h4.73v8.742h5.791l5.342-8.742h5.952l-6.401,9.888c3.426,1.147,5.994,4.328,5.994,8.345   c0,5.43-3.508,9.488-9.215,9.488h-12.193v-14.122h-3.058v-4.855h3.058V-100.255L187.475-100.255z M192.205-77.392h7.095   c3.344,0,4.853-2.162,4.853-4.633s-1.509-4.633-4.853-4.633h-7.095V-77.392L192.205-77.392z"></path>
	<g>
		<path fill="#99A5AA" d="M-261.789-86.411c0-7.803,6.391-13.863,14.457-13.863c10.467,0,14.458,8.646,14.458,13.014v3.52h-14.501    v-4.662h9.181c-1.073-4.537-4.677-7.207-9.138-7.207c-4.85,0-9.225,4.028-9.225,9.201s4.375,9.193,9.225,9.193    c3.047,0,5.664-1.396,7.378-3.857l4.12,3.055c-3.004,3.733-7.209,5.467-11.498,5.467    C-255.397-72.555-261.789-78.614-261.789-86.411L-261.789-86.411z"></path>
		<path fill="#99A5AA" d="M-226.94-100.255h4.73v8.742h5.789l5.344-8.742h5.951l-6.401,9.888c3.425,1.147,5.993,4.328,5.993,8.345    c0,5.43-3.506,9.488-9.213,9.488h-12.193v-14.122H-230v-4.855h3.059V-100.255L-226.94-100.255z M-222.21-77.392h7.094    c3.344,0,4.852-2.162,4.852-4.633s-1.508-4.633-4.852-4.633h-7.094V-77.392L-222.21-77.392z"></path>
		<polygon fill="#99A5AA" points="-200.732,-100.255 -196.793,-100.255 -196.793,-72.535 -200.732,-72.535   "></polygon>
		<polygon fill="#99A5AA" points="-190.729,-100.255 -170.576,-100.255 -170.576,-88.788 -175.457,-88.788 -175.457,-95.403     -185.848,-95.403 -185.848,-72.561 -190.729,-72.561   "></polygon>
		<polygon fill="#99A5AA" points="-166.956,-100.255 -146.803,-100.255 -146.803,-88.788 -151.684,-88.788 -151.684,-95.403     -162.076,-95.403 -162.076,-72.561 -166.956,-72.561   "></polygon>
		<polygon fill="#99A5AA" points="-140.966,-100.255 -120.576,-100.255 -120.576,-95.398 -136.059,-95.398 -136.059,-88.469     -125.272,-88.469 -125.272,-83.612 -136.059,-83.612 -136.059,-77.391 -120.576,-77.391 -120.576,-72.535 -140.966,-72.535     -140.966,-83.612 -144.141,-83.612 -144.141,-88.469 -140.966,-88.469   "></polygon>
	</g>
	<polygon fill="#99A5AA" points="-13.481,-100.255 6.908,-100.255 6.908,-95.398 -8.575,-95.398 -8.575,-88.469 2.211,-88.469    2.211,-83.612 -8.575,-83.612 -8.575,-77.391 6.908,-77.391 6.908,-72.535 -13.481,-72.535 -13.481,-83.612 -16.655,-83.612    -16.655,-88.469 -13.481,-88.469  "></polygon>
	<path fill="#99A5AA" d="M-83.009-60.915c-3.031,3.576-8.406,5.638-14.996,5.638c-11.877,0-17.945-5.848-17.945-11.83   c0-4.191,3.033-7.496,7.109-8.522v-0.143c-7.109-1.574-10.75-5.914-10.75-11.003c0-8.736,9.621-13.479,20.543-13.479   c14.043,0,22.714,8.321,22.714,19.327v2.682h5.635v4.814h-14.91c0.087-1.373,0.261-3.026,0.261-5.021   c0-9.147-3.643-15.474-13.523-15.474c-7.63,0-11.186,3.646-11.186,7.364c0,4.738,5.289,7.49,11.531,7.49   c1.301,0,2.17-0.067,2.859-0.207v6.125h-2.688c-5.896,0-8.582,2.406-8.582,6.187c0,3.301,3.814,5.774,8.321,5.774   c3.209,0,5.722-1.305,7.199-2.956L-83.009-60.915L-83.009-60.915z"></path>
	<g>
		<path fill="#99A5AA" d="M270.108-84.884c3.969,0,7.137-3.23,7.137-7.199c0-4.031-3.168-7.231-7.167-7.231    c-3.97,0-7.2,3.2-7.2,7.231c0,3.969,3.23,7.199,7.2,7.199H270.108z M270.045-86.323c-3.008,0-5.44-2.592-5.44-5.792    c0-3.231,2.434-5.761,5.474-5.761c3.039-0.031,5.504,2.527,5.504,5.761c0,3.2-2.465,5.792-5.504,5.792H270.045z M268.83-96.275    h-1.696v8c0.64,0.097,1.344,0.225,2.56,0.225c1.376,0,2.208-0.225,2.753-0.641c0.447-0.353,0.703-0.896,0.703-1.729    c0-0.96-0.672-1.632-1.535-1.854v-0.063c0.703-0.128,1.151-0.769,1.279-1.95c0.16-1.248,0.32-1.729,0.448-1.984h-1.76    c-0.192,0.288-0.32,0.992-0.48,2.08c-0.128,0.864-0.64,1.217-1.504,1.217h-0.768V-96.275L268.83-96.275z M268.83-91.667h0.8    c0.992,0,1.76,0.319,1.76,1.151c0,0.672-0.479,1.186-1.632,1.186c-0.416,0-0.704,0-0.928-0.032V-91.667z"></path>
	</g>
	<g>
		<path fill="#364349" d="M268.611-58.143l-21.575,40.279l-15.836,5.342l1.615-34.068l-25.224,7.417L206.05-4.176l-9.091,2.778    l-1.142,27.557l9.058-2.936l-2.06,49.854l4.131-1.384c0,0,24.034-8.054,39.544-13.225l1.854-0.613    c15.362-5.071,41.074-13.562,43.389-43.524c0.845-10.927-1.388-19.563-6.633-25.675c-3.642-4.242-7.979-6.329-11.143-7.349    l30.36-53.973L268.611-58.143z M230.145,14.803c4.267-1.406,14.694-4.845,23.155-7.601c1.987-0.646,3.854-0.977,5.55-0.977    c2.581,0,4.677,0.767,6.064,2.216c1.357,1.42,2.02,3.461,1.913,5.901c-0.247,5.621-2.493,11.484-17.141,16.279    c-8.807,2.883-16.253,5.33-20.612,6.765L230.145,14.803z"></path>
		<path fill="#99A5AA" d="M205.996,68.851c0,0,24.037-8.054,39.549-13.226c15.312-5.104,40.951-12.399,43.201-41.524    s-19.375-30.75-19.375-30.75l28.125-50l-26.751,10.878l-21.624,40.372l-21.125,7.125l1.625-34.249l-19.125,5.624l-1.54,34.974    l-9.085,2.776l-0.875,21.125l9.057-2.935L205.996,68.851 M258.85,3.228c7.084,0,11.263,4.683,10.975,11.25    c-0.367,8.375-5.078,14.373-19.203,18.998s-24.75,8.125-24.75,8.125l1.375-29c0,0,14.201-4.691,25.125-8.25    C254.729,3.583,256.898,3.228,258.85,3.228 M199.642,77.308L200,68.604l1.701-41.196l-0.857,0.276l-8.201,2.656L193,21.728    l0.875-21.125l0.176-4.246l4.065-1.243l5.03-1.538l1.354-30.737l0.188-4.283l4.113-1.209l19.125-5.624l8.085-2.377l-0.398,8.418    l-1.208,25.472l10.547-3.558l20.503-38.278l1.021-1.909l2.006-0.815l26.752-10.878l15.909-6.47l-8.42,14.97l-24.458,43.479    c2.933,1.38,6.206,3.543,9.113,6.931c5.783,6.737,8.255,16.11,7.348,27.858c-1.08,13.969-7.161,25.196-18.075,33.372    c-8.919,6.683-19.58,10.201-27.364,12.771c-0.63,0.209-1.247,0.412-1.848,0.611c-15.508,5.17-39.54,13.223-39.54,13.223    L199.642,77.308L199.642,77.308z M233.043,17.006l-0.768,16.172c4.312-1.418,10.03-3.293,16.478-5.403    c13.557-4.439,14.891-9.326,15.076-13.56c0.049-1.119-0.1-2.67-1.083-3.697c-1.021-1.065-2.683-1.29-3.897-1.29    c-1.379,0-2.934,0.278-4.621,0.828C246.914,12.438,238.041,15.358,233.043,17.006L233.043,17.006z"></path>
	</g>
</symbol>
<symbol id="Square_Table" viewBox="-13.147 -13.149 26.295 26.298">
	<path fill="#FFFFFF" d="M12.444,1.695c0.938-0.938,0.938-2.458,0-3.396L1.696-12.446c-0.937-0.938-2.456-0.938-3.394,0   L-12.445-1.698c-0.937,0.938-0.937,2.457,0.002,3.396l10.75,10.747c0.937,0.938,2.455,0.938,3.393,0L12.444,1.695z"></path>
</symbol>
<symbol id="Square_Table_2" viewBox="-10 -10 20 20">
	<path fill="#FFFFFF" d="M10-8.5C10-9.328,9.328-10,8.5-10h-17C-9.328-10-10-9.328-10-8.5v17c0,0.829,0.671,1.5,1.5,1.5h17   C9.329,10,10,9.329,10,8.5V-8.5L10-8.5z"></path>
</symbol>
<rect x="1" y="1" display="none" fill="#505A61" width="1343.953" height="971.274"></rect>
<use xlink:href="#Square_Table_2" width="20" height="20" id="tNTk2MzIwNTI1NzcxMzY3ODE1NTE3MTU4MTI4MjQ4NTE0ODEwMDEzOQ" x="-10" y="-10" transform="matrix(2.5895 0 0 -2.5895 1093.7705 51.0938)" overflow="visible"></use>
<use xlink:href="#Square_Table_2" width="20" height="20" id="tNjA4NjAxNjgyNDYyNTE3NzM0MTg3MTY1MzE4MTE4MDIyMDE1NTk4" x="-10" y="-10" transform="matrix(2.5895 0 0 -2.5895 1093.7705 132.23)" overflow="visible" enable-background="new    "></use>
<use xlink:href="#Square_Table_2" width="20" height="20" id="tNDkyMzAxNDE2NjE3NzA1MTg5Njg3NjIwMTY1MjQ0NzMxNTU" x="-10" y="-10" transform="matrix(2.5895 0 0 -2.5895 1093.7705 218.5459)" overflow="visible" enable-background="new    "></use>
<use xlink:href="#Square_Table_2" width="20" height="20" id="tNDYxMzIwMjE2ODIwODE2MDY4MTUyMTQ3MjIyNTY0MzcyMTk3ODE2NQ" x="-10" y="-10" transform="matrix(2.5895 0 0 -2.5895 1093.7705 297.959)" overflow="visible" enable-background="new    "></use>
<use xlink:href="#Square_Table_2" width="20" height="20" id="tNjkxMDExODYxMzg5Njc1NjkxOTUxNTcyMDIxMzkxMDIxNTE2MjI4MjE1" x="-10" y="-10" transform="matrix(2.5895 0 0 -2.5895 1016.085 51.0938)" overflow="visible" enable-background="new    "></use>
<use xlink:href="#Square_Table_2" width="20" height="20" id="tMTA4MTkzMjA5MTYzMzM0MTc3MTY1MTY4MTg4MTE0MTcwMTQ5MjIyNTEyMg" x="-10" y="-10" transform="matrix(2.5895 0 0 -2.5895 1016.085 137.731)" overflow="visible" enable-background="new    "></use>
<use xlink:href="#Square_Table_2" width="20" height="20" id="tMjQ5MTA1MTM0MTA5MTg4MTA3NzgxODE1MDE4MDkyMTIyMDE1NTIzNTk3" x="-10" y="-10" transform="matrix(2.5895 0 0 -2.5895 1016.085 224.3701)" overflow="visible" enable-background="new    "></use>
<use xlink:href="#Square_Table_2" width="20" height="20" id="tMTI4MjAyMjE3MzIxMDI0NzkxMDQxNjI5OTE2MTI2MTkwMjQzMTIxNDY" x="-10" y="-10" transform="matrix(2.5895 0 0 -2.5895 1016.085 311.0059)" overflow="visible" enable-background="new    "></use>
<use xlink:href="#Square_Table_2" width="20" height="20" id="tMjAxMTQyNjIzMzI0MTM0NzAxMDYxMzMxODQyMTgxODkxODgyMjYzMjE2Nw" x="-10" y="-10" transform="matrix(2.5895 0 0 -2.5895 1016.085 397.6455)" overflow="visible" enable-background="new    "></use>
<use xlink:href="#Square_Table_2" width="20" height="20" id="tMjM0MTQ0NTkxNDI1MTE0NTc1MjUzMTQ3MjUxMTMyMTExMzYxMzQxMDc2OQ" x="-10" y="-10" transform="matrix(2.5895 0 0 -2.5895 56.811 917.4595)" overflow="visible" enable-background="new    "></use>
<use xlink:href="#Square_Table_2" width="20" height="20" id="tNzAxNzkxNTcxNDYxMjA5NjcwOTMxNDQyMDgyMTAxNjUzMzExNzcxODI" x="-10" y="-10" transform="matrix(2.5895 0 0 -2.5895 176.9414 917.4595)" overflow="visible" enable-background="new    "></use>
<use xlink:href="#Square_Table_2" width="20" height="20" id="tMTA2MTMzMjUzMTk5MTE1NTcyMTIxNjg1OTI4MjIxMTYyMjAxMzMyOQ" x="-10" y="-10" transform="matrix(2.5895 0 0 -2.5895 537.333 917.4595)" overflow="visible" enable-background="new    "></use>
<use xlink:href="#Square_Table_2" width="20" height="20" id="tMTk2MjIzMTk1MTE3MTM4NjI3NDM3MTcxMTE3MTkzMTEzMDExMjk4ODc" x="-10" y="-10" transform="matrix(2.5895 0 0 -2.5895 710.5186 917.4595)" overflow="visible" enable-background="new    "></use>
<use xlink:href="#Square_Table_2" width="20" height="20" id="tMTM2ODUyMDExODQyMjgxNDA2NTI0NzE1MDI1MzExMjM0MTg0MTM0MTU3MTU4" x="-10" y="-10" transform="matrix(2.5895 0 0 -2.5895 808.7793 917.4595)" overflow="visible" enable-background="new    "></use>
<use xlink:href="#Square_Table_2" width="20" height="20" id="tNjQxNDU2NTEwMjE5MzE4NjQyMTQxNTExMTUxNzAyNDkzMTI4MTAxMjk" x="-10" y="-10" transform="matrix(2.5895 0 0 -2.5895 907.0381 917.4575)" overflow="visible" enable-background="new    "></use>
<use xlink:href="#Square_Table_2" width="20" height="20" id="tMTEyNjk0ODE5OTEyMTEyODc5MTcyMTg2NzUxNTE0NjIyMzIzODg0MjQ3" x="-10" y="-10" transform="matrix(2.5895 0 0 -2.5895 1005.293 917.4575)" overflow="visible" enable-background="new    "></use>
<use xlink:href="#Square_Table_2" width="20" height="20" id="tMTg1NzcxMjk3NDY5MjA2NTE1MjEzMDE1MjkxODExNTQ2MTM1MjUy" x="-10" y="-10" transform="matrix(2.5895 0 0 -2.5895 1103.5527 917.4575)" overflow="visible" enable-background="new    "></use>
<use xlink:href="#Square_Table_2" width="20" height="20" id="tMjQyMzQxNTkxMTg0Mzk1NzcyMTcxNzgxNjcxMjQxOTcxNzEyMzIyNzE4Mg" x="-10" y="-10" transform="matrix(2.5895 0 0 -2.5895 1300.0654 917.4575)" overflow="visible" enable-background="new    "></use>
<use xlink:href="#Square_Table_2" width="20" height="20" id="tMjIzMjc1OTE2MTE4NTM2NzExNjI0MzQ2MTkyOTExNjY4NQ" x="-10" y="-10" transform="matrix(2.5895 0 0 -2.5895 1201.8105 917.4575)" overflow="visible" enable-background="new    "></use>
<use xlink:href="#Square_Table" width="26.295" height="26.298" id="tMTUxMjQwMTAxMTA1MTk1NTA3NTE4MDE0ODA5NjUxNTI3MjEwMTE0MA" x="-13.147" y="-13.149" transform="matrix(2.5895 0 0 -2.5895 544.6963 687.6567)" overflow="visible"></use>
<use xlink:href="#Square_Table_2" width="20" height="20" id="tMjI4MTU1MTIxMTIyMjgxNzQ3MDE1ODE2NjIwNjE0NzEzODI5NjU2MzIwNA" x="-10" y="-10" transform="matrix(2.5895 0 0 -2.5895 544.6924 602.1919)" overflow="visible" enable-background="new    "></use>
<use xlink:href="#Square_Table" width="26.295" height="26.298" id="tODIxMjE4MzEzMTMxMTY5NzQyNDUxNjE4NTkxOTUxNjUxMTgxNjAxMjg" x="-13.147" y="-13.149" transform="matrix(2.5895 0 0 -2.5895 304.2397 733.4028)" overflow="visible" enable-background="new    "></use>
<use xlink:href="#Square_Table" width="26.295" height="26.298" id="tMjAyMTM1NDcxMTc1MTczMTcxMTQ1OTkyNDMxNjcxMTgxMzcyMjM4MQ" x="-13.147" y="-13.149" transform="matrix(2.5895 0 0 -2.5895 304.2397 637.8306)" overflow="visible" enable-background="new    "></use>
<use xlink:href="#Square_Table" width="26.295" height="26.298" id="tMjEzMjMyMTIzNDcyMzQ4OTc5MTEyMTYxMjMxMTcxMzIyNTE1MjE4ODQy" x="-13.147" y="-13.149" transform="matrix(2.5895 0 0 -2.5895 304.2397 542.2544)" overflow="visible" enable-background="new    "></use>
<use xlink:href="#Square_Table" width="26.295" height="26.298" id="tMjIxMTkxMTc0NDQxMjAxMjk3ODEyNjE1MDIyOTIwNTMxMTM4ODUxOTQyMTk" x="-13.147" y="-13.149" transform="matrix(2.5895 0 0 -2.5895 184.0107 733.4028)" overflow="visible" enable-background="new    "></use>
<use xlink:href="#Square_Table" width="26.295" height="26.298" id="tMTg0MjI1MjE2MTU4ODUyNTA3Njk2MTg3MjYxNjE2NzI0MjUyMTMyOTg" x="-13.147" y="-13.149" transform="matrix(2.5895 0 0 -2.5895 184.0107 637.8306)" overflow="visible" enable-background="new    "></use>
<use xlink:href="#Square_Table" width="26.295" height="26.298" id="tMTc4MTczMjMyMTMzNzcyODY3NDMxNjkxNjg5MDQ3MTUyMjI3MTc4Mw" x="-13.147" y="-13.149" transform="matrix(2.5895 0 0 -2.5895 184.0107 542.2544)" overflow="visible" enable-background="new    "></use>
<use xlink:href="#_x36__Top_H" width="21.306" height="31.849" id="tNzA4OTE2NjIwMDEyNDk1NzMxMjE4MzQ5NjMyNDAxNjA4MDEyOTIy" x="-10.653" y="-15.925" transform="matrix(2.5895 0 0 -2.5895 1093.7705 389.4595)" overflow="visible"></use>
<use xlink:href="#_x36__Top_H" width="21.306" height="31.849" id="tMTQxNTExNzAyNDEwOTM0NzM3MjE3ODIxNzIxMDIzMzk0MTEyMjAzNTQ" x="-10.653" y="-15.925" transform="matrix(2.5895 0 0 -2.5895 60.5176 740.5962)" overflow="visible" enable-background="new    "></use>
<use xlink:href="#_x38__Top_V" width="21.305" height="40.659" id="tMjE3MjA1ODAxMDY5MDI0MTY2MTMwMTcxMTI4MTE1MTI3MTUwOTE4MzYx" x="-10.652" y="-20.33" transform="matrix(2.5895 0 0 -2.5895 67.0249 575.438)" overflow="visible"></use>
<use xlink:href="#_x32__Top_H" width="20" height="14.336" id="tNDIyMjIxMTQzMjE4NDEwNzcyNTE0ODU1MTMxNjA5MzE0NTE4MTE0NA" x="-10" y="-7.168" transform="matrix(2.5895 0 0 -2.5895 417.2021 910.1255)" overflow="visible"></use>
<use xlink:href="#_x32__Top_H" width="20" height="14.336" id="tMTk2MTI0OTIyMTQ2MjU4NjUxOTkxNDEyNDAyMTExNzEwMjYxNTE1Ng" x="-10" y="-7.168" transform="matrix(2.5895 0 0 -2.5895 297.0732 910.1255)" overflow="visible" enable-background="new    "></use>
<use xlink:href="#Large_Booth_V" width="27.246" height="42.107" id="tMTg0MTk0MjUxMTQyNDk0MTczMjQ0MTU4MTc5MTg0NTcxODcyMDQxOTcxMjk" x="-13.623" y="-21.054" transform="matrix(2.5895 0 0 -2.5895 1109.7012 644.272)" overflow="visible"></use>
<use xlink:href="#Large_Booth_V" width="27.246" height="42.107" id="tMTg3MjMwMzE5NDE3MjE1NzY1MjQxMTQ4MTI3NTE1NDkyNTMxNDIxMjQ" x="-13.623" y="-21.054" transform="matrix(2.5895 0 0 -2.5895 1221.9912 644.272)" overflow="visible" enable-background="new    "></use>
<use xlink:href="#Square_Table" width="26.295" height="26.298" id="tMTc3MjIwMzk3MjEzNzk2OTEzMTE3NzE2NDE4ODExNzczMTU0MTE1OQ" x="-13.147" y="-13.149" transform="matrix(2.5895 0 0 -2.5895 424.4678 637.5923)" overflow="visible" enable-background="new    "></use>
<use xlink:href="#HLTable" width="47.666" height="21.305" id="tNjQxNjI0MDExNzEzOTEwNDc1MjYxNzcxNTY3NDE5OTEwMDEzNjU4MTcx" x="-23.833" y="-10.652" transform="matrix(2.5894 0 0 -2.5894 424.4609 733.4028)" overflow="visible"></use>
<use xlink:href="#_x32__Top_H" width="20" height="14.336" id="tMjQ5MjQyMTY1NDY1MTA0Njk0MDE1NDIwMzEzOTIyOTIyMjIxNzAyMjI" x="-10" y="-7.168" transform="matrix(2.5895 0 0 -2.5895 123.1006 835.0298)" overflow="visible" enable-background="new    "></use>
<use xlink:href="#_x32__Top_H" width="20" height="14.336" id="tMTAxMTExMTg4MTA4MTU3MjM1NzAzMjE5MTUxNjExMzcxODcxODcxNjgyOQ" x="-10" y="-7.168" transform="matrix(2.5895 0 0 -2.5895 56.811 835.0298)" overflow="visible" enable-background="new    "></use>
<use xlink:href="#_x32__Top_H" width="20" height="14.336" id="tMTc4MjIyMTAyMzcyMzY5OTcxNjgxNzE4MTI5NjkyNDAxMzUyNTAxNzE" x="-10" y="-7.168" transform="matrix(2.5895 0 0 -2.5895 345.7988 835.0298)" overflow="visible" enable-background="new    "></use>
<use xlink:href="#_x32__Top_H" width="20" height="14.336" id="tNTYxNDIyMzUyMzYyNTIyMzQ2NzMxNTkyNDgxNDAyMDE3NDUwOTYw" x="-10" y="-7.168" transform="matrix(2.5895 0 0 -2.5895 279.5088 835.0298)" overflow="visible" enable-background="new    "></use>
<use xlink:href="#_x32__Top_H" width="20" height="14.336" id="tMTQ3MjEzNDM5Mzk4MTg4NzcxMzE2ODQyNDM5MTk2MTQ2MTQxNjg" x="-10" y="-7.168" transform="matrix(2.5895 0 0 -2.5895 537.333 833.7349)" overflow="visible" enable-background="new    "></use>
<use xlink:href="#_x32__Top_H" width="20" height="14.336" id="tNTg0MTc0MTUwNDAxNTg3NDE1MTg4MTEzMzgxODA4NDI1MDEyODcw" x="-10" y="-7.168" transform="matrix(2.5895 0 0 -2.5895 471.043 835.0298)" overflow="visible" enable-background="new    "></use>
<path fill="none" stroke="#626E75" stroke-width="2" stroke-miterlimit="10" d="M224.992,34.663"></path>
<use xlink:href="#Bar" width="44" height="142.438" x="-22" y="-71.219" transform="matrix(2.5895 0 0 -2.5895 306.8926 208.8008)" overflow="visible"></use>
<g id="Chair_1_">
</g>
<g id="Chair_2_">
</g>
<g id="Chair">
</g>
<use xlink:href="#Disabled_4_Top" width="20" height="20" x="-10" y="-10" transform="matrix(2.5895 0 0 -2.5895 464.5205 50.6436)" overflow="visible"></use>
<use xlink:href="#New_Symbol" width="14.336" height="20" id="tOTcxOTAyMzcyNjI0NjI1NDY5MTU1MTMyMjE3MTE3OTIxMzQxMDkyNDkxNDA" x="-7.168" y="-10" transform="matrix(2.5895 0 0 -2.5895 537.333 50.6436)" overflow="visible"></use>
<use xlink:href="#Square_Table_2" width="20" height="20" id="tMjI5ODgzNjM0NTA1Mzc0MjI0MTQ4NjgxNDU0NDExMDEzODE1MTY2" x="-10" y="-10" transform="matrix(2.5895 0 0 -2.5895 732.5352 50.6436)" overflow="visible" enable-background="new    "></use>
<use xlink:href="#Square_Table_2" width="20" height="20" id="tMTI0ODkyMTYyNzIyMTUyNjQyMjMxNTQyNDAyNTExNjExNDIyNDgyODI5" x="-10" y="-10" transform="matrix(2.5895 0 0 -2.5895 732.5352 131.8838)" overflow="visible" enable-background="new    "></use>
<use xlink:href="#Square_Table_2" width="20" height="20" id="tNTkxMjIxMjIyNDM3NjE0NjcwNzUxNTA1MTY0NjE4Mzc1MjEwMjEz" x="-10" y="-10" transform="matrix(2.5895 0 0 -2.5895 732.5352 283.1367)" overflow="visible" enable-background="new    "></use>
<use xlink:href="#Square_Table_2" width="20" height="20" id="tMjcxMDYxNjUxODQ2MTIyNzY2MzIxNTgzMDcxMzAxMTY4MjI3NTE" x="-10" y="-10" transform="matrix(2.5895 0 0 -2.5895 1297.4775 51.0938)" overflow="visible" enable-background="new    "></use>
<use xlink:href="#Square_Table_2" width="20" height="20" id="tMzcxNTIxNDYyMzc1MjIxOTc2MTAxODcyMzc5MjYwOTMxNTMyNTA" x="-10" y="-10" transform="matrix(2.5895 0 0 -2.5895 1297.4775 120.4033)" overflow="visible" enable-background="new    "></use>
<use xlink:href="#Square_Table_2" width="20" height="20" id="tMTA5NDE3MzE2MzUxNDY3MjE5MTczMjU0MTkxMzExMDgxODczMzE5MA" x="-10" y="-10" transform="matrix(2.5895 0 0 -2.5895 1297.4775 189.7148)" overflow="visible" enable-background="new    "></use>
<use xlink:href="#Square_Table_2" width="20" height="20" id="tMTEzNTMxMzYyMzcxNTIxMTY2MTY2MTMwODI0NzIyOTExODUyMTk5MTc" x="-10" y="-10" transform="matrix(2.5895 0 0 -2.5895 1297.4775 259.0254)" overflow="visible" enable-background="new    "></use>
<use xlink:href="#Square_Table_2" width="20" height="20" id="tOTcxMjMxMzA0NTc0NzU1MTUzNjExNzExMTUyNTM1MTg4" x="-10" y="-10" transform="matrix(2.5895 0 0 -2.5895 1297.4775 328.334)" overflow="visible" enable-background="new    "></use>
<use xlink:href="#Square_Table_2" width="20" height="20" id="tMTQxMTEyNDE1MDEwNDI1MjczMjQyMTY0MTA5MTk3MTQ3MjE1MjQ2MTE2MTU3" x="-10" y="-10" transform="matrix(2.5895 0 0 -2.5895 1297.4775 397.6455)" overflow="visible" enable-background="new    "></use>
<use xlink:href="#Square_Table_2" width="20" height="20" id="tMzQyMzMyMTYxMTY1MjEyNDcxMTI4MTQxMTc1MTM3MTk5MzAyMTQxMDMw" x="-10" y="-10" transform="matrix(2.5895 0 0 -2.5895 732.5352 364.5674)" overflow="visible" enable-background="new    "></use>
<path fill="none" stroke="#626E75" stroke-width="3" stroke-miterlimit="10" d="M609.431,969.682"></path>
<use xlink:href="#_x32__Top_H" width="20" height="14.336" id="tMTgyMTIzMTMxMjUwMTE2MjQ1NjkxMzQxODIxNzk5MDE3NjE0MjE4NTQ0" x="-10" y="-7.168" transform="matrix(2.5895 0 0 -2.5895 1087.7266 835.0298)" overflow="visible" enable-background="new    "></use>
<use xlink:href="#_x32__Top_H" width="20" height="14.336" id="tNTcxMjI0NDE3NDIwMDE1NDc0ODIxNzgyMzYyMTUyNDYyMDIxOTkxMDExODI" x="-10" y="-7.168" transform="matrix(2.5895 0 0 -2.5895 1021.4365 835.0298)" overflow="visible" enable-background="new    "></use>
<use xlink:href="#_x32__Top_H" width="20" height="14.336" id="tMTMwOTcyMzkxMjM3NjEyMDY1MjE0MTcwMTIwMTgxMjUwMjE1ODUxMDUxODA" x="-10" y="-7.168" transform="matrix(2.5895 0 0 -2.5895 1300.0654 835.0298)" overflow="visible" enable-background="new    "></use>
<use xlink:href="#_x32__Top_H" width="20" height="14.336" id="tMTEyMTA3MTExMTkzMTQ2MzQ3NTM4MTM4NDUyMTg5Mzg0MDY5MTIx" x="-10" y="-7.168" transform="matrix(2.5895 0 0 -2.5895 1233.7754 835.0298)" overflow="visible" enable-background="new    "></use>
<use xlink:href="#Disabled_4_Top" width="20" height="20" x="-10" y="-10" transform="matrix(2.5895 0 0 -2.5895 464.5205 131.8838)" overflow="visible" enable-background="new    "></use>
<use xlink:href="#Disabled_4_Top" width="20" height="20" x="-10" y="-10" transform="matrix(2.5895 0 0 -2.5895 464.5205 283.1367)" overflow="visible" enable-background="new    "></use>
<use xlink:href="#Disabled_4_Top" width="20" height="20" x="-10" y="-10" transform="matrix(2.5895 0 0 -2.5895 464.5205 364.5674)" overflow="visible" enable-background="new    "></use>
<use xlink:href="#Host_Stand" width="44" height="89" id="XMLID_33_" x="-22" y="-44.5" transform="matrix(-2.753155e-05 1.3533 1.3533 6.981496e-06 721.5449 751.3091)" overflow="visible"></use>
<use xlink:href="#Square_Table_2" width="20" height="20" id="tMzkyMjkyMTMxMjMyNDMyNDE2NDIxNDE0ODEzMTI0MDIxODI0MTIxNDI5MjMy" x="-10" y="-10" transform="matrix(2.5895 0 0 -2.5895 1005.293 757.2427)" overflow="visible" enable-background="new    "></use>
<use xlink:href="#Square_Table_2" width="20" height="20" id="tMzYyNDYyNDkxODE1NjIwNjY2NDkxNjk5NjE4OTIwMDEyMzc2MTMyMjIx" x="-10" y="-10" transform="matrix(2.5895 0 0 -2.5895 1103.5527 757.2427)" overflow="visible" enable-background="new    "></use>
<use xlink:href="#Square_Table_2" width="20" height="20" id="tMjA4MjUwMTQwMTg4MTcyNTQ3MTM2MTMzNjcxNTY1MjE0MTM2NzE" x="-10" y="-10" transform="matrix(2.5895 0 0 -2.5895 1300.0654 757.2427)" overflow="visible" enable-background="new    "></use>
<use xlink:href="#Square_Table_2" width="20" height="20" id="tNTE2NTUzMTQ4NzkxNTQ3MDQ1MTc3NzQ2MDE0MTA0MjM1MTgwMjIw" x="-10" y="-10" transform="matrix(2.5895 0 0 -2.5895 1201.8105 757.2427)" overflow="visible" enable-background="new    "></use>
<path fill="none" stroke="#626E75" stroke-width="3" stroke-miterlimit="10" d="M609.431,844.317"></path>
<use xlink:href="#Border" width="519" height="374.582" id="XMLID_1_" x="-259.5" y="-187.291" transform="matrix(2.5895 0 0 -2.5895 675.5645 487.2852)" overflow="visible"></use>
<line fill="none" x1="17.185" y1="663.481" x2="17.185" y2="783.139"></line>
<use xlink:href="#New_Symbol" width="14.336" height="20" id="tMTA0NzkzMjUwMTUxNjc2ODE0MzE3MzIzMTQ4NDExMzQxMTE0NzI0Mg" x="-7.168" y="-10" transform="matrix(2.5895 0 0 -2.5895 537.333 131.8838)" overflow="visible" enable-background="new    "></use>
<use xlink:href="#New_Symbol" width="14.336" height="20" id="tMTYxOTkxOTY0OTE1OTE3MDc5MTgxMzkxODkxODExODQxNjM4NzIyMTQ3" x="-7.168" y="-10" transform="matrix(2.5895 0 0 -2.5895 537.333 283.1367)" overflow="visible" enable-background="new    "></use>
<use xlink:href="#New_Symbol" width="14.336" height="20" id="tMTgzMTUyMjk1NDY1MzU3NzExMzE1MjIxNTExOTE5NzE2ODM1NTUyMTM" x="-7.168" y="-10" transform="matrix(2.5895 0 0 -2.5895 537.333 364.5674)" overflow="visible" enable-background="new    "></use>
<use xlink:href="#New_Symbol" width="14.336" height="20" id="tMTMwMjA2MTk1MTMzMjUwMTk5Nzk2MTUzMTc3MTE3MTYzODQyMTAyNg" x="-7.168" y="-10" transform="matrix(2.5895 0 0 -2.5895 801.4463 50.6436)" overflow="visible" enable-background="new    "></use>
<use xlink:href="#New_Symbol" width="14.336" height="20" id="tOTIzNzE2OTEzNzE1MTE2OTY0MjI4MTMxMjMwMTM3MzI1ODI0NjE2NjE3NA" x="-7.168" y="-10" transform="matrix(2.5895 0 0 -2.5895 801.4463 131.8838)" overflow="visible" enable-background="new    "></use>
<use xlink:href="#New_Symbol" width="14.336" height="20" id="tMjM3MzgxMDQxNTcxMjgxNjc2ODIyMTE3OTEzNjE1NjM5MTEzODY2NDg1" x="-7.168" y="-10" transform="matrix(2.5895 0 0 -2.5895 801.4463 283.1367)" overflow="visible" enable-background="new    "></use>
<use xlink:href="#New_Symbol" width="14.336" height="20" id="tMjQ4NTY4ODIzMDE3NjE1OTc0MjQ1MTQ4MTk1MTk4MjUxMTgxOTkxMTgyNDM" x="-7.168" y="-10" transform="matrix(2.5895 0 0 -2.5895 801.4463 364.5674)" overflow="visible" enable-background="new    "></use>
<use xlink:href="#New_Symbol_2" width="622.287" height="200.549" id="XMLID_2_" x="-311.144" y="-100.274" transform="matrix(0.4299 0 0 -0.4299 796.1748 571.77)" overflow="visible"></use>
</svg>