<?xml version="1.0" encoding="utf-8"?>
<!-- Generator: Adobe Illustrator 16.2.0, SVG Export Plug-In . SVG Version: 6.00 Build 0)  -->
<!DOCTYPE svg PUBLIC "-//W3C//DTD SVG 1.1//EN" "http://www.w3.org/Graphics/SVG/1.1/DTD/svg11.dtd">
<svg version="1.1" id="Tables" xmlns="http://www.w3.org/2000/svg" xmlns:xlink="http://www.w3.org/1999/xlink" x="0px" y="0px"
	 width="920px" height="610px" viewBox="0 0 920 610" enable-background="new 0 0 920 610" xml:space="preserve">
<symbol  id="Diamond" viewBox="-25 -30 50 60">
	<path fill="#626E75" d="M18.879,2.035c1.167-1.167,1.166-3.076,0-4.242L2.207-18.879c-1.166-1.166-3.076-1.166-4.242,0
		L-18.879-2.036c-1.166,1.166-1.166,3.075,0,4.242l16.673,16.673c1.166,1.166,3.075,1.166,4.241-0.001L18.879,2.035z"/>
	<path id="XXX_3_" fill="#FFFFFF" d="M1,30h-12v-1H1V30L1,30z M-23,30h-2v-1l0,0c0-2.532,0-9,0-9h1v9h1V30L-23,30z M-24,8h-1V-4h1V8
		L-24,8z M-24-16h-1v-12h1V-16L-24-16z M-3-29h-12v-1h12V-29L-3-29z M21-29H9v-1h12V-29L21-29z M25-10h-1v-12h1V-10L25-10z M25,14
		h-1V2h1V14L25,14z M25,30H13v-1h11v-3h1V30L25,30z"/>
</symbol>
<symbol  id="Long_Table" viewBox="-25 -50 50 100">
	<path fill="#626E75" d="M20-37c0-1.65-1.35-3-3-3h-34c-1.65,0-3,1.35-3,3v74c0,1.648,1.35,3,3,3h34c1.65,0,3-1.352,3-3V-37z"/>
	<path id="XXX_5_" fill="#FFFFFF" d="M1,50h-12v-1H1V50L1,50z M-23,50h-2v-1l0,0c0-2.532,0-9,0-9h1v9h1V50L-23,50z M-24,28h-1V16h1
		V28L-24,28z M-24,4h-1V-8h1V4L-24,4z M-24-20h-1v-12h1V-20L-24-20z M-24-44h-1v-6h1l0,0l0,0l0,0l0,0c1.707,0,5,0,5,0v1h-5V-44
		L-24-44z M5-49H-7v-1H5V-49L5-49z M25-46h-1v-3h-7v-1h8V-46L25-46z M25-22h-1v-12h1V-22L25-22z M25,2h-1v-12h1V2L25,2z M25,26h-1
		V14h1V26L25,26z M25,50H13v-1h11V38h1V50L25,50z"/>
</symbol>
<symbol  id="Small_Table" viewBox="-25 -25 50 50">
	<path fill="#626E75" d="M20-12c0-1.65-1.35-3-3-3h-34c-1.65,0-3,1.35-3,3v24c0,1.649,1.35,3,3,3h34c1.65,0,3-1.351,3-3V-12z"/>
	<path id="XXX_6_" fill="#FFFFFF" d="M1,25h-12v-1H1V25L1,25z M-23,25h-2v-1l0,0c0-2.532,0-9,0-9h1v9h1V25L-23,25z M-24,3h-1V-9h1V3
		L-24,3z M-24-21h-1v-4h1l0,0l0,0l0,0l0,0c2.146,0,7,0,7,0v1h-7V-21L-24-21z M7-24H-5v-1H7V-24L7-24z M25-19h-1v-5h-5v-1h6V-19
		L25-19z M25,5h-1V-7h1V5L25,5z M25,25H13v-1h11v-7h1V25L25,25z"/>
</symbol>
<symbol  id="Square" viewBox="-25 -30 50 60">
	<path fill="#626E75" d="M20-17c0-1.65-1.35-3-3-3h-34c-1.65,0-3,1.35-3,3v34c0,1.649,1.35,3,3,3h34c1.65,0,3-1.351,3-3V-17z"/>
	<path id="XXX_2_" fill="#FFFFFF" d="M1,30h-12v-1H1V30L1,30z M-23,30h-2v-1l0,0c0-2.532,0-9,0-9h1v9h1V30L-23,30z M-24,8h-1V-4h1V8
		L-24,8z M-24-16h-1v-12h1V-16L-24-16z M-3-29h-12v-1h12V-29L-3-29z M21-29H9v-1h12V-29L21-29z M25-10h-1v-12h1V-10L25-10z M25,14
		h-1V2h1V14L25,14z M25,30H13v-1h11v-3h1V30L25,30z"/>
</symbol>
<symbol  id="Tall_Small_Table" viewBox="-20 -30 40 60">
	<path fill="#626E75" d="M-12.001-20c-1.649,0-3,1.35-3,3v34c0,1.649,1.351,3,3,3h24c1.649,0,3-1.351,3-3v-34c0-1.65-1.351-3-3-3
		H-12.001z"/>
	<path id="XXX_4_" fill="#FFFFFF" d="M-4,30h-12v-1h12V30L-4,30z M-19,22h-1V10h1V22L-19,22z M-19-2h-1v-12h1V-2L-19-2z M-19-26h-1
		v-4h1l0,0l0,0l0,0l0,0c2.146,0,7,0,7,0v1h-7V-26L-19-26z M12-29H0v-1h12V-29L12-29z M20-14h-1v-12h1V-14L20-14z M20,10h-1V-2h1V10
		L20,10z M20,30H8v-1h11v-7h1V30L20,30z"/>
</symbol>
<g>
	<path fill="none" stroke="#626E76" stroke-width="2" stroke-miterlimit="10" d="M295,50c0,2.75,2.25,5,5,5h30c2.75,0,5-2.25,5-5V20
		c0-2.75-2.25-5-5-5h-30c-2.75,0-5,2.25-5,5V50z"/>
</g>
<g id="Bar">
	<path fill="none" stroke="#626E76" stroke-width="2" stroke-miterlimit="10" d="M170,245c0,2.75,2.25,5,5,5h65c2.75,0,5-2.25,5-5
		V20c0-2.75-2.25-5-5-5h-65c-2.75,0-5,2.25-5,5V245z"/>
</g>
<g>
	<path fill="none" stroke="#626E76" stroke-width="2" stroke-miterlimit="10" d="M295,110c0,2.75,2.25,5,5,5h30c2.75,0,5-2.25,5-5
		V80c0-2.75-2.25-5-5-5h-30c-2.75,0-5,2.25-5,5V110z"/>
</g>
<g>
	<path fill="none" stroke="#626E76" stroke-width="2" stroke-miterlimit="10" d="M295,185c0,2.75,2.25,5,5,5h30c2.75,0,5-2.25,5-5
		v-30c0-2.75-2.25-5-5-5h-30c-2.75,0-5,2.25-5,5V185z"/>
</g>
<g>
	<path fill="none" stroke="#626E76" stroke-width="2" stroke-miterlimit="10" d="M295,245c0,2.75,2.25,5,5,5h30c2.75,0,5-2.25,5-5
		v-30c0-2.75-2.25-5-5-5h-30c-2.75,0-5,2.25-5,5V245z"/>
</g>
<g>
	<path fill="#626E75" d="M210,144.005h-9.343v-4.594c0-1.723,1.065-2.662,2.381-2.662c1.163,0,1.961,0.756,2.144,1.625
		c0.154-1.009,1.148-1.807,2.283-1.807c1.457,0,2.535,0.953,2.535,2.718V144.005z M203.304,138.431
		c-0.686,0-1.205,0.476-1.205,1.303v2.633h2.409v-2.633C204.509,138.907,204.019,138.431,203.304,138.431z M207.254,138.249
		c-0.7,0-1.303,0.49-1.303,1.415v2.704h2.605v-2.704C208.557,138.781,208.067,138.249,207.254,138.249z"/>
	<path fill="#626E75" d="M210,128.364l-1.807,0.687v4.287l1.807,0.686v1.863l-9.343-3.67v-2.045l9.343-3.67V128.364z
		 M202.296,131.193l4.454,1.681v-3.362L202.296,131.193z"/>
	<path fill="#626E75" d="M210,120.161l-3.488,2.059v1.639H210v1.639h-9.343v-4.104c0-1.849,1.191-3.068,2.928-3.068
		c1.653,0,2.563,1.093,2.746,2.227l3.67-2.297L210,120.161L210,120.161z M203.57,120.007c-0.896,0-1.471,0.672-1.471,1.597v2.255
		h2.97v-2.255C205.069,120.679,204.481,120.007,203.57,120.007z"/>
</g>
<line fill="none" stroke="#626E76" stroke-width="4" stroke-miterlimit="10" x1="5" y1="260" x2="250" y2="260"/>
<line fill="none" stroke="#626E76" stroke-width="4" stroke-miterlimit="10" x1="345" y1="5" x2="345" y2="125"/>
<line fill="none" stroke="#626E76" stroke-width="4" stroke-miterlimit="10" x1="345" y1="155" x2="345" y2="245"/>
<line fill="none" stroke="#626E76" stroke-width="4" stroke-miterlimit="10" x1="525" y1="150" x2="525" y2="245"/>
<line fill="none" stroke="#626E76" stroke-width="4" stroke-miterlimit="10" x1="525" y1="140" x2="525" y2="5"/>
<line fill="none" stroke="#626E76" stroke-width="4" stroke-miterlimit="10" x1="720" y1="5" x2="720" y2="280"/>
<polyline fill="none" stroke="#626E76" stroke-width="4" stroke-miterlimit="10" points="915,500 450,500 450,530 "/>
<line fill="none" stroke="#626E76" stroke-width="4" stroke-miterlimit="10" x1="620" y1="500" x2="620" y2="450"/>
<line fill="none" stroke="#626E76" stroke-width="4" stroke-miterlimit="10" x1="5" y1="500" x2="415" y2="500"/>
<line fill="none" stroke="#626E76" stroke-width="4" stroke-miterlimit="10" x1="415" y1="530" x2="415" y2="340"/>
<polyline fill="none" stroke="#626E76" stroke-width="4" stroke-miterlimit="10" points="415,570 415,605 5,605 5,5 915,5 915,605 
	450,605 450,570 "/>
<use xlink:href="#Square"  width="50" height="60" id="t193_x2C_127_x2C_52_x2C_221_x2C_17_x2C_181_x2C_71_x2C_91_x2C_180_x2C_116_x2C_65_x2C_78_x2C_105_x2C_35_x2C_183_x2C_106" x="-25" y="-30" transform="matrix(1 0 0 -1 885 35)" overflow="visible"/>
<use xlink:href="#Square"  width="50" height="60" id="ttDhbjuUJQEKkd6xCGA3xVA" x="-25" y="-30" transform="matrix(1 0 0 -1 885 95)" overflow="visible" enable-background="new    "/>
<use xlink:href="#Square"  width="50" height="60" id="teEYKjfkASziMBiwQyrfZOQ" x="-25" y="-30" transform="matrix(1 0 0 -1 885 155)" overflow="visible" enable-background="new    "/>
<use xlink:href="#Square"  width="50" height="60" id="tAVa3Jb5xSdeHrSeAibVMWA" x="-25" y="-30" transform="matrix(1 0 0 -1 885 215)" overflow="visible" enable-background="new    "/>
<use xlink:href="#Square"  width="50" height="60" id="t.WTLaIZtQkKrwG3ragVpAg" x="-25" y="-30" transform="matrix(1 0 0 -1 750 35)" overflow="visible" enable-background="new    "/>
<use xlink:href="#Square"  width="50" height="60" id="tAjhdPRHKT62YrN6FEvKZLQ" x="-25" y="-30" transform="matrix(1 0 0 -1 750 95)" overflow="visible" enable-background="new    "/>
<use xlink:href="#Square"  width="50" height="60" id="t1tjRptgPTvKP4H7FdmJTrg" x="-25" y="-30" transform="matrix(1 0 0 -1 750 155)" overflow="visible" enable-background="new    "/>
<use xlink:href="#Square"  width="50" height="60" id="tJ43HHPphSRSfmtPtG8Af0A" x="-25" y="-30" transform="matrix(1 0 0 -1 750 215)" overflow="visible" enable-background="new    "/>
<use xlink:href="#Square"  width="50" height="60" id="tkjmgxu4PTpiw_KNacY.4SA" x="-25" y="-30" transform="matrix(1 0 0 -1 40 450)" overflow="visible" enable-background="new    "/>
<use xlink:href="#Square"  width="50" height="60" id="tai9JWHyVQEaT.TD2vQxqOw" x="-25" y="-30" transform="matrix(1 0 0 -1 750 275)" overflow="visible" enable-background="new    "/>
<use xlink:href="#Square"  width="50" height="60" id="tbS5k77gbRyCStuwm6aEDiA" x="-25" y="-30" transform="matrix(1 0 0 -1 690 35)" overflow="visible" enable-background="new    "/>
<use xlink:href="#Square"  width="50" height="60" id="tI.dUhJNJSAq9O4rDjDA8sA" x="-25" y="-30" transform="matrix(1 0 0 -1 690 95)" overflow="visible" enable-background="new    "/>
<use xlink:href="#Square"  width="50" height="60" id="tFd6gaes2RF_b3Uq58DqgIQ" x="-25" y="-30" transform="matrix(1 0 0 -1 690 155)" overflow="visible" enable-background="new    "/>
<use xlink:href="#Square"  width="50" height="60" id="tlQM61G.UQZKMGV7bAHwOIA" x="-25" y="-30" transform="matrix(1 0 0 -1 690 215)" overflow="visible" enable-background="new    "/>
<use xlink:href="#Square"  width="50" height="60" id="tXBLwKXoJRxKjYMiNYzzOCA" x="-25" y="-30" transform="matrix(1 0 0 -1 495 35)" overflow="visible" enable-background="new    "/>
<use xlink:href="#Square"  width="50" height="60" id="toOiG5TJKQXaxU7Z65mcxrg" x="-25" y="-30" transform="matrix(1 0 0 -1 495 95)" overflow="visible" enable-background="new    "/>
<use xlink:href="#Square"  width="50" height="60" id="tZ5.CPmzPTlu3Iei_efcXJw" x="-25" y="-30" transform="matrix(1 0 0 -1 495 170)" overflow="visible" enable-background="new    "/>
<use xlink:href="#Square"  width="50" height="60" id="tg8soCiYmQxy2wcgjiSw8aA" x="-25" y="-30" transform="matrix(1 0 0 -1 495 230)" overflow="visible" enable-background="new    "/>
<use xlink:href="#Square"  width="50" height="60" id="tsYc0Wn6nSjaPMIx9Z3FUeQ" x="-25" y="-30" transform="matrix(1 0 0 -1 360 350)" overflow="visible" enable-background="new    "/>
<use xlink:href="#Square"  width="50" height="60" id="tGOlyc6MNRUaLaZ110xeusQ" x="-25" y="-30" transform="matrix(1 0 0 -1 690 275)" overflow="visible" enable-background="new    "/>
<use xlink:href="#Square"  width="50" height="60" id="t5TwDA5RiS.G2C99R4exsMw" x="-25" y="-30" transform="matrix(1 0 0 -1 885 275)" overflow="visible" enable-background="new    "/>
<use xlink:href="#Square"  width="50" height="60" id="thFYvzLwbQySnnj_JTv7d9A" x="-25" y="-30" transform="matrix(1 0 0 -1 885 335)" overflow="visible" enable-background="new    "/>
<use xlink:href="#Diamond"  width="50" height="60" id="tzktHnFOJSemEzI0hS.c3xw" x="-25" y="-30" transform="matrix(1 0 0 -1 120.0005 385)" overflow="visible"/>
<use xlink:href="#Diamond"  width="50" height="60" id="tCS8PdgYIQ_m8eGzWaWKrnA" x="-25" y="-30" transform="matrix(1 0 0 -1 120.0005 320)" overflow="visible" enable-background="new    "/>
<use xlink:href="#Diamond"  width="50" height="60" id="tfKvNQxu4TXaLjHVx2gPMXw" x="-25" y="-30" transform="matrix(1 0 0 -1 120.0005 450)" overflow="visible" enable-background="new    "/>
<use xlink:href="#Diamond"  width="50" height="60" id="tVL5hucDzRbaKNqpT3d0L_w" x="-25" y="-30" transform="matrix(1 0 0 -1 200.0005 385)" overflow="visible" enable-background="new    "/>
<use xlink:href="#Diamond"  width="50" height="60" id="tMy3JeafqST2lDqyMz7DLhg" x="-25" y="-30" transform="matrix(1 0 0 -1 200.0005 320)" overflow="visible" enable-background="new    "/>
<use xlink:href="#Diamond"  width="50" height="60" id="tSkhRWHRCSX2tR.wMMJCxaA" x="-25" y="-30" transform="matrix(1 0 0 -1 200.0005 450)" overflow="visible" enable-background="new    "/>
<use xlink:href="#Diamond"  width="50" height="60" id="tJ5KmYN89Ro_Td97f2Na9AQ" x="-25" y="-30" transform="matrix(1 0 0 -1 280.0005 385)" overflow="visible" enable-background="new    "/>
<use xlink:href="#Diamond"  width="50" height="60" id="t0aYVU4kBRbCtPR9HDL9eGA" x="-25" y="-30" transform="matrix(1 0 0 -1 280.0005 450)" overflow="visible" enable-background="new    "/>
<use xlink:href="#Tall_Small_Table"  width="40" height="60" id="t8kZG4rx9TgCFfttKUFhFWg" x="-20" y="-30" transform="matrix(1 0 0 -1 550 35)" overflow="visible"/>
<use xlink:href="#Tall_Small_Table"  width="40" height="60" id="tNUKTXt7gRRGII1FtdadHPw" x="-20" y="-30" transform="matrix(1 0 0 -1 550 95)" overflow="visible" enable-background="new    "/>
<use xlink:href="#Tall_Small_Table"  width="40" height="60" id="tQVLSBr20QuuAJfwkL_vMgw" x="-20" y="-30" transform="matrix(1 0 0 -1 550 170)" overflow="visible" enable-background="new    "/>
<use xlink:href="#Tall_Small_Table"  width="40" height="60" id="tXkxAgUbHQTmUnGECmwlpfQ" x="-20" y="-30" transform="matrix(1 0 0 -1 550 230)" overflow="visible" enable-background="new    "/>
<use xlink:href="#Tall_Small_Table"  width="40" height="60" id="t8n4ot4tBQPG9HXf6frbSaQ" x="-20" y="-30" transform="matrix(1 0 0 -1 370 35)" overflow="visible" enable-background="new    "/>
<use xlink:href="#Tall_Small_Table"  width="40" height="60" id="tzM0B.O.wQeyc87kfv8uLEg" x="-20" y="-30" transform="matrix(1 0 0 -1 370 95)" overflow="visible" enable-background="new    "/>
<use xlink:href="#Tall_Small_Table"  width="40" height="60" id="ttEESKZu6QMWuanKXH3ZDBw" x="-20" y="-30" transform="matrix(1 0 0 -1 370 170)" overflow="visible" enable-background="new    "/>
<use xlink:href="#Tall_Small_Table"  width="40" height="60" id="tNWSukSlSQk6TcW_CcoRTXw" x="-20" y="-30" transform="matrix(1 0 0 -1 370 230)" overflow="visible" enable-background="new    "/>
<use xlink:href="#Long_Table"  width="50" height="100" id="tbBN5gwZgS.mQgZ9C0QxjJg" x="-25" y="-50" transform="matrix(1 0 0 -1 740 379)" overflow="visible"/>
<use xlink:href="#Long_Table"  width="50" height="100" id="tevNlqGK5TiuFBQ.0iC4I5Q" x="-25" y="-50" transform="matrix(1 0 0 -1 40 330)" overflow="visible" enable-background="new    "/>
<use xlink:href="#Long_Table"  width="50" height="100" id="t4GuCCbruQgyH4jZIxwcM9w" x="-25" y="-50" transform="matrix(1 0 0 -1 360 435)" overflow="visible" enable-background="new    "/>
<use xlink:href="#Long_Table"  width="50" height="100" id="tlJ4_1WGJTVKyEE1A.6XQAg" x="-25" y="-50" transform="matrix(1 0 0 -1 825 379)" overflow="visible" enable-background="new    "/>
<use xlink:href="#Square"  width="50" height="60" id="tajpNVYPIS_GD1ptuDBblTw" x="-25" y="-30" transform="matrix(1 0 0 -1 886.333 463)" overflow="visible" enable-background="new    "/>
<use xlink:href="#Square"  width="50" height="60" id="t_PdpPTcpRcSk94eC7NjGmg" x="-25" y="-30" transform="matrix(1 0 0 -1 810 463)" overflow="visible" enable-background="new    "/>
<use xlink:href="#Square"  width="50" height="60" id="tL5ezFhA7S6i5nJ8fFyVvlA" x="-25" y="-30" transform="matrix(1 0 0 -1 735 463)" overflow="visible" enable-background="new    "/>
<use xlink:href="#Square"  width="50" height="60" id="txHRs.Oc5R6unFpQ1MFTKng" x="-25" y="-30" transform="matrix(1 0 0 -1 665 463)" overflow="visible" enable-background="new    "/>
<use xlink:href="#Square"  width="50" height="60" id="tG0I51AklQ1GsDtWXVLAVgw" x="-25" y="-30" transform="matrix(1 0 0 -1 885 575)" overflow="visible" enable-background="new    "/>
<use xlink:href="#Square"  width="50" height="60" id="t5na3jPbgSo_0x8ugzVioxg" x="-25" y="-30" transform="matrix(1 0 0 -1 820 575)" overflow="visible" enable-background="new    "/>
<use xlink:href="#Square"  width="50" height="60" id="tEYuICw_LTQaauFphstfX9A" x="-25" y="-30" transform="matrix(1 0 0 -1 750 575)" overflow="visible" enable-background="new    "/>
<use xlink:href="#Square"  width="50" height="60" id="trnTUQDOdQGiTZ1tvXDKFNg" x="-25" y="-30" transform="matrix(1 0 0 -1 685 575)" overflow="visible" enable-background="new    "/>
<use xlink:href="#Square"  width="50" height="60" id="t89STElHkRu_Vd7.M.dxPKQ" x="-25" y="-30" transform="matrix(1 0 0 -1 615 575)" overflow="visible" enable-background="new    "/>
<use xlink:href="#Square"  width="50" height="60" id="tcsUii94FQtiEsCyx9iqZ0g" x="-25" y="-30" transform="matrix(1 0 0 -1 545 575)" overflow="visible" enable-background="new    "/>
<use xlink:href="#Square"  width="50" height="60" id="tCZycg7LbSLSjdGv_zWiZ.w" x="-25" y="-30" transform="matrix(1 0 0 -1 480 575)" overflow="visible" enable-background="new    "/>
<use xlink:href="#Square"  width="50" height="60" id="t2uB3GUP9SfK4FTfa4asjlA" x="-25" y="-30" transform="matrix(1 0 0 -1 125 575)" overflow="visible" enable-background="new    "/>
<use xlink:href="#Square"  width="50" height="60" id="tFZKVZzz6TXOn82dbnguJDw" x="-25" y="-30" transform="matrix(1 0 0 -1 375 580)" overflow="visible" enable-background="new    "/>
<use xlink:href="#Square"  width="50" height="60" id="t8iMh1fnAQjij1wrTY91T.w" x="-25" y="-30" transform="matrix(1 0 0 -1 40 575)" overflow="visible" enable-background="new    "/>
<use xlink:href="#Small_Table"  width="50" height="50" id="tkWW3R6CYQzG9LGfJzPgfrA" x="-25" y="-25" transform="matrix(1 0 0 -1 885 520)" overflow="visible"/>
<use xlink:href="#Small_Table"  width="50" height="50" id="tcUatLKcLR2CeXKnMeM8gkg" x="-25" y="-25" transform="matrix(1 0 0 -1 820 520)" overflow="visible" enable-background="new    "/>
<use xlink:href="#Small_Table"  width="50" height="50" id="tbORcmKhXTqmWkVk2nR5SMQ" x="-25" y="-25" transform="matrix(1 0 0 -1 750 520)" overflow="visible" enable-background="new    "/>
<use xlink:href="#Small_Table"  width="50" height="50" id="t_jV8c6b9SXC98Es12ooKBQ" x="-25" y="-25" transform="matrix(1 0 0 -1 685 520)" overflow="visible" enable-background="new    "/>
<use xlink:href="#Small_Table"  width="50" height="50" id="tdWYvgyGHS0yO7cJ9DjKdTw" x="-25" y="-25" transform="matrix(1 0 0 -1 375 520)" overflow="visible" enable-background="new    "/>
<use xlink:href="#Small_Table"  width="50" height="50" id="ttWTXk9WPR16ns7Na1anXfg" x="-25" y="-25" transform="matrix(1 0 0 -1 310 520)" overflow="visible" enable-background="new    "/>
<use xlink:href="#Small_Table"  width="50" height="50" id="tssqBHCTKSlOqjErsBD80.g" x="-25" y="-25" transform="matrix(1 0 0 -1 240 520)" overflow="visible" enable-background="new    "/>
<use xlink:href="#Small_Table"  width="50" height="50" id="tDTqt9ETBQZmBaMnlp96HUw" x="-25" y="-25" transform="matrix(1 0 0 -1 175 520)" overflow="visible" enable-background="new    "/>
<use xlink:href="#Small_Table"  width="50" height="50" id="t1gja_4.LSz24_WLVdcnGfw" x="-25" y="-25" transform="matrix(1 0 0 -1 290 575)" overflow="visible" enable-background="new    "/>
<use xlink:href="#Small_Table"  width="50" height="50" id="tGYHrFQuuQFOI.zR32Z0RMA" x="-25" y="-25" transform="matrix(1 0 0 -1 210 575)" overflow="visible" enable-background="new    "/>
<use xlink:href="#Small_Table"  width="50" height="50" id="tqp1brEEvQ_Sh4x0f5_u10A" x="-25" y="-25" transform="matrix(1 0 0 -1 110 520)" overflow="visible" enable-background="new    "/>
<use xlink:href="#Small_Table"  width="50" height="50" id="tAX7gEaZoT8ynIY3Lli7dVw" x="-25" y="-25" transform="matrix(1 0 0 -1 45 520)" overflow="visible" enable-background="new    "/>
<g>
	<title>Layer 1</title>
	<g id="layer1">
		<path id="svg_2" fill="#3E464B" d="M529.002,408.445c1.338,0,1.479-0.093,3.914,3.051c1.426,1.838,4.509,5.761,6.145,8.115
			l24.496-0.09c3.055-0.139,3.392-0.488,4.653-1.396c2.31-1.657,4.463-4.46,9.521-12.388c1.524-2.396,3.477-5.418,4.331-6.715
			c1.301-2.089,0.824-2.427,4.257-3.109c-2.484,6.162-5.662,13.423-7.79,16.649c-4.188,6.349-10.854,13.153-24.066,17.399
			c10.278-1.782,13.533-4.91,20.379-10.499c-4.649,9.604-11.138,18.285-17.136,27.052c13.481-14.342,26.408-30.236,33.314-48.901
			c1.194-3.657,2.555-8.673,2.395-8.832c-2.539,2.844-5.626,6.001-12.179,6.15c-9.912,0.229-17.546-2.797-24.704-8.207
			c-0.754,0.552-1.67,1.029-1.688,2.152c-0.016,1.055,1.143,2.215,3.402,3.492c3.714,2.098,13.246,4.576,17.595,4.576
			c0.554,0,1,0.052,1,0.116c0,0.066-2.556,3.315-5.68,7.216c-4.795,5.981-5.81,7.13-6.499,7.366
			c-1.604,0.554-10.561,0.188-15.373-0.625c-2.308-0.391-3.34-0.816-4.575-1.901c-2.239-2.285-3.94-5.105-6.229-7.284
			c-2.535,0.957-5.229,1.952-9.485,2.001c-3.321,0.036-6.421-0.857-9.484-2.001c-2.284,2.179-3.987,4.999-6.229,7.284
			c-1.235,1.085-2.267,1.513-4.575,1.901c-4.812,0.812-13.771,1.179-15.373,0.625c-0.689-0.236-1.704-1.385-6.499-7.366
			c-3.124-3.898-5.681-7.147-5.681-7.216c0-0.064,0.449-0.116,1.001-0.116c4.349,0,13.881-2.479,17.595-4.576
			c2.261-1.277,3.417-2.438,3.401-3.492c-0.018-1.123-0.935-1.604-1.688-2.152c-7.159,5.41-14.792,8.438-24.705,8.207
			c-6.552-0.149-9.639-3.309-12.179-6.15c-0.159,0.159,1.198,5.175,2.396,8.832c6.904,18.665,19.832,34.562,33.312,48.901
			c-5.998-8.767-12.484-17.446-17.137-27.052c6.847,5.589,10.103,8.717,20.38,10.499c-13.213-4.246-19.881-11.053-24.066-17.399
			c-2.128-3.229-5.306-10.487-7.791-16.649c3.434,0.684,2.957,1.021,4.259,3.109c0.854,1.297,2.805,4.318,4.331,6.715
			c5.058,7.928,7.212,10.729,9.521,12.388c1.263,0.906,1.6,1.258,4.651,1.396l24.496,0.09c1.636-2.354,4.72-6.277,6.146-8.115
			C527.519,408.354,527.664,408.445,529.002,408.445z M488.096,314.896c-8.554,0.086-16.305,4.913-20.213,17.816
			c6.937-3.672,15.881-3.595,23.562-0.958c10.236,3.516,18.996,11.58,26.563,22.087c-0.842-6.098-3.377-12.428-4.992-15.698
			c1.492,0.242,3.601,0.972,4.527-0.175c1.003-1.234,0.214-2.488-0.778-3.525c-8.011-8.368-18.812-13.818-30.495-14.282
			c7.548-0.352,17.06,0.9,25.519,4.284C504.869,318.922,496.13,314.816,488.096,314.896z M569.904,314.896
			c-8.035-0.08-16.775,4.023-23.692,9.549c8.46-3.383,17.972-4.636,25.519-4.284c-11.683,0.464-22.483,5.914-30.495,14.282
			c-0.991,1.037-1.779,2.291-0.777,3.526c0.929,1.146,3.034,0.416,4.527,0.175c-1.616,3.271-4.15,9.602-4.992,15.698
			c7.567-10.508,16.328-18.571,26.563-22.088c7.681-2.637,16.624-2.714,23.562,0.958
			C586.208,319.811,578.457,314.982,569.904,314.896z M493.039,345.811c-3.827,0.037-7.035,0.605-9.457,1.66
			c-4.782,2.08-7.717,10.064-12.006,10.483c-3.854,0.377-6.068-4.964-7.699-7.806c1.02,3.223,2.73,6.534,4.896,8.866
			c-2.213,1.407-4.577,2.828-6.193,4.902c2.869-1.96,5.739-3.895,8.45-3.583c-3.196,1.755-7.715,4.196-9.901,8.166
			c3.803-3.739,8.399-7.14,13.938-6.84c1.6,0.087,2.077,0.219,4.013,1.139c4.888,2.802,10.235,2.87,15.645,2.812V362.3
			c-3.845-0.01-7.683-0.48-11.448-1.234c-1.584-0.402-4.312-1.696-4.86-2.306c-0.374-0.414-0.369-0.48,0.111-1.619
			c1.246-2.946,3.269-5.301,5.805-6.888c3.101-1.939,6.789-2.296,10.359-2.194c0.012,0,0.021,0,0.033,0v-2.222
			c-0.019-0.001-0.053-0.006-0.067-0.007c-0.285-0.008-0.562-0.02-0.841-0.021C493.549,345.809,493.294,345.809,493.039,345.811
			L493.039,345.811z M564.188,345.811c-0.275,0.003-0.556,0.015-0.84,0.021c-0.017,0.001-0.051,0.006-0.066,0.007v2.222
			c0.011,0,0.021,0,0.033,0c3.569-0.102,7.259,0.255,10.358,2.194c2.535,1.587,4.56,3.938,5.805,6.888
			c0.481,1.138,0.485,1.205,0.111,1.618c-0.551,0.608-3.276,1.902-4.86,2.307c-3.768,0.754-7.604,1.227-11.447,1.234v3.312
			c5.406,0.059,10.755-0.013,15.643-2.812c1.937-0.92,2.415-1.052,4.016-1.139c5.534-0.3,10.132,3.101,13.936,6.84
			c-2.188-3.97-6.706-6.411-9.901-8.166c2.711-0.312,5.58,1.623,8.451,3.583c-1.617-2.074-3.981-3.495-6.194-4.902
			c2.164-2.332,3.875-5.646,4.896-8.866c-1.631,2.842-3.848,8.183-7.7,7.806c-4.288-0.419-7.223-8.403-12.006-10.483
			c-2.42-1.055-5.629-1.623-9.456-1.659C564.705,345.809,564.45,345.809,564.188,345.811L564.188,345.811z M497.185,346.145v2.158
			c5.781,0.916,12.398,4.205,13.924,7.271c-4.506-3.132-9.72-5.665-15.283-5.582c-3.612,0.054-8.127,0.978-11.651,2.93
			c-1.777,0.986-4.292,3.197-4.332,3.882c-0.161,2.691,11.893,4.165,16.221,3.979c5.069-0.216,10.181-0.454,14.691-2.666
			c-2.569,3.48-8.644,3.991-13.566,4.139v3.298c7.727-0.438,17.22-3.936,17.186-8.464
			C514.317,350.152,502.653,347.066,497.185,346.145L497.185,346.145z M560.814,346.145c-5.472,0.925-17.135,4.009-17.188,10.942
			c-0.033,4.528,9.459,8.026,17.188,8.464v-3.298c-4.926-0.146-10.998-0.655-13.567-4.14c4.512,2.213,9.621,2.45,14.692,2.666
			c4.33,0.188,16.38-1.286,16.22-3.979c-0.041-0.685-2.557-2.896-4.333-3.882c-3.523-1.952-8.038-2.876-11.65-2.931
			c-5.563-0.082-10.779,2.45-15.283,5.582c1.523-3.063,8.143-6.354,13.922-7.271V346.145L560.814,346.145z M520.39,349.732
			c-0.021,13.477-2.123,22.877-10.665,33.219c-1.896,2.294-4.142,4.783-4.241,7.916c-0.076,2.354,1.023,4.481,2.442,6.524
			c-0.828-2.007-1.379-3.968-1.146-6.15c0.204-1.917,1.551-3.257,5.479-7.124c3.778-3.722,4.489-4.606,5.173-3.867
			c0.305,0.327,0.258,2.214-0.167,5.639c-0.608,4.933-0.397,8.312,0.653,10.396c1.08,2.139,3.923,3.885,7.79,4.791
			c0.834,0.194,2.035,0.25,3.291,0.25c1.257,0,2.457-0.056,3.292-0.25c3.867-0.906,6.71-2.652,7.791-4.791
			c1.051-2.082,1.262-5.463,0.652-10.396c-0.426-3.425-0.472-5.312-0.167-5.639c0.684-0.739,1.395,0.146,5.173,3.867
			c3.927,3.867,5.271,5.207,5.478,7.124c0.234,2.185-0.314,4.146-1.145,6.15c1.419-2.043,2.52-4.173,2.442-6.524
			c-0.102-3.133-2.348-5.622-4.242-7.916c-8.544-10.342-10.643-19.742-10.664-33.219c-1.479,7.077-1.271,17.657-1,26.772
			c0.172,5.756,0.629,9.527,1.234,13.014c0.576,3.305,0.492,5.817-0.667,6.764c-2.194,1.791-5.262,2.436-8.18,2.438
			c-2.917,0.002-5.981-0.641-8.179-2.438c-1.157-0.946-1.243-3.459-0.667-6.764c0.606-3.484,1.062-7.258,1.234-13.014
			C521.661,367.391,521.869,356.811,520.39,349.732z M513.203,397.032c-0.317,0.011-0.615,0.057-0.882,0.139
			c-0.503,0.156-0.547,0.94,0.083,1.771c0.718,0.853,1.481,1.26,3.139,1.666c1.62,0.398,2.512,0.414,2.617-0.104
			C518.559,398.55,515.424,396.957,513.203,397.032z M544.796,397.032c-2.22-0.075-5.354,1.518-4.957,3.472
			c0.105,0.519,0.998,0.504,2.617,0.104c1.655-0.406,2.42-0.813,3.139-1.666c0.63-0.83,0.585-1.614,0.084-1.771
			C545.411,397.089,545.113,397.043,544.796,397.032z M511.467,420.516c-0.36,0.329-0.915,0.638-0.632,1.083
			c0.31,0.485,3.354,1.232,7.652,1.438c6.984,0.335,14.036,0.462,21.022,0c4.297-0.285,7.344-0.952,7.652-1.438
			c0.284-0.445-0.271-0.754-0.633-1.083H511.467z M520.265,433.833c2.678,3.141,4.207,4.778,4.193,7.173
			c-0.025,4.49-1.971,5.023-1.771,12.172c0.159,5.74,1.091,9.48,1.625,13.123c1.271,8.669,2.756,8.806,4.687,8.806
			c1.932,0,3.416-0.137,4.688-8.806c0.531-3.643,1.464-7.383,1.625-13.123c0.198-7.146-1.745-7.682-1.771-12.172
			c-0.014-2.395,1.519-4.032,4.195-7.173H520.265z"/>
	</g>
</g>
</svg>
