<?xml version="1.0" encoding="UTF-8" standalone="no"?>
<svg
   xmlns:dc="http://purl.org/dc/elements/1.1/"
   xmlns:cc="http://web.resource.org/cc/"
   xmlns:rdf="http://www.w3.org/1999/02/22-rdf-syntax-ns#"
   xmlns:svg="http://www.w3.org/2000/svg"
   xmlns="http://www.w3.org/2000/svg"
   xmlns:sodipodi="http://sodipodi.sourceforge.net/DTD/sodipodi-0.dtd"
   xmlns:inkscape="http://www.inkscape.org/namespaces/inkscape"
   id="svg2"
   sodipodi:version="0.32"
   inkscape:version="0.45.1"
   width="461.61987"
   height="246.9834"
   sodipodi:docname="b8.svg"
   inkscape:output_extension="org.inkscape.output.svg.inkscape"
   sodipodi:docbase="/usr/lib/lps-4.0.3/Server/lps-4.0.3/my-apps/svgview_devel/tests/svg_examples"
   version="1.0">
  <metadata
     id="metadata3253">
    <rdf:RDF>
      <cc:Work
         rdf:about="">
        <dc:format>image/svg+xml</dc:format>
        <dc:type
           rdf:resource="http://purl.org/dc/dcmitype/StillImage" />
      </cc:Work>
    </rdf:RDF>
  </metadata>
  <defs
     id="defs3251" />
  <sodipodi:namedview
     inkscape:window-height="629"
     inkscape:window-width="802"
     inkscape:pageshadow="2"
     inkscape:pageopacity="0.0"
     guidetolerance="10.0"
     gridtolerance="10.0"
     objecttolerance="10.0"
     borderopacity="1.0"
     bordercolor="#666666"
     pagecolor="#ffffff"
     id="base"
     inkscape:zoom="0.37439582"
     inkscape:cx="372.04724"
     inkscape:cy="526.18109"
     inkscape:window-x="0"
     inkscape:window-y="0"
     inkscape:current-layer="svg2" />
  <g
     id="g4">
    <g
       style="fill:#7f7f7f"
       id="g6">
      <path fill=""
         d="M 157.442,799.2 C 157.442,799.2 179.024,796.462 182.319,794.815 C 185.311,793.319 190.934,786.096 195.843,784.869 C 200.753,783.642 206.536,781.727 214.978,784.541 C 219.467,786.037 229.452,794.701 229.452,794.701 C 229.452,794.701 413.719,788.607 419.856,787.38 C 425.992,786.153 447.791,773.452 456.785,771.734 C 464.946,770.175 534.591,769.571 539.431,771.772 C 549.593,776.394 555.737,783.784 555.737,783.784 C 555.737,783.784 640.015,783.877 644.172,785.204 C 647.707,786.332 656.706,790.72 655.077,794.01 C 653.803,796.582 579.59,798.494 579.59,798.494 C 579.59,798.494 607.384,818.635 604.929,823.545 C 602.475,828.454 520.679,831.274 515.769,830.047 C 510.86,828.819 430.652,798.238 423.288,798.238 C 415.925,798.238 227.917,798.704 227.917,798.704 C 227.917,798.704 206.687,815.572 190.447,817.623 C 180.777,818.846 166.749,820.67 165.522,815.76 C 164.295,810.851 176.856,803.793 176.833,801.729 C 176.822,799.777 157.442,799.2 157.442,799.2 z "
         id="path8" />
    </g>
</g>
</svg>