<?xml version="1.0" encoding="utf-8"?>
<!-- Generator: Adobe Illustrator 16.1.0, SVG Export Plug-In . SVG Version: 6.00 Build 0)  -->
<!DOCTYPE svg PUBLIC "-//W3C//DTD SVG 1.1//EN" "http://www.w3.org/Graphics/SVG/1.1/DTD/svg11.dtd">
<svg version="1.1" xmlns="http://www.w3.org/2000/svg" xmlns:xlink="http://www.w3.org/1999/xlink" x="0px" y="0px" width="1250px"
	 height="1469px" viewBox="0 0 1250 1469" enable-background="new 0 0 1250 1469" xml:space="preserve">
<symbol  id="New_Symbol" viewBox="-568 -457.06 1136 914.12">
	<path fill="#FFFFFF" d="M-41,111.061h-74.723c-1.738,0-2.277-1.409-2.277-3.148V80.209c0-1.739,0.539-3.148,2.277-3.148H-41l-5,17
		L-41,111.061z"/>
	<polygon fill="#CACFD2" points="-40,111.061 -41,111.061 -46,94.061 -41,77.061 -40,77.061 -45,94.061 	"/>
	<path fill="#FFFFFF" d="M-6.737,111.061h-13.837h-1H-39h-1l-5-17l5-17h1h17.426h1h13.837C-9.455,82.124-11,87.911-11,94.061
		S-9.455,105.997-6.737,111.061z"/>
	<g>
		<path fill="#3E464B" d="M-25,102.061c-4.418,0-8-3.582-8-8s3.582-8,8-8s8,3.582,8,8S-20.582,102.061-25,102.061z M-25,87.838
			c-3.436,0-6.223,2.786-6.223,6.223c0,3.436,2.787,6.222,6.223,6.222c3.437,0,6.222-2.786,6.222-6.222
			C-18.778,90.624-21.563,87.838-25,87.838z"/>
		<polygon fill="#3E464B" points="-24,98.061 -26,98.061 -26,92.061 -22,92.061 -22,94.061 -24,94.061 		"/>
	</g>
	<path fill="#FFFFFF" d="M132.723,111.061H93l5-17l-5-17h39.723c1.738,0,2.277,1.409,2.277,3.148v27.703
		C135,109.651,134.461,111.061,132.723,111.061z"/>
	<polygon fill="#CACFD2" points="93,111.061 92,111.061 97,94.061 92,77.061 93,77.061 98,94.061 	"/>
	<path fill="#FFFFFF" d="M92,111.061h-1H73.574h-1H58.736c2.719-5.063,4.264-10.851,4.264-17s-1.545-11.937-4.264-17h13.838h1H91h1
		l5,17L92,111.061z"/>
	<path fill="#3E464B" d="M82.039,91.11c-2.516,0.624-3.321,1.418-3.321,1.418v1.358c0.757,0.793,0.888,2.098,0.89,2.895
		c0.09,0.269,0.14,0.555,0.14,0.854c0,1.504-1.229,2.723-2.747,2.723s-2.747-1.219-2.747-2.723c0-0.299,0.05-0.585,0.14-0.854
		c0.002-0.797,0.133-2.102,0.891-2.895v-1.358c0,0-0.807-0.794-3.322-1.418s-2.516-4.004-2.516-4.004H77h7.555
		C84.555,87.106,84.555,90.486,82.039,91.11z"/>
	<text transform="matrix(1 0 0 -1 105.9668 88.0605)" fill="#3E464B" font-family="'HelveticaNeue-Bold'" font-size="16">20</text>
	<text transform="matrix(1 0 0 -1 -104.8555 88.0605)"><tspan x="0" y="0" fill="#3E464B" font-family="'HelveticaNeue-Bold'" font-size="16">1</tspan><tspan x="8.256" y="0" fill="#3E464B" font-family="'HelveticaNeue-Bold'" font-size="16">5 min</tspan></text>
	<path fill="#ABCFE9" d="M132.723,203.061H91v-34h41.723c1.738,0,2.277,1.409,2.277,3.148v27.703
		C135,201.651,134.461,203.061,132.723,203.061z"/>
	<text transform="matrix(1 0 0 -1 105.9668 180.0605)" fill="#3E464B" font-family="'HelveticaNeue-Bold'" font-size="16">20</text>
	<path fill="#FF6600" d="M446,395.061c0-19.882-16.118-36-36-36s-36,16.118-36,36s16.118,36,36,36S446,414.942,446,395.061z"/>
	<text transform="matrix(1 0 0 -1 401.6602 384.0605)" fill="#FFFFFF" font-family="'HelveticaNeue-Bold'" font-size="30">2</text>
	<path fill="#FF6600" d="M63,346.061c0-19.882-16.118-36-36-36s-36,16.118-36,36s16.118,36,36,36S63,365.942,63,346.061z"/>
	<path fill="#333333" d="M-395,234.061c0-1.657-1.343-3-3-3h-56c-1.657,0-3,1.343-3,3v15c0,1.657,1.343,3,3,3h56
		c1.657,0,3-1.343,3-3V234.061z"/>
	<path fill="#999999" d="M-330,331.061c-2.761,0-5-2.238-5-5v-44c0-2.762,2.239-5,5-5h48v54H-330z"/>
	<line fill="#FFFFFF" x1="-551" y1="423.061" x2="-551" y2="423.061"/>
	<line fill="#FFFFFF" x1="-551" y1="441.061" x2="-551" y2="441.061"/>
	<path fill="#FFFFFF" d="M-552,423.063v-0.003C-552,423.061-551,423.063-552,423.063z"/>
	<path fill="#FFFFFF" d="M-538,432.061c-4.688,4.688-6,8.923-13,8.993c-6.436-0.07-8.311-4.305-13-8.993
		c5.154-5.154,6.571-8.93,13-8.994C-544,423.131-543.154,426.906-538,432.061z M-551,427.061c-2.762,0-5,2.238-5,5s2.238,5,5,5
		s5-2.238,5-5S-548.238,427.061-551,427.061z"/>
	<path fill="#FFFFFF" d="M-552,441.061v-0.003C-551,441.058-552,441.061-552,441.061z"/>
	<path fill="#FFFFFF" d="M-551,435.061c-1.653,0-3-1.347-3-3s1.347-3,3-3s3,1.347,3,3S-549.347,435.061-551,435.061z"/>
	<path fill="#FFFFFF" d="M-537.094,378.287l2.911,5.825l-2.766,2.766l-5.825-2.912c-0.703,0.369-1.441,0.68-2.213,0.921
		l-2.058,6.174h-3.912l-2.058-6.174c-0.77-0.241-1.508-0.552-2.213-0.921l-5.825,2.913l-2.767-2.767l2.913-5.824
		c-0.369-0.705-0.679-1.443-0.92-2.214l-6.174-2.058v-3.913l6.174-2.057c0.241-0.771,0.552-1.51,0.92-2.214l-2.913-5.825
		l2.767-2.766l5.824,2.912c0.705-0.368,1.443-0.68,2.213-0.92l2.058-6.174h3.912l2.058,6.174c0.771,0.24,1.51,0.552,2.213,0.92
		l5.825-2.912l2.767,2.766l-2.912,5.826c0.368,0.703,0.68,1.442,0.92,2.213l6.174,2.057v3.913l-6.174,2.058
		C-536.414,376.845-536.726,377.583-537.094,378.287z M-549,366.473c-3.086,0-5.588,2.502-5.588,5.588s2.501,5.588,5.588,5.588
		c3.086,0,5.588-2.502,5.588-5.588S-545.914,366.473-549,366.473z"/>
	<g>
		<g>
			<path fill="#FFFFFF" d="M-512,352.061h3v40h-3V352.061z M-484,387.928c0,0-5.543-2.248-12.544,1.33
				c-6.999,3.577-11.456,2.71-11.456,2.71V372.07c0,0,4.195-0.195,11-2.649c6.805-2.455,13-0.838,13-0.838l-6,9.108L-484,387.928z"
				/>
		</g>
	</g>
	<path fill="#FFFFFF" d="M-436.326,362.892c-7.326,1.831-9.674,4.169-9.674,4.169v3.988c2.204,2.33,2.588,6.166,2.594,8.504
		c0.26,0.789,0.406,1.631,0.406,2.508c0,4.418-3.582,8-8,8s-8-3.582-8-8c0-0.877,0.146-1.719,0.406-2.508
		c0.006-2.338,0.39-6.174,2.594-8.504v-3.988c0,0-2.348-2.338-9.674-4.169s-7.326-9.831-7.326-9.831h22h22
		C-429,353.061-429,361.061-436.326,362.892z"/>
	<g>
		<g>
			<path fill="#FFFFFF" d="M-397,386.943v2.117l2,4h-8l2-4v-2.117c-3.471-0.385-6.639-1.757-9.228-3.827l-2.944,2.944l-2.828-2.829
				l2.943-2.944c-2.462-3.079-3.943-6.978-3.943-11.227c0-9.941,8.059-18,18-18s18,8.059,18,18
				C-381,378.324-388.001,385.947-397,386.943z M-399,355.061c-7.732,0-14,6.268-14,14s6.268,14,14,14s14-6.268,14-14
				S-391.268,355.061-399,355.061z M-402,369.061c0-1.657,1.343-3,3-3c1.482,0,2.706,1.077,2.949,2.491l6.051,9.509l-9.509-6.051
				C-400.923,371.767-402,370.543-402,369.061z"/>
		</g>
	</g>
	<g>
		<g>
			<path fill="#FFFFFF" d="M-347.987,377.061H-350v-4h2.013c1.344,0,1.987,0.559,1.987,1.608v1.112
				C-346,376.831-346.707,377.061-347.987,377.061z M-336,392.061h-24c-1.104,0-2-0.896-2-2v-38l14,5l14-5v38
				C-334,391.165-334.896,392.061-336,392.061z M-345.552,366.061l-3.087,4H-350v-4h-3v14h5.181c3.401,0,4.819-1.361,4.819-3.985
				v-1.722c0-1.742-0.709-2.918-2.116-3.506l3.302-4.787H-345.552z"/>
		</g>
	</g>
	<g>
		<g>
			<polygon fill="#FFFFFF" points="-265,377.061 -279,377.061 -279,391.061 -287,391.061 -287,377.061 -301,377.061 -301,369.061 
				-287,369.061 -287,355.061 -279,355.061 -279,369.061 -265,369.061 			"/>
		</g>
	</g>
	<g>
		<g>
			<path fill="#FFFFFF" d="M-245,387.061v-6h36v6H-245z M-245,369.061h36v6h-36V369.061z M-245,357.061h36v6h-36V357.061z"/>
		</g>
	</g>
	<path fill="#FFFFFF" d="M-156,388.061h-7v-1.055c1-0.632,1.5-1.492,1.5-2.445c0-1.934-1.316-3.5-3.25-3.5s-3.875,1.566-3.875,3.5
		c0,0.953,0.625,1.813,0.625,2.445v1.055h-10v-1.055c1-0.632,1.5-1.492,1.5-2.445c0-1.934-1.316-3.5-3.25-3.5
		s-3.875,1.566-3.875,3.5c0,0.953,0.625,1.813,0.625,2.445v1.055h-5c-1.104,0-3,0.104-3-1v-6v-26c0-1.104,1.896-3,3-3h1h20v3h-21v23
		h30v-14h3v17v6C-155,388.165-154.896,388.061-156,388.061z"/>
	<polygon fill="#FFFFFF" points="-181,376.061 -186,376.061 -186,371.061 -181,371.061 	"/>
	<polygon fill="#FFFFFF" points="-174,376.061 -179,376.061 -179,371.061 -174,371.061 	"/>
	<polygon fill="#FFFFFF" points="-172,371.061 -167,371.061 -167,376.061 -172,376.061 	"/>
	<polygon fill="#FFFFFF" points="-160,376.061 -165,376.061 -165,371.061 -160,371.061 	"/>
	<polygon fill="#FFFFFF" points="-181,369.061 -186,369.061 -186,364.061 -181,364.061 	"/>
	<polygon fill="#FFFFFF" points="-186,357.061 -181,357.061 -181,362.061 -186,362.061 	"/>
	<polygon fill="#FFFFFF" points="-174,369.061 -179,369.061 -179,364.061 -174,364.061 	"/>
	<polygon fill="#FFFFFF" points="-179,357.061 -174,357.061 -174,362.061 -179,362.061 	"/>
	<polygon fill="#FFFFFF" points="-172,357.061 -167,357.061 -167,362.061 -172,362.061 	"/>
	<polygon fill="#FFFFFF" points="-172,364.061 -167,364.061 -167,369.061 -172,369.061 	"/>
	<polygon fill="#FFFFFF" points="-165,364.061 -160,364.061 -160,369.061 -165,369.061 	"/>
	<polygon fill="#FFFFFF" points="-164,353.061 -154,361.061 -164,361.061 	"/>
	<path fill="#FFFFFF" d="M-179,391.061c0,0.553-0.448,1-1,1h-1c-0.552,0-1-0.447-1-1v-8c0-0.553,0.448-1,1-1h1c0.552,0,1,0.447,1,1
		V391.061z"/>
	<path fill="#FFFFFF" d="M-164,391.061c0,0.553-0.448,1-1,1h-1c-0.552,0-1-0.447-1-1v-8c0-0.553,0.448-1,1-1h1c0.552,0,1,0.447,1,1
		V391.061z"/>
	<path fill="#FFFFFF" d="M-106,388.061h-7v-1.055c1-0.632,1.5-1.492,1.5-2.445c0-1.934-1.316-3.5-3.25-3.5s-3.875,1.566-3.875,3.5
		c0,0.953,0.625,1.813,0.625,2.445v1.055h-10v-1.055c1-0.632,1.5-1.492,1.5-2.445c0-1.934-1.316-3.5-3.25-3.5
		s-3.875,1.566-3.875,3.5c0,0.953,0.625,1.813,0.625,2.445v1.055h-5c-1.104,0-3,0.104-3-1v-32c0-1.104,1.896-3,3-3h32
		c1.104,0,1,1.896,1,3v32C-105,388.165-104.896,388.061-106,388.061z M-108,365.061v-10h-30v23h30V365.061z"/>
	<polygon fill="#FFFFFF" points="-131,376.061 -136,376.061 -136,371.061 -131,371.061 	"/>
	<polygon fill="#FFFFFF" points="-124,376.061 -129,376.061 -129,371.061 -124,371.061 	"/>
	<polygon fill="#FFFFFF" points="-117,376.061 -122,376.061 -122,371.061 -117,371.061 	"/>
	<polygon fill="#FFFFFF" points="-110,376.061 -115,376.061 -115,371.061 -110,371.061 	"/>
	<polygon fill="#FFFFFF" points="-131,369.061 -136,369.061 -136,364.061 -131,364.061 	"/>
	<polygon fill="#FFFFFF" points="-131,362.061 -136,362.061 -136,357.061 -131,357.061 	"/>
	<polygon fill="#FFFFFF" points="-124,369.061 -129,369.061 -129,364.061 -124,364.061 	"/>
	<polygon fill="#FFFFFF" points="-124,362.061 -129,362.061 -129,357.061 -124,357.061 	"/>
	<polygon fill="#FFFFFF" points="-117,362.061 -122,362.061 -122,357.061 -117,357.061 	"/>
	<polygon fill="#FFFFFF" points="-117,369.061 -122,369.061 -122,364.061 -117,364.061 	"/>
	<polygon fill="#FFFFFF" points="-110,369.061 -115,369.061 -115,364.061 -110,364.061 	"/>
	<path fill="#FFFFFF" d="M-129,391.061c0,0.553-0.448,1-1,1h-1c-0.552,0-1-0.447-1-1v-8c0-0.553,0.448-1,1-1h1c0.552,0,1,0.447,1,1
		V391.061z"/>
	<path fill="#FFFFFF" d="M-114,391.061c0,0.553-0.448,1-1,1h-1c-0.552,0-1-0.447-1-1v-8c0-0.553,0.448-1,1-1h1c0.552,0,1,0.447,1,1
		V391.061z"/>
	<polygon fill="#FFFFFF" points="-110,362.061 -115,362.061 -115,357.061 -110,357.061 	"/>
	<path fill="#4D4D4D" d="M552,347.061c0-2.762-2.238-5-5-5h-43c-2.762,0-5,2.238-5,5v44c0,2.762,2.238,5,5,5h43c2.762,0,5-2.238,5-5
		V347.061z"/>
	<path fill="#808080" d="M552,283.061c0-2.762-2.238-5-5-5h-43c-2.762,0-5,2.238-5,5v44c0,2.762,2.238,5,5,5h43c2.762,0,5-2.238,5-5
		V283.061z"/>
	<path fill="#FFFFFF" d="M-299.996,299.375c-3.996,0.99-5.276,2.253-5.276,2.253v2.156c1.202,1.26,1.411,3.333,1.415,4.597
		c0.142,0.427,0.221,0.882,0.221,1.355c0,2.389-1.953,4.324-4.363,4.324s-4.363-1.936-4.363-4.324c0-0.474,0.08-0.929,0.222-1.355
		c0.003-1.264,0.212-3.337,1.415-4.597v-2.156c0,0-1.281-1.263-5.277-2.253s-3.996-5.314-3.996-5.314h12h12
		C-296,294.061-296,298.385-299.996,299.375z"/>
	<polygon fill="#FFFFFF" points="521,363.561 521,369.061 521,374.561 530,369.061 	"/>
	<g>
		<path fill="#FFFFFF" d="M-507.122,439.858l0.289,0.513l2.128,2.258l-2.612,1.483l-0.82-2.999l-0.318-0.564
			c-1.05,0.432-2.195,0.674-3.4,0.674c-0.586,0-1.156-0.06-1.711-0.168l-0.942,2.282l-2.025-0.846l0.878-2.125
			c-3.069-1.442-5.199-4.565-5.199-8.198c0-5,4.03-9.056,9-9.056s9,4.056,9,9.056C-502.856,435.419-504.564,438.262-507.122,439.858
			z M-511.856,425.376c-3.722,0-6.75,3.047-6.75,6.792c0,3.746,3.028,6.791,6.75,6.791c3.723,0,6.751-3.045,6.751-6.791
			C-505.105,428.423-508.134,425.376-511.856,425.376z"/>
		<path fill="#FFFFFF" d="M-513,430.061c1.985-1.144,3.86,6.798,3.86,6.798S-514.989,431.201-513,430.061z"/>
	</g>
	<g>
		<path fill="#FFFFFF" d="M-489.471,430.242c1.858-1.324,4.614,6.87,4.614,6.87S-491.332,431.563-489.471,430.242z"/>
		<path fill="#FFFFFF" d="M-487.987,430.306c0.952,1.308-4.869,2.807-4.869,2.807S-488.856,429.112-487.987,430.306z"/>
		<path fill="#FFFFFF" d="M-495.062,438.621c-1.719-1.639-2.795-3.946-2.795-6.509c0-4.971,4.029-9,9-9s9,4.029,9,9s-4.029,9-9,9
			c-2.06,0-3.951-0.699-5.468-1.863 M-488.856,425.112c-3.866,0-7,3.134-7,7s3.134,7,7,7s7-3.134,7-7
			S-484.99,425.112-488.856,425.112z"/>
	</g>
	<g>
		<path fill="#FFFFFF" d="M-464,441.112c-4.971,0-9-4.029-9-9s4.029-9,9-9s9,4.029,9,9S-459.029,441.112-464,441.112z M-464,425.112
			c-3.866,0-7,3.134-7,7s3.134,7,7,7s7-3.134,7-7S-460.134,425.112-464,425.112z"/>
		<polygon fill="#FFFFFF" points="-463,437.061 -465,437.061 -465,430.112 -460,430.112 -460,432.061 -463,432.061 		"/>
	</g>
	<path fill="#FFFFFF" d="M-145,444.061c-6.627,0-12-5.373-12-12s5.373-12,12-12s12,5.373,12,12S-138.373,444.061-145,444.061z
		 M-145,422.727c-5.154,0-9.334,4.18-9.334,9.334s4.18,9.334,9.334,9.334s9.334-4.18,9.334-9.334S-139.846,422.727-145,422.727z"/>
	<polygon fill="#FFFFFF" points="-144,439.061 -146,439.061 -146,430.061 -140,430.061 -140,432.061 -144,432.061 	"/>
	<path fill="#FFFFFF" d="M-112,444.061c-6.627,0-12-5.373-12-12s5.373-12,12-12s12,5.373,12,12S-105.373,444.061-112,444.061z
		 M-112,422.061c-5.523,0-10,4.477-10,10s4.477,10,10,10s10-4.477,10-10S-106.477,422.061-112,422.061z"/>
	<polygon fill="#FFFFFF" points="-112,431.061 -117,430.061 -110,429.061 -111,440.061 	"/>
	<g>
		<path fill="#FFFFFF" d="M-179,444.061c-6.627,0-12-5.373-12-12s5.373-12,12-12s12,5.373,12,12S-172.373,444.061-179,444.061z
			 M-179,422.061c-5.523,0-10,4.477-10,10s4.477,10,10,10s10-4.477,10-10S-173.477,422.061-179,422.061z"/>
		<polygon fill="#FFFFFF" points="-179,431.061 -184,430.061 -177,429.061 -178,440.061 		"/>
	</g>
	<path fill="#FFFFFF" d="M-435,441.061c-4.971,0-9-4.029-9-9s4.029-9,9-9s9,4.029,9,9S-430.029,441.061-435,441.061z M-435,425.061
		c-3.865,0-7,3.135-7,7s3.135,7,7,7s7-3.135,7-7S-431.135,425.061-435,425.061z"/>
	<path fill="#FFFFFF" d="M-435,430.061h-2v6c0,0.553,0.448,1,1,1s1-0.447,1-1V430.061z"/>
	<polygon fill="#FFFFFF" points="-435,432.061 -436,431.061 -433,428.061 -432,429.061 	"/>
	<path fill="#FFFFFF" d="M-396.996,427.375c-3.996,0.99-5.276,2.253-5.276,2.253v2.156c1.202,1.26,1.411,3.333,1.415,4.597
		c0.142,0.427,0.221,0.882,0.221,1.355c0,2.389-1.953,4.324-4.363,4.324s-4.363-1.936-4.363-4.324c0-0.474,0.08-0.929,0.222-1.355
		c0.003-1.264,0.212-3.337,1.415-4.597v-2.156c0,0-1.281-1.263-5.277-2.253s-3.996-5.314-3.996-5.314h12h12
		C-393,422.061-393,426.385-396.996,427.375z"/>
	<path fill="#4D4D4D" d="M415.336,371.271c-2.664,0.656-3.516,1.5-3.516,1.5v1.438c0.797,0.843,0.938,2.221,0.939,3.062
		c0.095,0.286,0.15,0.593,0.15,0.906c0,1.594-1.305,2.883-2.91,2.883s-2.91-1.289-2.91-2.883c0-0.313,0.057-0.62,0.151-0.906
		c0.001-0.842,0.142-2.22,0.938-3.062v-1.438c0,0-0.852-0.844-3.516-1.5c-2.664-0.66-2.664-3.547-2.664-3.547h8h8
		C418,367.725,418,370.611,415.336,371.271z"/>
	<path fill="#666666" d="M-233,331.061h-49v-54h49c2.762,0,4,2.238,4,5v44C-229,328.822-230.238,331.061-233,331.061z"/>
	<text transform="matrix(1 0 0 -1 -261.6719 295.4922)" fill="#FFFFFF" font-family="'HelveticaNeue-Bold'" font-size="24">2</text>
	<path fill="#999999" d="M-204,331.061c-2.761,0-5-2.238-5-5v-44c0-2.762,2.239-5,5-5h48v54H-204z"/>
	<path fill="#FFFFFF" d="M-173.996,299.375c-3.996,0.99-5.276,2.253-5.276,2.253v2.156c1.202,1.26,1.411,3.333,1.415,4.597
		c0.142,0.427,0.221,0.882,0.221,1.355c0,2.389-1.953,4.324-4.363,4.324s-4.363-1.936-4.363-4.324c0-0.474,0.08-0.929,0.222-1.355
		c0.003-1.264,0.212-3.337,1.415-4.597v-2.156c0,0-1.281-1.263-5.277-2.253s-3.996-5.314-3.996-5.314h12h12
		C-170,294.061-170,298.385-173.996,299.375z"/>
	<path fill="#666666" d="M-107,331.061h-49v-54h49c2.762,0,4,2.238,4,5v44C-103,328.822-104.238,331.061-107,331.061z"/>
	<text transform="matrix(1 0 0 -1 -135.6719 295.4922)" fill="#FFFFFF" font-family="'HelveticaNeue-Bold'" font-size="24">2</text>
	<path fill="#999999" d="M-344.926,191.061c-2.25,0-4.074-1.824-4.074-4.074v-35.852c0-2.25,1.824-4.074,4.074-4.074H-306v44
		H-344.926z"/>
	<path fill="#FFFFFF" d="M-320.479,165.243c-3.256,0.807-4.299,1.835-4.299,1.835v1.757c0.979,1.027,1.149,2.716,1.153,3.746
		c0.115,0.348,0.18,0.719,0.18,1.104c0,1.946-1.591,3.523-3.555,3.523s-3.555-1.577-3.555-3.523c0-0.386,0.065-0.757,0.181-1.104
		c0.002-1.03,0.172-2.719,1.153-3.746v-1.757c0,0-1.044-1.028-4.3-1.835c-3.256-0.808-3.256-5.183-3.256-5.183H-327h9.778
		C-317.222,160.061-317.222,164.436-320.479,165.243z"/>
	<path fill="#666666" d="M-265.889,191.061H-306v-44h40.111c2.25,0,2.889,1.824,2.889,4.074v35.852
		C-263,189.236-263.639,191.061-265.889,191.061z"/>
	<text transform="matrix(1 0 0 -1 -289.375 162.0791)" fill="#FFFFFF" font-family="'HelveticaNeue-Bold'" font-size="20">2</text>
	<path fill="#2D3236" d="M475.074,231.061c-2.25,0-4.074-1.824-4.074-4.074v-35.852c0-2.25,1.824-4.074,4.074-4.074H514v44H475.074z
		"/>
	<path fill="#FFFFFF" d="M499.521,205.243c-3.256,0.807-4.299,1.835-4.299,1.835v1.757c0.979,1.027,1.149,2.716,1.152,3.746
		c0.115,0.348,0.18,0.719,0.18,1.104c0,1.946-1.591,3.523-3.555,3.523s-3.555-1.577-3.555-3.523c0-0.386,0.064-0.757,0.18-1.104
		c0.003-1.03,0.173-2.719,1.153-3.746v-1.757c0,0-1.044-1.028-4.3-1.835c-3.256-0.808-3.256-5.183-3.256-5.183H493h9.777
		C502.777,200.061,502.777,204.436,499.521,205.243z"/>
	<path fill="#505A60" d="M565.111,231.061H514v-44h51.111c2.25,0,2.889,1.824,2.889,4.074v35.852
		C568,229.236,567.361,231.061,565.111,231.061z"/>
	<text transform="matrix(1 0 0 -1 530.8804 202.0791)" fill="#FFFFFF" font-family="'HelveticaNeue-Bold'" font-size="20">20</text>
	<path fill="#2D3236" d="M474.148,171.061c-1.738,0-3.148-1.409-3.148-3.148v-27.703c0-1.739,1.41-3.148,3.148-3.148H504v34H474.148
		z"/>
	<path fill="#FFFFFF" d="M493.039,151.11c-2.516,0.624-3.321,1.418-3.321,1.418v1.358c0.757,0.793,0.888,2.098,0.89,2.895
		c0.09,0.269,0.14,0.555,0.14,0.854c0,1.504-1.229,2.723-2.747,2.723s-2.747-1.219-2.747-2.723c0-0.299,0.05-0.585,0.14-0.854
		c0.002-0.797,0.133-2.102,0.891-2.895v-1.358c0,0-0.807-0.794-3.322-1.418s-2.516-4.004-2.516-4.004H488h7.555
		C495.555,147.106,495.555,150.486,493.039,151.11z"/>
	<path fill="#505A60" d="M543.723,171.061H504v-34h39.723c1.738,0,2.277,1.409,2.277,3.148v27.703
		C546,169.651,545.461,171.061,543.723,171.061z"/>
	<text transform="matrix(1 0 0 -1 516.9668 148.0605)" fill="#FFFFFF" font-family="'HelveticaNeue-Bold'" font-size="16">20</text>
	<path fill="#999999" d="M-464,190.061c-2.761,0-5-2.238-5-5v-44c0-2.762,2.239-5,5-5h48v54H-464z"/>
	<path fill="#666666" d="M-367,190.061h-49v-54h49c2.762,0,4,2.238,4,5v44C-363,187.822-364.238,190.061-367,190.061z"/>
	<text transform="matrix(1 0 0 -1 -402.3438 154.4922)" fill="#FFFFFF" font-family="'HelveticaNeue-Bold'" font-size="24">20</text>
	<path fill="#999999" d="M-456,331.061c-2.761,0-5-2.238-5-5v-44c0-2.762,2.239-5,5-5h48v54H-456z"/>
	<path fill="#FFFFFF" d="M-425.996,299.375c-3.996,0.99-5.276,2.253-5.276,2.253v2.156c1.202,1.26,1.411,3.333,1.415,4.597
		c0.142,0.427,0.221,0.882,0.221,1.355c0,2.389-1.953,4.324-4.363,4.324s-4.363-1.936-4.363-4.324c0-0.474,0.08-0.929,0.222-1.355
		c0.003-1.264,0.212-3.337,1.415-4.597v-2.156c0,0-1.281-1.263-5.277-2.253s-3.996-5.314-3.996-5.314h12h12
		C-422,294.061-422,298.385-425.996,299.375z"/>
	<path fill="#666666" d="M-359,331.061h-49v-54h49c2.762,0,4,2.238,4,5v44C-355,328.822-356.238,331.061-359,331.061z"/>
	<text transform="matrix(1 0 0 -1 -387.6719 295.4922)" fill="#FFFFFF" font-family="'HelveticaNeue-Bold'" font-size="24">2</text>
	<polygon fill="none" points="-395,231.061 -457,231.061 -457,247.061 -395,247.061 	"/>
	<text transform="matrix(1 0 0 -1 -448.0288 237.0645)" fill="#FFFFFF" font-family="'HelveticaNeue-Bold'" font-size="14">20 min</text>
	<path opacity="0.8" fill="#333333" d="M58,302.061c0-1.656-1.343-3-3-3H-1c-1.657,0-3,1.344-3,3v15c0,1.656,1.343,3,3,3h56
		c1.657,0,3-1.344,3-3V302.061z"/>
	<polygon fill="none" points="58,303.061 -4,303.061 -4,315.061 58,315.061 	"/>
	<text transform="matrix(1 0 0 -1 4.9712 305.0645)" fill="#FFFFFF" font-family="'HelveticaNeue-Bold'" font-size="14">20 min</text>
	<path fill="#FF6600" d="M308,384.061c0-19.882-16.118-36-36-36s-36,16.118-36,36s16.118,36,36,36S308,403.942,308,384.061z"/>
	<text transform="matrix(1 0 0 -1 263.6602 373.0605)" fill="#FFFFFF" font-family="'HelveticaNeue-Bold'" font-size="30">2</text>
	<path fill="#333333" d="M303,336.061c0-1.656-1.343-3-3-3h-56c-1.657,0-3,1.344-3,3v15c0,1.656,1.343,3,3,3h56c1.657,0,3-1.344,3-3
		V336.061z"/>
	<polygon fill="none" points="303,337.061 241,337.061 241,349.061 303,349.061 	"/>
	<text transform="matrix(1 0 0 -1 249.9712 339.0645)" fill="#FFFFFF" font-family="'HelveticaNeue-Bold'" font-size="14">20 min</text>
	<path fill="#333333" d="M441,297.061c0-1.656-1.343-3-3-3h-56c-1.657,0-3,1.344-3,3v15c0,1.656,1.343,3,3,3h56c1.657,0,3-1.344,3-3
		V297.061z"/>
	<polygon fill="none" points="441,298.061 379,298.061 379,310.061 441,310.061 	"/>
	<text transform="matrix(1 0 0 -1 387.9712 300.0645)" fill="#FFFFFF" font-family="'HelveticaNeue-Bold'" font-size="14">20 min</text>
	<g>
		<path fill="#333333" d="M-306,234.061c0-1.657-1.343-3-3-3h-56c-1.657,0-3,1.343-3,3v15c0,1.657,1.343,3,3,3h56
			c1.657,0,3-1.343,3-3V234.061z"/>
		<polygon fill="none" points="-306,231.061 -368,231.061 -368,247.061 -306,247.061 		"/>
		<text transform="matrix(1 0 0 -1 -359.0288 237.0645)" fill="#FFFFFF" font-family="'HelveticaNeue-Bold'" font-size="14">20 min</text>
	</g>
	<path fill="#FFFFFF" d="M-354,435.242c-1.451,0-2.632-1.166-2.632-2.6c0-1.436,1.181-2.604,2.632-2.604
		c1.451,0,2.632,1.168,2.632,2.604C-351.368,434.076-352.549,435.242-354,435.242z M-354,440.061c-6.976,0-14-7.5-14-7.5
		s7.024-7.5,14-7.5s14,7.5,14,7.5S-347.024,440.061-354,440.061z M-354,427.332c-2.965,0-5.369,2.376-5.369,5.311
		c0,2.932,2.404,5.307,5.369,5.307s5.367-2.375,5.367-5.307C-348.633,429.708-351.035,427.332-354,427.332z"/>
	<path fill="#CC3300" d="M58,346.061c0,17.094-13.906,31-31,31c-17.093,0-31-13.906-31-31c0-8.547,3.477-16.297,9.09-21.91
		L27,346.061H58z"/>
	<text transform="matrix(1 0 0 -1 18.6602 336.0605)" fill="#FFFFFF" font-family="'HelveticaNeue-Bold'" font-size="30">5</text>
	<path fill="#FFFFFF" d="M153,346.061c0-19.882-16.118-36-36-36s-36,16.118-36,36s16.118,36,36,36S153,365.942,153,346.061z"/>
	<path fill="#295A88" d="M148,297.061c0-1.656-1.343-3-3-3H89c-1.657,0-3,1.344-3,3v15c0,1.656,1.343,3,3,3h56c1.657,0,3-1.344,3-3
		V297.061z"/>
	<polygon fill="none" points="148,298.061 86,298.061 86,310.061 148,310.061 	"/>
	<text transform="matrix(1 0 0 -1 94.9712 300.0645)" fill="#FFFFFF" font-family="'HelveticaNeue-Bold'" font-size="14">20 min</text>
	<path fill="#C9E1F2" d="M148,346.061c0,17.094-13.906,31-31,31s-31-13.906-31-31c0-8.547,3.477-16.297,9.09-21.91l21.91,21.91H148z
		"/>
	<text transform="matrix(1 0 0 -1 108.6602 336.0605)" fill="#3E464B" font-family="'HelveticaNeue-Bold'" font-size="30">5</text>
	<path fill="#FFFFFF" d="M323,196.061c0-19.882-16.118-36-36-36s-36,16.118-36,36s16.118,36,36,36S323,215.942,323,196.061z"/>
	<path fill="#2D3236" d="M318,147.061c0-1.657-1.343-3-3-3h-56c-1.657,0-3,1.343-3,3v15c0,1.657,1.343,3,3,3h56c1.657,0,3-1.343,3-3
		V147.061z"/>
	<polygon fill="none" points="318,148.061 256,148.061 256,160.061 318,160.061 	"/>
	<text transform="matrix(1 0 0 -1 264.9712 150.0645)" fill="#FFFFFF" font-family="'HelveticaNeue-Bold'" font-size="14">20 min</text>
	<path fill="#CCCCCC" d="M318,196.061c0,17.093-13.906,31-31,31s-31-13.907-31-31c0-8.547,3.477-16.297,9.09-21.91l21.91,21.91H318z
		"/>
	<text transform="matrix(1 0 0 -1 278.6602 186.0605)" fill="#3E464B" font-family="'HelveticaNeue-Bold'" font-size="30">5</text>
	<path fill="#FFFFFF" d="M327,84.061c0-19.882-16.118-36-36-36s-36,16.118-36,36s16.118,36,36,36S327,103.942,327,84.061z"/>
	<polygon fill="none" points="322,26.061 260,26.061 260,38.061 322,38.061 	"/>
	<text transform="matrix(1 0 0 -1 270.5449 28.7788)" fill="#FFFFFF" font-family="'HelveticaNeue-Bold'" font-size="13">20 min</text>
	<path fill="#35EFC3" d="M322,84.061c0,17.094-13.906,31-31,31s-31-13.906-31-31c0-8.547,3.477-16.297,9.09-21.91L291,84.061H322z"
		/>
	<text transform="matrix(1 0 0 -1 274.3198 74.0605)" fill="#3E464B" font-family="'HelveticaNeue-Bold'" font-size="30">35</text>
	<path fill="#FFFFFF" d="M-441,175.061c-6.627,0-12-5.373-12-12s5.373-12,12-12s12,5.373,12,12S-434.373,175.061-441,175.061z
		 M-441,153.727c-5.154,0-9.334,4.18-9.334,9.334s4.18,9.334,9.334,9.334s9.334-4.18,9.334-9.334S-435.846,153.727-441,153.727z"/>
	<polygon fill="#FFFFFF" points="-440,170.061 -442,170.061 -442,161.061 -436,161.061 -436,163.061 -440,163.061 	"/>
	<path fill="#999999" d="M-465.604,92.061c-1.876,0-3.396-1.521-3.396-3.396V58.777c0-1.876,1.521-3.717,3.396-3.717H-433v37
		H-465.604z"/>
	<path fill="#666666" d="M-399.717,92.061H-433v-37h33.283c1.875,0,2.717,1.841,2.717,3.717v29.887
		C-397,90.54-397.841,92.061-399.717,92.061z"/>
	<text transform="matrix(1 0 0 -1 -423.7241 67.9014)" fill="#FFFFFF" font-family="'HelveticaNeue-Bold'" font-size="16.3019">20</text>
	<g>
		<path fill="#FFFFFF" d="M-449.981,81.872c-4.501,0-8.151-3.649-8.151-8.151c0-4.501,3.649-8.15,8.151-8.15
			c4.501,0,8.151,3.649,8.151,8.15C-441.83,78.223-445.48,81.872-449.981,81.872z M-449.981,67.381c-3.501,0-6.34,2.839-6.34,6.34
			s2.839,6.34,6.34,6.34s6.34-2.839,6.34-6.34S-446.48,67.381-449.981,67.381z"/>
		<polygon fill="#FFFFFF" points="-449.302,78.476 -450.66,78.476 -450.66,72.362 -446.585,72.362 -446.585,73.721 -449.302,73.721 
					"/>
	</g>
	<g>
		<path fill="#FFFFFF" d="M253,278.061c0-9.389-7.611-17-17-17s-17,7.611-17,17s7.611,17,17,17S253,287.449,253,278.061z"/>
		<text transform="matrix(1 0 0 -1 230.9961 271.0605)" fill="#3E464B" font-family="'HelveticaNeue-Bold'" font-size="18">2</text>
	</g>
	<path fill="#FFFFFF" d="M54.148,203.061c-0.869,0-1.656-0.353-2.227-0.922c-0.569-0.57-0.922-1.357-0.922-2.227v-13.852v-13.852
		c0-0.869,0.353-1.656,0.922-2.227c0.57-0.569,1.357-0.922,2.227-0.922h19.426H93l5,17l-5,17H73.574H54.148z"/>
	<path fill="#3E464B" d="M82.039,183.11c-2.516,0.624-3.321,1.418-3.321,1.418v1.358c0.757,0.793,0.888,2.098,0.89,2.895
		c0.09,0.269,0.14,0.555,0.14,0.854c0,1.504-1.229,2.723-2.747,2.723s-2.747-1.219-2.747-2.723c0-0.299,0.05-0.585,0.14-0.854
		c0.002-0.797,0.133-2.102,0.891-2.895v-1.358c0,0-0.807-0.794-3.322-1.418s-2.516-4.004-2.516-4.004H77h7.555
		C84.555,179.106,84.555,182.486,82.039,183.11z"/>
	<path fill="#ABCFE9" d="M-113.723,203.061H-37v-34h-76.723c-1.738,0-2.277,1.409-2.277,3.148v27.703
		C-116,201.651-115.461,203.061-113.723,203.061z"/>
	<text transform="matrix(1 0 0 -1 -102.8555 180.0605)"><tspan x="0" y="0" fill="#3E464B" font-family="'HelveticaNeue-Bold'" font-size="16">1</tspan><tspan x="8.256" y="0" fill="#3E464B" font-family="'HelveticaNeue-Bold'" font-size="16">5 min</tspan></text>
	<path fill="#FFFFFF" d="M-0.148,203.061c0.869,0,1.656-0.353,2.227-0.922C2.647,201.568,3,200.781,3,199.912v-13.852v-13.852
		c0-0.869-0.353-1.656-0.922-2.227c-0.57-0.569-1.357-0.922-2.227-0.922h-19.426H-39l-5,17l5,17h19.426H-0.148z"/>
	<g>
		<path fill="#3E464B" d="M-23,194.061c-4.418,0-8-3.582-8-8s3.582-8,8-8s8,3.582,8,8S-18.582,194.061-23,194.061z M-23,179.838
			c-3.436,0-6.223,2.786-6.223,6.223c0,3.436,2.787,6.222,6.223,6.222c3.437,0,6.222-2.786,6.222-6.222
			C-16.778,182.624-19.563,179.838-23,179.838z"/>
		<polygon fill="#3E464B" points="-22,190.061 -24,190.061 -24,184.061 -20,184.061 -20,186.061 -22,186.061 		"/>
	</g>
	<g>
		<path fill="#FFFFFF" d="M63,186.061c0-19.882-16.118-36-36-36s-36,16.118-36,36s16.118,36,36,36S63,205.942,63,186.061z"/>
		<path fill="#ABCFE9" d="M58,186.061c0,17.094-13.906,31-31,31s-31-13.906-31-31c0-8.547,3.477-16.297,9.09-21.91L27,186.061H58z"
			/>
		<text transform="matrix(1 0 0 -1 10.3198 176.0605)" fill="#3E464B" font-family="'HelveticaNeue-Bold'" font-size="30">35</text>
	</g>
	<path fill="#FFFFFF" d="M62,94.061c0-19.882-16.118-36-36-36s-36,16.118-36,36s16.118,36,36,36S62,113.942,62,94.061z"/>
	<path fill="#DFE2E4" d="M26,63.061c-17.093,0-31,13.906-31,31s13.907,31,31,31c17.094,0,31-13.906,31-31S43.094,63.061,26,63.061z"
		/>
	<path fill="#35EFC3" d="M57,94.061c0,17.094-13.906,31-31,31s-31-13.906-31-31c0-8.547,3.477-16.297,9.09-21.91L26,94.061H57z"/>
	<text transform="matrix(1 0 0 -1 9.3198 84.0605)" fill="#3E464B" font-family="'HelveticaNeue-Bold'" font-size="30">35</text>
	<path fill="#2D3236" d="M22,426.061c0-1.656-1.343-3-3-3h-56c-1.657,0-3,1.344-3,3v15c0,1.656,1.343,3,3,3h56c1.657,0,3-1.344,3-3
		V426.061z"/>
	<polygon fill="none" points="22,427.061 -40,427.061 -40,439.061 22,439.061 	"/>
	<text transform="matrix(1 0 0 -1 -31.0288 429.0645)" fill="#FFFFFF" font-family="'HelveticaNeue-Bold'" font-size="14">20 min</text>
	<g>
		<path fill="#FFFFFF" d="M-354,422.061c-9,0-14-8-14-8s5-8,14-8s14,8,14,8S-345,422.061-354,422.061z M-354,409.061
			c-2.761,0-5,2.238-5,5s2.239,5,5,5s5-2.238,5-5S-351.239,409.061-354,409.061z"/>
		<path fill="#FFFFFF" d="M-354,417.061c-1.657,0-3-1.344-3-3s1.343-3,3-3s3,1.344,3,3S-352.343,417.061-354,417.061z"/>
	</g>
	<path fill="#FFFFFF" d="M-354,457.061c-9,0-12-7-12-7s3-7,12-7s12,7,12,7S-345,457.061-354,457.061z M-354,445.061
		c-2.761,0-5,2.238-5,5s2.239,5,5,5s5-2.238,5-5S-351.239,445.061-354,445.061z"/>
	<path fill="#FFFFFF" d="M-354,453.061c-1.656,0-3-1.344-3-3s1.344-3,3-3s3,1.344,3,3S-352.344,453.061-354,453.061z"/>
	<path fill="#FF931E" d="M-78,442.061c-6.627,0-12-5.373-12-12s5.373-12,12-12s12,5.373,12,12S-71.373,442.061-78,442.061z
		 M-78,420.061c-5.514,0-10,4.486-10,10s4.486,10,10,10s10-4.486,10-10S-72.486,420.061-78,420.061z"/>
	<polygon fill="#FF931E" points="-77,430.061 -77,437.061 -79,437.061 -79,428.061 -73,428.061 -73,430.061 	"/>
	<path fill-rule="evenodd" clip-rule="evenodd" fill="#FFFFFF" d="M63-146.939c0-1.657-1.343-3-3-3H-6c-1.657,0-3,1.343-3,3v66
		c0,1.657,1.343,3,3,3h66c1.657,0,3-1.343,3-3V-146.939z"/>
	<text transform="matrix(1 0 0 -1 18.0723 -123.9395)" fill="#3E464B" font-family="'Klavika-Regular'" font-size="36">5</text>
	<path fill-rule="evenodd" clip-rule="evenodd" fill="#FFFFFF" d="M63-256.939c0-1.657-1.343-3-3-3H-6c-1.657,0-3,1.343-3,3v66
		c0,1.657,1.343,3,3,3h66c1.657,0,3-1.343,3-3V-256.939z"/>
	<path fill-rule="evenodd" clip-rule="evenodd" fill="#FFFFFF" d="M223-146.939c0-1.657-1.343-3-3-3h-66c-1.656,0-3,1.343-3,3v66
		c0,1.657,1.344,3,3,3h66c1.657,0,3-1.343,3-3V-146.939z"/>
	<text transform="matrix(1 0 0 -1 178.0723 -116.9395)" fill="#3E464B" font-family="'Klavika-Regular'" font-size="36">5</text>
	<path fill="#B3B3B3" d="M151-128.939v-18c0-1.657,1.344-3,3-3h66c1.657,0,3,1.343,3,3v18H151z"/>
	<polygon fill="none" points="223,-145.939 151,-145.939 151,-133.939 223,-133.939 	"/>
	<text transform="matrix(1 0 0 -1 176.6191 -143.9355)" fill="#3E464B" font-family="'HelveticaNeue-Bold'" font-size="14">3/4</text>
	<path opacity="0.7" d="M214-53.939h-54c-1.657,0-3-1.343-3-3v-15c0-1.657,1.343-3,3-3h20l7-7l7,7h20c1.657,0,3,1.343,3,3v15
		C217-55.282,215.657-53.939,214-53.939z"/>
	<polygon fill="none" points="223,-70.939 151,-70.939 151,-58.939 223,-58.939 	"/>
	<text transform="matrix(1 0 0 -1 164.9712 -68.9355)" fill="#FFFFFF" font-family="'HelveticaNeue-Bold'" font-size="14">12 min</text>
	<path fill-rule="evenodd" clip-rule="evenodd" fill="#FFFFFF" d="M143-146.939c0-1.657-1.343-3-3-3H74c-1.656,0-3,1.343-3,3v66
		c0,1.657,1.344,3,3,3h66c1.657,0,3-1.343,3-3V-146.939z"/>
	<text transform="matrix(1 0 0 -1 98.0723 -116.9395)" fill="#3E464B" font-family="'Klavika-Regular'" font-size="36">5</text>
	<path fill="#B3B3B3" d="M71-128.939v-18c0-1.657,1.344-3,3-3h66c1.657,0,3,1.343,3,3v18H71z"/>
	<polygon fill="none" points="143,-145.939 71,-145.939 71,-133.939 143,-133.939 	"/>
	<text transform="matrix(1 0 0 -1 103.1079 -143.9355)" fill="#3E464B" font-family="'HelveticaNeue-Bold'" font-size="14">4</text>
	<path opacity="0.7" d="M134-53.939H80c-1.657,0-3-1.343-3-3v-15c0-1.657,1.343-3,3-3h20l7-7l7,7h20c1.657,0,3,1.343,3,3v15
		C137-55.282,135.657-53.939,134-53.939z"/>
	<polygon fill="none" points="143,-70.939 71,-70.939 71,-58.939 143,-58.939 	"/>
	<text transform="matrix(1 0 0 -1 84.9712 -68.9355)" fill="#FFFFFF" font-family="'HelveticaNeue-Bold'" font-size="14">12 min</text>
	<path fill-rule="evenodd" clip-rule="evenodd" fill="#FFFFFF" d="M303-146.939c0-1.657-1.343-3-3-3h-66c-1.656,0-3,1.343-3,3v66
		c0,1.657,1.344,3,3,3h66c1.657,0,3-1.343,3-3V-146.939z"/>
	<text transform="matrix(1 0 0 -1 258.0723 -116.9395)" fill="#3E464B" font-family="'Klavika-Regular'" font-size="36">5</text>
	<path fill="#B3B3B3" d="M231-128.939v-18c0-1.657,1.344-3,3-3h66c1.657,0,3,1.343,3,3v18H231z"/>
	<polygon fill="none" points="303,-145.939 231,-145.939 231,-133.939 303,-133.939 	"/>
	<text transform="matrix(1 0 0 -1 258.8311 -143.9355)" fill="#3E464B" font-family="'HelveticaNeue-Bold'" font-size="14">5b</text>
	<path opacity="0.7" d="M294-53.939h-54c-1.657,0-3-1.343-3-3v-15c0-1.657,1.343-3,3-3h20l7-7l7,7h20c1.657,0,3,1.343,3,3v15
		C297-55.282,295.657-53.939,294-53.939z"/>
	<polygon fill="none" points="303,-70.939 231,-70.939 231,-58.939 303,-58.939 	"/>
	<text transform="matrix(1 0 0 -1 244.9712 -68.9355)" fill="#FFFFFF" font-family="'HelveticaNeue-Bold'" font-size="14">12 min</text>
	<path fill-rule="evenodd" clip-rule="evenodd" fill="#FFFFFF" d="M63-452.939c0-1.657-1.343-3-3-3H-6c-1.657,0-3,1.343-3,3v66
		c0,1.657,1.343,3,3,3h66c1.657,0,3-1.343,3-3V-452.939z"/>
	<text transform="matrix(1 0 0 -1 18.252 -429.9395)" fill="#3E464B" font-family="'Klavika-Regular'" font-size="36">2</text>
	<path fill-rule="evenodd" clip-rule="evenodd" fill="#FFFFFF" d="M223-452.939c0-1.657-1.343-3-3-3h-66c-1.656,0-3,1.343-3,3v66
		c0,1.657,1.344,3,3,3h66c1.657,0,3-1.343,3-3V-452.939z"/>
	<text transform="matrix(1 0 0 -1 177.334 -420.9395)" fill="#3E464B" font-family="'Klavika-Regular'" font-size="36">4</text>
	<path fill="#DFE2E4" d="M151-430.939v-22c0-1.657,1.344-3,3-3h66c1.657,0,3,1.343,3,3v22H151z"/>
	<polygon fill="none" points="223,-453.939 151,-453.939 151,-437.939 223,-437.939 	"/>
	<text transform="matrix(1 0 0 -1 175.1362 -449.3633)" fill="#3E464B" font-family="'HelveticaNeue-Bold'" font-size="16">3/4</text>
	<path fill-rule="evenodd" clip-rule="evenodd" fill="#FFFFFF" d="M143-452.939c0-1.657-1.343-3-3-3H74c-1.656,0-3,1.343-3,3v66
		c0,1.657,1.344,3,3,3h66c1.657,0,3-1.343,3-3V-452.939z"/>
	<text transform="matrix(1 0 0 -1 98.2339 -420.9395)" fill="#3E464B" font-family="'Klavika-Regular'" font-size="36">3</text>
	<path fill="#DFE2E4" d="M71-430.939v-22c0-1.657,1.344-3,3-3h66c1.657,0,3,1.343,3,3v22H71z"/>
	<polygon fill="none" points="143,-453.939 71,-453.939 71,-437.939 143,-437.939 	"/>
	<text transform="matrix(1 0 0 -1 102.5518 -449.3633)" fill="#3E464B" font-family="'HelveticaNeue-Bold'" font-size="16">4</text>
	<path opacity="0.7" fill="#FF1D25" d="M135-355.939H79c-1.657,0-3-1.343-3-3v-19c0-1.657,1.343-3,3-3h21l7-6l7,6h21
		c1.657,0,3,1.343,3,3v19C138-357.282,136.657-355.939,135-355.939z"/>
	<polygon fill="none" points="138,-374.939 76,-374.939 76,-362.939 138,-362.939 	"/>
	<text transform="matrix(1 0 0 -1 84.9712 -372.9355)" fill="#FFFFFF" font-family="'HelveticaNeue-Bold'" font-size="14">12 min</text>
	<path fill-rule="evenodd" clip-rule="evenodd" fill="#4F99D3" d="M303-452.939c0-1.657-1.343-3-3-3h-66c-1.656,0-3,1.343-3,3v66
		c0,1.657,1.344,3,3,3h66c1.657,0,3-1.343,3-3V-452.939z"/>
	<text transform="matrix(1 0 0 -1 258.0723 -420.9395)" fill="#FFFFFF" font-family="'Klavika-Regular'" font-size="36">5</text>
	<path fill="#3887C7" d="M231-430.939v-22c0-1.657,1.344-3,3-3h66c1.657,0,3,1.343,3,3v22H231z"/>
	<polygon fill="none" points="303,-453.939 231,-453.939 231,-437.939 303,-437.939 	"/>
	<text transform="matrix(1 0 0 -1 257.6641 -449.3633)" fill="#FFFFFF" font-family="'HelveticaNeue-Bold'" font-size="16">5b</text>
	<path fill-rule="evenodd" clip-rule="evenodd" fill="#FF9900" d="M383-452.939c0-1.657-1.343-3-3-3h-66c-1.656,0-3,1.343-3,3v66
		c0,1.657,1.344,3,3,3h66c1.657,0,3-1.343,3-3V-452.939z"/>
	<text transform="matrix(1 0 0 -1 337.7842 -420.9395)" fill="#FFFFFF" font-family="'Klavika-Regular'" font-size="36">6</text>
	<path fill="#D58230" d="M311-430.939v-22c0-1.657,1.344-3,3-3h66c1.657,0,3,1.343,3,3v22H311z"/>
	<polygon fill="none" points="383,-453.939 311,-453.939 311,-437.939 383,-437.939 	"/>
	<text transform="matrix(1 0 0 -1 338.104 -449.3633)" fill="#FFFFFF" font-family="'HelveticaNeue-Bold'" font-size="16">20</text>
	<path fill-rule="evenodd" clip-rule="evenodd" fill="#75828A" d="M463-452.939c0-1.657-1.343-3-3-3h-66c-1.656,0-3,1.343-3,3v66
		c0,1.657,1.344,3,3,3h66c1.657,0,3-1.343,3-3V-452.939z"/>
	<text transform="matrix(1 0 0 -1 419.0801 -420.9395)" fill="#FFFFFF" font-family="'Klavika-Regular'" font-size="36">7</text>
	<path fill="#626E75" d="M391-430.939v-22c0-1.657,1.344-3,3-3h66c1.657,0,3,1.343,3,3v22H391z"/>
	<polygon fill="none" points="463,-453.939 391,-453.939 391,-437.939 463,-437.939 	"/>
	<text transform="matrix(1 0 0 -1 422.5518 -449.3633)" fill="#FFFFFF" font-family="'HelveticaNeue-Bold'" font-size="16">2</text>
	<path fill-rule="evenodd" clip-rule="evenodd" fill="#FFFFFF" d="M153-256.939c0-1.657-1.343-3-3-3H84c-1.656,0-3,1.343-3,3v66
		c0,1.657,1.344,3,3,3h66c1.657,0,3-1.343,3-3V-256.939z"/>
	<text transform="matrix(1 0 0 -1 108.0723 -226.9395)" fill="#3E464B" font-family="'Klavika-Regular'" font-size="36">5</text>
	<path fill="#B3B3B3" d="M81-238.939v-18c0-1.657,1.344-3,3-3h66c1.657,0,3,1.343,3,3v18H81z"/>
	<polygon fill="none" points="153,-255.939 81,-255.939 81,-243.939 153,-243.939 	"/>
	<text transform="matrix(1 0 0 -1 100.144 -253.9355)" fill="#3E464B" font-family="'HelveticaNeue-Bold'" font-size="14">4 top</text>
	<path opacity="0.7" d="M144-163.939H90c-1.657,0-3-1.343-3-3v-15c0-1.657,1.343-3,3-3h20l7-7l7,7h20c1.657,0,3,1.343,3,3v15
		C147-165.282,145.657-163.939,144-163.939z"/>
	<polygon fill="none" points="153,-180.939 81,-180.939 81,-168.939 153,-168.939 	"/>
	<text transform="matrix(1 0 0 -1 94.9712 -178.9355)" fill="#FFFFFF" font-family="'HelveticaNeue-Bold'" font-size="14">12 min</text>
	<path fill-rule="evenodd" clip-rule="evenodd" fill="#666666" d="M27-270.939"/>
	<polygon fill="#CCCCCC" points="58,-231.939 58,-192.939 -4,-192.939 -4,-254.939 9,-254.939 27,-223.939 	"/>
	<text transform="matrix(1 0 0 -1 18.0723 -233.9395)" fill="#3E464B" font-family="'Klavika-Regular'" font-size="36">5</text>
	<path fill-rule="evenodd" clip-rule="evenodd" fill="#666666" d="M27-400.939"/>
	<path opacity="0.5" d="M215-355.939h-56c-1.657,0-3-1.343-3-3v-19c0-1.657,1.343-3,3-3h21l7-6l7,6h21c1.657,0,3,1.343,3,3v19
		C218-357.282,216.657-355.939,215-355.939z"/>
	<polygon fill="none" points="218,-374.939 156,-374.939 156,-362.939 218,-362.939 	"/>
	<text transform="matrix(1 0 0 -1 164.9712 -372.9355)" fill="#FFFFFF" font-family="'HelveticaNeue-Bold'" font-size="14">12 min</text>
	<path opacity="0.5" d="M295-355.939h-56c-1.657,0-3-1.343-3-3v-19c0-1.657,1.343-3,3-3h21l7-6l7,6h21c1.657,0,3,1.343,3,3v19
		C298-357.282,296.657-355.939,295-355.939z"/>
	<polygon fill="none" points="298,-374.939 236,-374.939 236,-362.939 298,-362.939 	"/>
	<text transform="matrix(1 0 0 -1 244.9712 -372.9355)" fill="#FFFFFF" font-family="'HelveticaNeue-Bold'" font-size="14">12 min</text>
	<path opacity="0.5" d="M375-355.939h-56c-1.657,0-3-1.343-3-3v-19c0-1.657,1.343-3,3-3h21l7-6l7,6h21c1.657,0,3,1.343,3,3v19
		C378-357.282,376.657-355.939,375-355.939z"/>
	<polygon fill="none" points="378,-374.939 316,-374.939 316,-362.939 378,-362.939 	"/>
	<text transform="matrix(1 0 0 -1 324.9712 -372.9355)" fill="#FFFFFF" font-family="'HelveticaNeue-Bold'" font-size="14">12 min</text>
	<path opacity="0.5" d="M455-355.939h-56c-1.657,0-3-1.343-3-3v-19c0-1.657,1.343-3,3-3h21l7-6l7,6h21c1.657,0,3,1.343,3,3v19
		C458-357.282,456.657-355.939,455-355.939z"/>
	<polygon fill="none" points="458,-374.939 396,-374.939 396,-362.939 458,-362.939 	"/>
	<text transform="matrix(1 0 0 -1 404.9712 -372.9355)" fill="#FFFFFF" font-family="'HelveticaNeue-Bold'" font-size="14">12 min</text>
</symbol>
<symbol  id="New_Symbol_1" viewBox="-625 -734 1250 1468">
	<polygon fill="#3E464B" points="625,734 -625,734 -625,-734 625,-734 	"/>
	<polygon display="none" fill="none" points="-625,734 625,734 625,-734 -625,-734 	"/>
</symbol>
<g id="Layer_3">
	
		<use xlink:href="#New_Symbol_1"  width="1250" height="1468" x="-625" y="-734" transform="matrix(1 0 0 -1 625 754)" overflow="visible"/>
</g>
<g id="Layer_1">
</g>
<g id="Layer_2">
</g>
<g id="Layer_5">
</g>
<g id="Layer_6">
	
		<use xlink:href="#New_Symbol"  width="1136" height="914.12" x="-568" y="-457.06" transform="matrix(1 0 0 -1 597 466.9404)" overflow="visible"/>
</g>
</svg>
