<?xml version="1.0" encoding="utf-8"?>
<!-- Generator: Adobe Illustrator 16.2.0, SVG Export Plug-In . SVG Version: 6.00 Build 0)  -->
<!DOCTYPE svg PUBLIC "-//W3C//DTD SVG 1.1//EN" "http://www.w3.org/Graphics/SVG/1.1/DTD/svg11.dtd">
<svg version="1.1" id="Layer_1" xmlns="http://www.w3.org/2000/svg" xmlns:xlink="http://www.w3.org/1999/xlink" x="0px" y="0px"
	 width="1073.5px" height="819.5px" viewBox="0 0 1073.5 819.5" enable-background="new 0 0 1073.5 819.5" xml:space="preserve">
<symbol  id="New_Symbol" viewBox="-501.789 -364.688 1003.578 729.375">
	<g>
		<g>
			<g>
				<path fill="none" stroke="#626E75" stroke-width="2" stroke-linecap="round" stroke-linejoin="round" d="M8.993-327.5
					c0-0.334-0.004-0.668-0.013-1"/>
				
					<path fill="none" stroke="#626E75" stroke-width="2" stroke-linecap="round" stroke-linejoin="round" stroke-dasharray="2.0945,4.1891" d="
					M8.633-332.677c-1.105-7.896-4.71-15.009-10.075-20.373c-5.776-5.776-14.16-9.672-22.259-10.481"/>
				<path fill="none" stroke="#626E75" stroke-width="2" stroke-linecap="round" stroke-linejoin="round" d="M-25.79-363.671
					c-0.334-0.011-0.667-0.017-0.999-0.017v1"/>
				
					<line fill="none" stroke="#626E75" stroke-width="2" stroke-linecap="round" stroke-linejoin="round" stroke-dasharray="2.0221,4.0441" x1="-26.789" y1="-358.644" x2="-26.789" y2="-330.335"/>
				
					<line fill="none" stroke="#626E75" stroke-width="2" stroke-linecap="round" stroke-linejoin="round" x1="-26.789" y1="-328.312" x2="-26.789" y2="-327.312"/>
			</g>
		</g>
		<g>
			<g>
				<path fill="none" stroke="#626E75" stroke-width="2" stroke-linecap="round" stroke-linejoin="round" d="M10.211-327.5
					c0-0.334,0.004-0.668,0.013-1"/>
				
					<path fill="none" stroke="#626E75" stroke-width="2" stroke-linecap="round" stroke-linejoin="round" stroke-dasharray="2.0945,4.1891" d="
					M10.571-332.677c1.105-7.896,4.711-15.009,10.075-20.373c5.776-5.776,14.159-9.672,22.259-10.481"/>
				<path fill="none" stroke="#626E75" stroke-width="2" stroke-linecap="round" stroke-linejoin="round" d="M44.995-363.671
					c0.333-0.011,0.666-0.017,0.998-0.017v1"/>
				
					<line fill="none" stroke="#626E75" stroke-width="2" stroke-linecap="round" stroke-linejoin="round" stroke-dasharray="2.0221,4.0441" x1="45.993" y1="-358.644" x2="45.993" y2="-330.335"/>
				
					<line fill="none" stroke="#626E75" stroke-width="2" stroke-linecap="round" stroke-linejoin="round" x1="45.993" y1="-328.312" x2="45.993" y2="-327.312"/>
			</g>
		</g>
	</g>
	<g>
		<g>
			<path fill="none" stroke="#626E75" stroke-width="2" stroke-linecap="round" stroke-linejoin="round" d="M464.5,313.18
				c0.334,0,0.668-0.005,1-0.015"/>
			
				<path fill="none" stroke="#626E75" stroke-width="2" stroke-linecap="round" stroke-linejoin="round" stroke-dasharray="1.8959,3.7918" d="
				M469.28,312.85c8.066-1.121,15.364-5.004,20.819-10.461c5.826-5.824,9.779-14.587,10.552-22.812"/>
			<path fill="none" stroke="#626E75" stroke-width="2" stroke-linecap="round" stroke-linejoin="round" d="M500.772,277.686
				c0.011-0.334,0.017-0.668,0.017-0.998h-1"/>
			
				<line fill="none" stroke="#626E75" stroke-width="2" stroke-linecap="round" stroke-linejoin="round" stroke-dasharray="2.0339,4.0679" x1="495.721" y1="276.688" x2="467.246" y2="276.688"/>
			
				<line fill="none" stroke="#626E75" stroke-width="2" stroke-linecap="round" stroke-linejoin="round" x1="465.211" y1="276.688" x2="464.211" y2="276.688"/>
		</g>
	</g>
	
		<polyline fill="none" stroke="#626E75" stroke-width="6" stroke-linecap="round" stroke-linejoin="round" stroke-miterlimit="10" points="
		-482.789,314.688 -482.789,361.688 -482.789,361.688 464.211,361.688 464.211,361.688 464.211,314.688 	"/>
	
		<polyline fill="none" stroke="#626E75" stroke-width="6" stroke-linecap="round" stroke-linejoin="round" stroke-miterlimit="10" points="
		-28.789,-270.312 -482.789,-270.312 -482.789,-270.312 -482.789,258.688 	"/>
	<path fill="none" stroke="#FFFFFF" stroke-width="5" stroke-linejoin="round" stroke-miterlimit="10" d="M464.211-230.812"/>
	<path fill="none" stroke="#FFFFFF" stroke-width="5" stroke-linecap="round" stroke-linejoin="round" stroke-miterlimit="10" d="
		M44.211-290.812"/>
	
		<polyline fill="none" stroke="#626E75" stroke-width="6" stroke-linecap="round" stroke-linejoin="round" stroke-miterlimit="10" points="
		464.211,274.688 464.211,-216.824 464.211,-219.312 124.726,-219.312 122.211,-219.312 122.211,-325.312 122.211,-325.312 
		46.211,-325.312 46.211,-265.312 	"/>
	
		<line fill="none" stroke="#626E75" stroke-width="6" stroke-linejoin="round" stroke-miterlimit="10" x1="-501.789" y1="259.688" x2="-461.789" y2="259.688"/>
	
		<line fill="none" stroke="#626E75" stroke-width="6" stroke-linejoin="round" stroke-miterlimit="10" x1="-501.789" y1="314.688" x2="-461.789" y2="314.688"/>
	
		<polyline fill="none" stroke="#626E75" stroke-width="6" stroke-linecap="round" stroke-linejoin="round" stroke-miterlimit="10" points="
		-27.789,-324.312 -27.789,-127.812 -27.789,-127.812 19.711,-107.812 	"/>
	<polygon fill="#1B1E20" points="-477.289,294.188 -479.789,296.688 -488.789,287.688 -479.789,278.688 -477.289,281.188 
		-483.789,287.688 	"/>
	
		<polyline fill="none" stroke="#626E75" stroke-width="6" stroke-linecap="round" stroke-linejoin="round" stroke-miterlimit="10" points="
		45.211,361.688 45.211,-28.824 162.711,-28.812 	"/>
	
		<path fill="none" stroke="#626E75" stroke-width="2" stroke-linecap="round" stroke-linejoin="round" stroke-miterlimit="10" stroke-dasharray="2,4" d="
		M-287.789,359.688v-316c0-27.613,23.386-51,51-51h85c11.046,0,19,9.954,19,21v20v236h-50v-227h-44c-5.514,0-11,5.486-11,11v266h105
		v40H-287.789z"/>
	<path fill="#FFFFFF" d="M12.211,291.688c0-17.672-14.326-32-32-32s-32,14.328-32,32c0,17.674,14.326,32,32,32
		S12.211,309.359,12.211,291.688z"/>
	<path fill="#626E75" d="M165.211-190.312c0-2.21-1.791-4-4-4h-36c-2.209,0-4,1.79-4,4v81c0,2.209,1.791,4,4,4h36
		c2.209,0,4-1.791,4-4V-190.312z"/>
	<path fill="#75828A" d="M143.211,96.688c0-2.21-1.791-4-4-4h-56c-2.209,0-4,1.79-4,4v56c0,2.209,1.791,4,4,4h56
		c2.209,0,4-1.791,4-4V96.688z"/>
	<g>
		<path fill="#FFFFFF" d="M105.035,117.262c2.368,2.688,2.976,3.393,5.503,6.368c3.264,3.872,3.488,4.704,3.488,6.208v0.928
			c0,2.017-0.544,2.624-3.776,2.624c-1.504,0-3.52-0.352-4.735-0.704l-0.384,2.305c1.376,0.416,3.488,0.8,5.344,0.8
			c4.928,0,6.239-1.728,6.239-4.991c0-0.128,0-0.576,0-0.704c0-2.527-0.448-3.615-3.647-7.423c-2.304-2.752-2.624-3.168-4.704-5.503
			h8.543v-2.368h-11.871V117.262L105.035,117.262z"/>
	</g>
	<path fill="#FFFFFF" d="M143.211,12.688c0-2.21-1.791-4-4-4h-56c-2.209,0-4,1.79-4,4v56c0,2.209,1.791,4,4,4h56
		c2.209,0,4-1.791,4-4V12.688z"/>
	<g>
		<path fill="#3E464B" d="M107.115,46.093l-1.184,2.145l5.6,3.23h2.4v-20.67h-2.688v17.6L107.115,46.093z"/>
	</g>
	<path fill="#75828A" d="M143.211,264.688c0-2.209-1.791-4-4-4h-56c-2.209,0-4,1.791-4,4v56c0,2.209,1.791,4,4,4h56
		c2.209,0,4-1.791,4-4V264.688z"/>
	<g>
		<path fill="#FFFFFF" d="M115.866,299.885v-5.087h-2.688v5.087h-9.855v2.656l8.927,12.927h3.616v-13.278h2.976v-2.305H115.866
			L115.866,299.885z M113.178,302.189v10.559l-7.199-10.559H113.178z"/>
	</g>
	<path fill="#75828A" d="M-398.789,29.688h-56c-2.209,0-4-1.791-4-4v-150c0-2.21,1.791-4,4-4h56c2.209,0,4,1.79,4,4v150
		C-394.789,27.896-396.58,29.688-398.789,29.688z"/>
	<path fill="#FF1D25" d="M118.211-11.312"/>
	<path fill="#FF1D25" d="M7.211,269.688"/>
	<g>
		<path fill="#3E464B" d="M-17.038,292.357c2.912-1.344,3.872-2.688,3.872-4.863v-0.928c0-3.584-1.919-5.088-6.624-5.088
			c-4.735,0-6.623,1.504-6.623,5.088v0.928c0,2.176,0.928,3.52,3.775,4.863c-2.56,1.248-3.231,2.56-3.231,4.576v0.832
			c0,2.911,1.439,5.022,6.079,5.022c4.608,0,6.08-2.112,6.08-5.022v-0.832C-13.71,294.917-14.414,293.605-17.038,292.357z
			 M-19.79,291.141c-3.231-1.312-4-1.92-4-3.744v-0.735c0-2.177,1.024-2.88,4-2.88c2.944,0,4,0.703,4,2.88v0.735
			C-15.79,289.221-16.59,289.829-19.79,291.141z M-19.79,293.445c2.752,1.119,3.456,1.791,3.456,3.424v1.023
			c0,1.664-0.8,2.625-3.456,2.625c-2.688,0-3.456-0.961-3.456-2.625v-1.023C-23.246,295.236-22.542,294.564-19.79,293.445z"/>
	</g>
	<path fill="#FFFFFF" d="M12.211,208.688c0-17.674-14.326-32-32-32s-32,14.326-32,32c0,17.673,14.326,31.999,32,31.999
		S12.211,226.36,12.211,208.688z"/>
	<path fill="#FF1D25" d="M7.211,189.688"/>
	<g>
		<path fill="#3E464B" d="M-26.029,219.468h12.703v-2.271l-8.511-18.398h-2.72l8.479,18.303h-9.951V219.468z"/>
	</g>
	<path fill="#FFFFFF" d="M12.211,124.688c0-17.674-14.326-32-32-32s-32,14.326-32,32c0,17.673,14.326,32,32,32
		S12.211,142.36,12.211,124.688z"/>
	<path fill="#FF1D25" d="M7.211,102.688"/>
	<g>
		<path fill="#3E464B" d="M-23.086,125.901c1.056,0.384,2.848,0.735,4.256,0.735c4.063,0,5.472-1.695,5.472-5.088v-1.023
			c0-3.744-1.024-6.049-6.144-6.049c-4.608,0-6.24,1.921-6.24,4.929v9.15c0,5.312,2.368,7.231,8.383,7.231
			c0.992,0,2.496-0.128,3.52-0.384l-0.288-2.24c-0.768,0.16-2.048,0.288-2.816,0.288c-4.959,0-6.144-1.057-6.144-4.928
			L-23.086,125.901L-23.086,125.901z M-23.086,123.437v-3.646c0-2.272,1.152-2.944,3.584-2.944c2.751,0,3.488,0.832,3.488,2.944
			v1.76c0,1.952-0.736,2.752-3.072,2.752C-20.494,124.301-22.03,123.885-23.086,123.437z"/>
	</g>
	<path opacity="0.4" fill="#4F99D3" enable-background="new    " d="M-19.789,3.688c-20.402,0-37,16.598-37,37
		c0,20.401,16.598,37,37,37s37-16.599,37-37C17.211,20.286,0.613,3.688-19.789,3.688z"/>
	<path fill="#4F99D3" d="M12.211,40.688c0-17.674-14.326-32-32-32s-32,14.326-32,32c0,17.673,14.326,32,32,32
		S12.211,58.36,12.211,40.688z"/>
	<path fill="#FF1D25" d="M7.211,18.688"/>
	<g>
		<path fill="#FFFFFF" d="M-438.678-44.907l-1.184,2.145l5.6,3.23h2.4v-20.67h-2.688v17.6L-438.678-44.907z"/>
		<path fill="#FFFFFF" d="M-427.094-57.643c1.535-0.353,3.104-0.513,4.672-0.513c3.007,0,4.095,0.704,4.095,2.752v1.601
			c0,2.08-1.151,2.784-3.231,2.784h-4.383v2.367h4.031c2.496,0,3.2,0.96,3.2,2.656v1.856c0,1.92-0.896,2.56-3.456,2.56
			c-1.439,0-3.04-0.192-4.512-0.479l-0.288,2.271c1.344,0.32,3.2,0.576,4.864,0.576c4.512,0,6.08-1.568,6.08-4.543v-1.888
			c0-1.952-0.448-3.168-2.434-4.128c1.76-0.513,2.816-1.505,2.816-3.809v-2.08c0-3.328-1.984-4.864-6.784-4.864
			c-1.536,0-3.616,0.192-4.959,0.642L-427.094-57.643z"/>
	</g>
	<path fill="#FF9900" d="M-398.789,227.688h-56c-2.209,0-4-1.791-4-4v-150c0-2.21,1.791-4,4-4h56c2.209,0,4,1.79,4,4v150
		C-394.789,225.896-396.58,227.688-398.789,227.688z"/>
	<g>
		<path fill="#FFFFFF" d="M-439.479,153.093l-1.184,2.145l5.6,3.23h2.4v-20.67h-2.688v17.6L-439.479,153.093z"/>
		<path fill="#FFFFFF" d="M-416.535,142.885v-5.087h-2.688v5.087h-9.855v2.656l8.928,12.927h3.614v-13.278h2.978v-2.305H-416.535z
			 M-419.223,145.189v10.559l-7.199-10.559H-419.223z"/>
	</g>
	<path fill="#FFFFFF" d="M277.211,320.688c0,2.209-1.791,4-4,4h-56c-2.209,0-4-1.791-4-4v-140c0-2.209,1.791-4,4-4h56
		c2.209,0,4,1.791,4,4V320.688z"/>
	<path fill="none" stroke="#626E75" stroke-width="6" stroke-linecap="round" stroke-linejoin="round" stroke-miterlimit="10" d="
		M364.211-161.312c27,0,41.443,14,41.443,41h57.557v-99h-99V-161.312z"/>
	<path fill="none" stroke="#626E75" stroke-width="6" stroke-linecap="round" stroke-linejoin="round" stroke-miterlimit="10" d="
		M-424.611-170.312c0-27,13.822-41.121,40.822-41.121v-57.88h-99v99L-424.611-170.312L-424.611-170.312z"/>
	<path fill="#FFFFFF" d="M-425.824-169.621c1.508,1.508,3.975,1.508,5.481,0l38.129-38.128c1.508-1.507,0.508-3.974-1-5.481
		l-37.129-38.129c-1.509-1.508-3.974-1.508-5.481,0l-38.128,38.129c-1.508,1.509-1.508,3.976,0,5.481L-425.824-169.621z"/>
	<g>
		<path fill="#3E464B" d="M-435.146-204.523l-1.184,2.145l5.6,3.23h2.4v-20.67h-2.688v17.6L-435.146-204.523z"/>
		<path fill="#3E464B" d="M-423.85-217.354c2.367,2.688,2.976,3.392,5.502,6.367c3.265,3.872,3.488,4.704,3.488,6.208v0.929
			c0,2.016-0.543,2.624-3.775,2.624c-1.504,0-3.52-0.353-4.735-0.704l-0.384,2.304c1.376,0.416,3.488,0.8,5.344,0.8
			c4.928,0,6.239-1.728,6.239-4.991c0-0.128,0-0.575,0-0.704c0-2.527-0.447-3.615-3.647-7.423c-2.304-2.752-2.623-3.168-4.703-5.503
			h8.543v-2.368h-11.871V-217.354z"/>
	</g>
	<path fill="#FFFFFF" d="M-195.104-250.221c-1.507-1.508-3.974-1.508-5.481,0l-38.129,38.128c-1.507,1.508-1.507,3.974,0,5.48
		l38.129,37.129c1.507,1.509,3.974,2.509,5.481,1l38.128-38.129c1.508-1.508,1.508-3.974,0-5.48L-195.104-250.221z"/>
	<g>
		<path fill="#3E464B" d="M-211.715-204.462l-1.184,2.144l5.6,3.231h2.4v-20.67h-2.688v17.599L-211.715-204.462z"/>
		<path fill="#3E464B" d="M-186.597-214.541c0-3.2-1.632-5.536-6.591-5.536c-4.96,0-6.592,2.336-6.592,5.536v10.239
			c0,3.2,1.632,5.535,6.592,5.535c4.959,0,6.591-2.335,6.591-5.535V-214.541z M-193.188-201.134c-2.944,0-3.904-1.12-3.904-3.456
			v-9.664c0-2.335,0.96-3.456,3.904-3.456s3.904,1.12,3.904,3.456v9.664C-189.284-202.254-190.244-201.134-193.188-201.134z"/>
	</g>
	<path fill="#FFFFFF" d="M383.953,9.01c-1.507-1.508-3.975-1.508-5.481,0l-38.129,38.128c-1.508,1.509-1.508,3.975,0,5.481
		l38.129,37.129c1.509,1.508,3.976,2.508,5.481,1l38.128-38.129c1.508-1.508,1.508-3.975,0-5.481L383.953,9.01z"/>
	<g>
		<path fill="#3E464B" d="M365.901,41.938c2.367,2.688,2.976,3.392,5.503,6.367c3.264,3.872,3.487,4.704,3.487,6.208v0.929
			c0,2.016-0.544,2.624-3.775,2.624c-1.504,0-3.521-0.353-4.735-0.704l-0.384,2.304c1.376,0.416,3.488,0.8,5.344,0.8
			c4.928,0,6.239-1.728,6.239-4.991c0-0.128,0-0.575,0-0.703c0-2.528-0.448-3.616-3.647-7.424c-2.304-2.752-2.624-3.168-4.704-5.503
			h8.544v-2.368h-11.871V41.938z"/>
		<path fill="#3E464B" d="M393.996,44.689c0-3.2-1.632-5.536-6.592-5.536c-4.959,0-6.592,2.336-6.592,5.536v10.238
			c0,3.2,1.633,5.535,6.592,5.535c4.96,0,6.592-2.335,6.592-5.535V44.689z M387.404,58.096c-2.943,0-3.903-1.12-3.903-3.456v-9.664
			c0-2.335,0.96-3.456,3.903-3.456s3.903,1.12,3.903,3.456v9.664C391.308,56.977,390.348,58.096,387.404,58.096z"/>
	</g>
	<path fill="#FFFFFF" d="M383.953,243.01c-1.507-1.508-3.975-1.508-5.481,0l-38.129,38.129c-1.508,1.508-1.508,3.973,0,5.48
		l38.129,37.129c1.509,1.508,3.976,2.508,5.481,1l38.128-38.129c1.508-1.508,1.508-3.975,0-5.48L383.953,243.01z"/>
	<g>
		<g>
			<path fill="#666666" d="M367.469,288.77l-1.184,2.144l5.6,3.231h2.4v-20.67h-2.688v17.599L367.469,288.77z"/>
			<path fill="#666666" d="M388.62,284.033c2.912-1.344,3.872-2.688,3.872-4.863v-0.928c0-3.584-1.92-5.088-6.624-5.088
				c-4.735,0-6.623,1.504-6.623,5.088v0.928c0,2.176,0.928,3.52,3.774,4.863c-2.56,1.248-3.23,2.56-3.23,4.576v0.832
				c0,2.912,1.439,5.022,6.079,5.022c4.607,0,6.08-2.112,6.08-5.022v-0.832C391.948,286.593,391.244,285.281,388.62,284.033z
				 M385.868,282.816c-3.231-1.312-4-1.92-4-3.743v-0.736c0-2.176,1.023-2.88,4-2.88c2.944,0,4,0.704,4,2.88v0.736
				C389.868,280.896,389.068,281.505,385.868,282.816z M385.868,285.121c2.752,1.12,3.456,1.792,3.456,3.424v1.023
				c0,1.664-0.8,2.625-3.456,2.625c-2.688,0-3.456-0.961-3.456-2.625v-1.023C382.412,286.913,383.116,286.241,385.868,285.121z"/>
		</g>
	</g>
	<path fill="#4F99D3" d="M-299.104-250.221c-1.507-1.508-3.974-1.508-5.481,0l-38.129,38.128c-1.507,1.508-1.507,3.974,0,5.48
		l38.129,37.129c1.507,1.509,3.974,2.509,5.481,1l38.128-38.129c1.508-1.508,1.508-3.974,0-5.48L-299.104-250.221z"/>
	<g>
		<path fill="#FFFFFF" d="M-312.483-195.462l-1.184,2.144l5.6,3.231h2.4v-20.67h-2.688v17.599L-312.483-195.462z"/>
		<path fill="#FFFFFF" d="M-301.284-195.462l-1.184,2.144l5.6,3.231h2.4v-20.67h-2.688v17.599L-301.284-195.462z"/>
	</g>
	<g>
		<path fill="#2D3236" d="M137.215-168.148h3.836v4.047h-3.836v2.197h9.996v-2.197h-4.312v-4.047h4.312v-2.197h-9.996V-168.148z"/>
		<path fill="#2D3236" d="M140.176-160.07c-0.639,0.225-1.197,0.546-1.673,0.967c-0.476,0.42-0.849,0.936-1.12,1.547
			c-0.271,0.61-0.406,1.3-0.406,2.064c0,0.774,0.135,1.465,0.406,2.071s0.644,1.12,1.12,1.54s1.034,0.742,1.673,0.967
			c0.64,0.224,1.333,0.336,2.079,0.336c0.728,0,1.407-0.112,2.037-0.336c0.63-0.225,1.178-0.547,1.645-0.967s0.833-0.934,1.099-1.54
			c0.266-0.606,0.399-1.297,0.399-2.071c0-0.766-0.133-1.454-0.399-2.064c-0.266-0.611-0.632-1.127-1.099-1.547
			c-0.467-0.421-1.015-0.742-1.645-0.967s-1.309-0.336-2.037-0.336C141.509-160.406,140.816-160.295,140.176-160.07z
			 M143.48-158.062c0.397,0.098,0.754,0.254,1.071,0.469c0.317,0.215,0.572,0.495,0.763,0.84c0.191,0.346,0.287,0.766,0.287,1.261
			c0,0.494-0.096,0.914-0.287,1.26s-0.446,0.625-0.763,0.841c-0.317,0.215-0.674,0.37-1.071,0.469
			c-0.396,0.099-0.805,0.146-1.225,0.146c-0.438,0-0.863-0.049-1.274-0.146c-0.411-0.099-0.777-0.254-1.099-0.469
			c-0.322-0.216-0.579-0.495-0.77-0.841c-0.191-0.346-0.287-0.766-0.287-1.26c0-0.495,0.096-0.915,0.287-1.261
			c0.191-0.345,0.448-0.625,0.77-0.84c0.322-0.215,0.688-0.371,1.099-0.469c0.411-0.099,0.835-0.146,1.274-0.146
			C142.675-158.208,143.084-158.159,143.48-158.062z"/>
		<path fill="#2D3236" d="M144.748-147.4c0.233,0.121,0.422,0.281,0.567,0.482s0.252,0.437,0.322,0.707
			c0.07,0.271,0.105,0.551,0.105,0.84c0,0.196-0.016,0.406-0.049,0.63c-0.033,0.226-0.096,0.436-0.189,0.63
			c-0.093,0.196-0.222,0.359-0.385,0.49c-0.164,0.131-0.371,0.196-0.623,0.196c-0.271,0-0.49-0.087-0.658-0.259
			c-0.168-0.174-0.308-0.399-0.42-0.681c-0.112-0.278-0.21-0.597-0.294-0.951s-0.177-0.715-0.28-1.077
			c-0.093-0.374-0.208-0.737-0.343-1.094c-0.135-0.354-0.31-0.672-0.525-0.95c-0.215-0.28-0.483-0.508-0.805-0.681
			c-0.322-0.173-0.711-0.259-1.169-0.259c-0.513,0-0.959,0.109-1.337,0.329c-0.378,0.219-0.693,0.506-0.945,0.861
			c-0.252,0.354-0.438,0.756-0.56,1.203s-0.182,0.896-0.182,1.345c0,0.521,0.058,1.023,0.175,1.505
			c0.117,0.48,0.306,0.907,0.567,1.281c0.262,0.373,0.595,0.669,1.001,0.889c0.406,0.219,0.898,0.329,1.477,0.329v-2.128
			c-0.298-0.02-0.546-0.082-0.742-0.189c-0.196-0.106-0.35-0.249-0.462-0.427c-0.112-0.178-0.191-0.38-0.238-0.609
			c-0.046-0.229-0.07-0.478-0.07-0.749c0-0.177,0.019-0.354,0.056-0.53c0.038-0.179,0.103-0.34,0.196-0.483s0.21-0.264,0.35-0.356
			c0.14-0.094,0.317-0.141,0.532-0.141c0.196,0,0.355,0.037,0.476,0.112c0.122,0.074,0.233,0.222,0.336,0.439
			c0.103,0.221,0.206,0.523,0.308,0.91c0.103,0.388,0.233,0.895,0.392,1.521c0.037,0.187,0.105,0.444,0.203,0.775
			c0.098,0.332,0.254,0.66,0.469,0.987s0.502,0.609,0.861,0.847c0.359,0.238,0.819,0.357,1.379,0.357
			c0.457,0,0.882-0.089,1.274-0.267s0.73-0.44,1.015-0.791c0.285-0.351,0.507-0.783,0.665-1.303
			c0.159-0.518,0.238-1.117,0.238-1.799c0-0.551-0.068-1.085-0.203-1.603c-0.135-0.52-0.348-0.977-0.637-1.372
			c-0.289-0.397-0.658-0.712-1.106-0.945c-0.448-0.233-0.98-0.346-1.596-0.336v2.128C144.229-147.583,144.514-147.522,144.748-147.4
			z"/>
		<path fill="#2D3236" d="M139.063-140.779h-1.848v8.19h1.848v-2.996h8.148v-2.198h-8.148V-140.779z"/>
	</g>
	<g>
		<path fill="#3E464B" d="M233.835,256.093l-1.184,2.144l5.6,3.231h2.4v-20.67h-2.688v17.599L233.835,256.093z"/>
		<path fill="#3E464B" d="M244.811,261.468h12.703v-2.272l-8.511-18.397h-2.72l8.479,18.304h-9.951V261.468z"/>
	</g>
	<path fill="#FFFFFF" d="M277.211,151.688c0,2.209-1.791,4-4,4h-56c-2.209,0-4-1.791-4-4v-140c0-2.21,1.791-4,4-4h56
		c2.209,0,4,1.79,4,4V151.688z"/>
	<g>
		<path fill="#3E464B" d="M232.923,87.093l-1.184,2.145l5.6,3.23h2.4v-20.67h-2.688v17.6L232.923,87.093z"/>
		<path fill="#3E464B" d="M247.515,82.901c1.056,0.384,2.848,0.735,4.256,0.735c4.064,0,5.471-1.695,5.471-5.088v-1.023
			c0-3.744-1.023-6.049-6.143-6.049c-4.608,0-6.24,1.921-6.24,4.929v9.15c0,5.312,2.368,7.231,8.384,7.231
			c0.991,0,2.495-0.128,3.52-0.384l-0.288-2.24c-0.768,0.16-2.048,0.288-2.815,0.288c-4.96,0-6.144-1.057-6.144-4.928
			L247.515,82.901L247.515,82.901z M247.515,80.437V76.79c0-2.272,1.152-2.944,3.584-2.944c2.751,0,3.488,0.832,3.488,2.944v1.76
			c0,1.952-0.736,2.752-3.072,2.752C250.106,81.301,248.571,80.885,247.515,80.437z"/>
	</g>
	<path fill="#D58230" d="M-458.789,94.688v-22c0-1.657,1.344-3,3-3h58c1.657,0,3,1.343,3,3v22H-458.789z"/>
	<g>
		<polygon fill="none" points="-394.736,71.688 -458.789,71.688 -458.789,87.688 -394.736,87.688 		"/>
		<path fill="#FFFFFF" d="M-430.188,85.959c0.225,0.384,0.516,0.704,0.873,0.96c0.356,0.256,0.76,0.448,1.207,0.576
			c0.448,0.128,0.901,0.191,1.36,0.191c0.692,0,1.28-0.105,1.761-0.319c0.479-0.214,0.865-0.473,1.159-0.776
			c0.293-0.304,0.504-0.629,0.632-0.976c0.129-0.348,0.192-0.659,0.192-0.937c0-0.555-0.136-1.04-0.408-1.456
			s-0.68-0.715-1.224-0.896v-0.032c0.672-0.15,1.189-0.467,1.552-0.952c0.362-0.484,0.544-1.08,0.544-1.784
			c0-0.597-0.12-1.114-0.359-1.552c-0.24-0.438-0.559-0.8-0.953-1.088s-0.842-0.504-1.344-0.647c-0.5-0.145-1.014-0.217-1.535-0.217
			c-0.545,0-1.069,0.067-1.576,0.2c-0.506,0.133-0.961,0.344-1.36,0.632s-0.72,0.65-0.96,1.088c-0.24,0.438-0.359,0.96-0.359,1.568
			c0,0.715,0.184,1.312,0.551,1.792c0.369,0.48,0.889,0.8,1.561,0.96v0.032c-0.544,0.148-0.955,0.432-1.232,0.848
			c-0.276,0.416-0.416,0.901-0.416,1.456C-430.521,85.133-430.411,85.576-430.188,85.959z M-428.555,78.872
			c0.106-0.235,0.248-0.436,0.424-0.6c0.176-0.166,0.386-0.294,0.632-0.385c0.245-0.091,0.501-0.136,0.769-0.136
			c0.276,0,0.53,0.045,0.76,0.136c0.229,0.09,0.432,0.219,0.607,0.385s0.312,0.364,0.408,0.6c0.096,0.234,0.145,0.491,0.145,0.768
			c0,0.268-0.051,0.51-0.152,0.729c-0.102,0.218-0.24,0.408-0.416,0.567c-0.176,0.16-0.379,0.283-0.607,0.368
			c-0.229,0.085-0.479,0.128-0.744,0.128c-0.556,0-1.024-0.151-1.408-0.456c-0.385-0.304-0.576-0.743-0.576-1.319
			C-428.714,79.368-428.661,79.106-428.555,78.872z M-427.945,83.328c0.34-0.25,0.74-0.376,1.199-0.376c0.48,0,0.88,0.125,1.2,0.376
			c0.319,0.251,0.479,0.616,0.479,1.096c0,0.149-0.021,0.312-0.063,0.488s-0.125,0.344-0.248,0.504s-0.293,0.293-0.513,0.4
			c-0.219,0.106-0.504,0.159-0.855,0.159c-0.224,0-0.439-0.034-0.648-0.104c-0.207-0.069-0.392-0.168-0.551-0.296
			c-0.16-0.128-0.287-0.288-0.377-0.48c-0.091-0.191-0.136-0.416-0.136-0.672C-428.458,83.944-428.288,83.578-427.945,83.328z"/>
	</g>
	<path fill="#626E75" d="M79.211,285.688v-22c0-1.656,1.344-3,3-3h58c1.657,0,3,1.344,3,3v22H79.211z"/>
	<g>
		<polygon fill="none" points="142.917,262.688 79.211,262.688 79.211,278.688 142.917,278.688 		"/>
		<path fill="#FFFFFF" d="M107.432,275.943c0.17,0.55,0.427,1.029,0.768,1.44c0.341,0.41,0.771,0.73,1.288,0.96
			c0.517,0.229,1.112,0.344,1.784,0.344c0.512,0,1-0.08,1.464-0.239c0.464-0.16,0.872-0.39,1.224-0.688s0.632-0.667,0.84-1.104
			c0.208-0.438,0.312-0.928,0.312-1.473c0-0.564-0.091-1.051-0.272-1.455c-0.182-0.405-0.421-0.766-0.72-1.08
			c-0.299-0.314-0.637-0.601-1.016-0.856c-0.378-0.256-0.76-0.509-1.144-0.76s-0.758-0.521-1.12-0.808
			c-0.363-0.289-0.683-0.625-0.96-1.009h5.296v-1.952h-8.224c0,0.65,0.093,1.217,0.28,1.696s0.44,0.91,0.76,1.288
			c0.32,0.378,0.696,0.729,1.128,1.048c0.432,0.32,0.888,0.646,1.368,0.976c0.245,0.172,0.506,0.345,0.784,0.521
			c0.277,0.177,0.531,0.371,0.76,0.584s0.421,0.454,0.576,0.72c0.154,0.268,0.232,0.57,0.232,0.912c0,0.545-0.158,0.969-0.472,1.272
			c-0.315,0.304-0.717,0.456-1.208,0.456c-0.331,0-0.611-0.078-0.84-0.232s-0.414-0.357-0.552-0.607
			c-0.138-0.25-0.237-0.528-0.296-0.832c-0.059-0.305-0.088-0.605-0.088-0.904h-2.176
			C107.186,274.8,107.261,275.395,107.432,275.943z"/>
	</g>
	<path fill="#75828A" d="M143.211,179.688c0-2.21-1.791-4-4-4h-56c-2.209,0-4,1.79-4,4v56c0,2.209,1.791,4,4,4h56
		c2.209,0,4-1.791,4-4V179.688z"/>
	<g>
		<path fill="#FFFFFF" d="M105.307,212.357c1.536-0.353,3.104-0.513,4.672-0.513c3.008,0,4.096,0.704,4.096,2.752v1.601
			c0,2.08-1.152,2.784-3.232,2.784h-4.384v2.367h4.032c2.496,0,3.2,0.96,3.2,2.656v1.856c0,1.92-0.896,2.56-3.456,2.56
			c-1.44,0-3.04-0.192-4.512-0.479l-0.288,2.271c1.344,0.32,3.2,0.576,4.864,0.576c4.512,0,6.08-1.568,6.08-4.543v-1.888
			c0-1.952-0.448-3.168-2.432-4.128c1.76-0.513,2.816-1.505,2.816-3.809v-2.08c0-3.328-1.984-4.864-6.784-4.864
			c-1.536,0-3.616,0.192-4.959,0.642L105.307,212.357z"/>
	</g>
	<path fill="#626E75" d="M79.211,200.688v-22c0-1.657,1.344-3,3-3h58c1.657,0,3,1.343,3,3v22H79.211z"/>
	<g>
		<polygon fill="none" points="142.917,177.688 79.211,177.688 79.211,193.688 142.917,193.688 		"/>
		<path fill="#FFFFFF" d="M106.872,184.855v2.079l4.864,6.528h2.032v-6.736h1.488v-1.871h-1.488v-2.593h-2.16v2.593H106.872z
			 M111.56,190.616l-2.896-3.889h2.944v3.889H111.56z"/>
	</g>
	<path fill="#2F71A7" d="M-304.585-250.221c1.507-1.508,3.974-1.508,5.481,0l29.909,29.908h-65.299L-304.585-250.221z"/>
	<g>
		<polygon fill="none" points="-274.987,-244.312 -328.562,-244.312 -328.562,-228.312 -274.987,-228.312 		"/>
		<path fill="#FFFFFF" d="M-301.791-233.064c0.277,0.021,0.536,0.083,0.776,0.185c0.24,0.101,0.437,0.248,0.592,0.439
			c0.155,0.192,0.232,0.448,0.232,0.769c0,0.479-0.16,0.848-0.48,1.104c-0.32,0.257-0.688,0.385-1.104,0.385
			c-0.576,0-1.011-0.189-1.304-0.568c-0.293-0.378-0.435-0.856-0.424-1.432h-2.16c0.021,0.575,0.125,1.102,0.312,1.575
			c0.187,0.476,0.448,0.884,0.784,1.225s0.739,0.604,1.208,0.792c0.469,0.187,0.992,0.28,1.568,0.28c0.448,0,0.896-0.066,1.344-0.2
			c0.448-0.134,0.851-0.333,1.208-0.601c0.357-0.267,0.648-0.592,0.872-0.976c0.224-0.384,0.336-0.827,0.336-1.328
			c0-0.544-0.131-1.024-0.392-1.44c-0.261-0.415-0.653-0.698-1.176-0.848v-0.032c0.619-0.139,1.104-0.438,1.456-0.896
			c0.352-0.459,0.528-1.008,0.528-1.648c0-0.587-0.115-1.108-0.344-1.567s-0.536-0.844-0.92-1.152
			c-0.384-0.31-0.827-0.544-1.328-0.704s-1.024-0.24-1.568-0.24c-0.63,0-1.203,0.092-1.72,0.272
			c-0.518,0.181-0.958,0.445-1.32,0.792c-0.363,0.347-0.643,0.771-0.84,1.271c-0.197,0.501-0.291,1.077-0.28,1.729h2.16
			c0.01-0.299,0.058-0.584,0.144-0.856c0.086-0.271,0.208-0.507,0.368-0.703c0.16-0.197,0.36-0.354,0.6-0.473
			c0.24-0.118,0.525-0.176,0.856-0.176c0.512,0,0.944,0.157,1.296,0.472c0.352,0.314,0.528,0.744,0.528,1.288
			c0,0.426-0.083,0.752-0.248,0.977c-0.166,0.224-0.376,0.387-0.632,0.487c-0.256,0.102-0.536,0.16-0.84,0.177
			c-0.304,0.016-0.595,0.023-0.872,0.023v1.601C-302.33-233.086-302.069-233.086-301.791-233.064z"/>
	</g>
	<path fill="#FF9900" d="M-89.104-250.221c-1.507-1.508-3.974-1.508-5.481,0l-38.129,38.128c-1.507,1.508-1.507,3.974,0,5.48
		l38.129,37.129c1.507,1.509,3.974,2.509,5.481,1l38.128-38.129c1.508-1.508,1.508-3.974,0-5.48L-89.104-250.221z"/>
	<g>
		<path fill="#FFFFFF" d="M-89.492-201.189c-1.056-0.384-2.848-0.735-4.256-0.735c-4.063,0-5.472,1.696-5.472,5.087v1.023
			c0,3.744,1.12,6.048,6.144,6.048c4.608,0,6.24-2.017,6.24-5.023v-9.055c0-5.312-2.368-7.232-8.383-7.232
			c-0.992,0-2.496,0.128-3.52,0.385l0.256,2.239c0.768-0.16,2.08-0.288,2.848-0.288c4.959,0,6.144,1.057,6.144,4.929
			L-89.492-201.189L-89.492-201.189z M-89.492-198.726v3.646c0,2.272-1.152,2.944-3.584,2.944c-2.751,0-3.488-0.832-3.488-2.944
			v-1.76c0-1.952,0.736-2.752,3.072-2.752C-92.084-199.59-90.548-199.174-89.492-198.726z"/>
	</g>
	<path fill="#D58230" d="M-94.585-250.221c1.507-1.508,3.974-1.508,5.481,0l29.909,29.908h-65.299L-94.585-250.221z"/>
	<g>
		<polygon fill="none" points="-64.987,-244.312 -118.563,-244.312 -118.563,-228.312 -64.987,-228.312 		"/>
		<path fill="#FFFFFF" d="M-95.967-237.145v2.079l4.864,6.528h2.032v-6.736h1.488v-1.871h-1.488v-2.593h-2.16v2.593H-95.967z
			 M-91.279-231.384l-2.896-3.889h2.944v3.889H-91.279z"/>
	</g>
	<path fill="#FF9900" d="M407.896-200.221c-1.508-1.508-3.975-1.508-5.481,0l-38.129,38.128c-1.508,1.508-1.508,3.974,0,5.48
		l38.129,37.129c1.508,1.509,3.975,2.509,5.481,1l38.128-38.129c1.508-1.508,1.508-3.974,0-5.48L407.896-200.221z"/>
	<g>
		<path fill="#FFFFFF" d="M392.438-158.293c2.367,2.688,2.976,3.392,5.503,6.368c3.264,3.872,3.487,4.704,3.487,6.208v0.928
			c0,2.016-0.544,2.624-3.775,2.624c-1.504,0-3.521-0.352-4.735-0.704l-0.384,2.304c1.376,0.416,3.488,0.801,5.344,0.801
			c4.928,0,6.239-1.729,6.239-4.991c0-0.128,0-0.576,0-0.704c0-2.528-0.448-3.616-3.647-7.423c-2.304-2.752-2.624-3.168-4.704-5.503
			h8.543v-2.368h-11.87V-158.293z"/>
		<path fill="#FFFFFF" d="M407.892-145.462l-1.184,2.144l5.6,3.231h2.399v-20.67h-2.688v17.599L407.892-145.462z"/>
	</g>
	<path fill="#D58230" d="M402.415-200.221c1.508-1.508,3.975-1.508,5.481,0l29.908,29.908h-65.3L402.415-200.221z"/>
	<g>
		<polygon fill="none" points="432.013,-194.312 378.438,-194.312 378.438,-178.312 432.013,-178.312 		"/>
		<path fill="#FFFFFF" d="M401.033-187.145v2.079l4.864,6.528h2.031v-6.736h1.488v-1.871h-1.488v-2.593h-2.16v2.593H401.033z
			 M405.721-181.384l-2.896-3.889h2.943v3.889H405.721z"/>
	</g>
	<path fill="#4F99D3" d="M383.896,125.779c-1.508-1.508-3.975-1.508-5.481,0l-38.129,38.128c-1.508,1.508-1.508,3.974,0,5.48
		l38.129,37.129c1.508,1.509,3.975,2.509,5.481,1l38.128-38.129c1.508-1.508,1.508-3.974,0-5.48L383.896,125.779z"/>
	<g>
		<path fill="#FFFFFF" d="M367.924,180.538l-1.184,2.144l5.6,3.231h2.4v-20.67h-2.688v17.599L367.924,180.538z"/>
		<path fill="#FFFFFF" d="M389.107,174.811c-1.057-0.384-2.849-0.735-4.256-0.735c-4.062,0-5.472,1.696-5.472,5.087v1.023
			c0,3.744,1.12,6.048,6.145,6.048c4.607,0,6.239-2.017,6.239-5.023v-9.055c0-5.312-2.367-7.232-8.383-7.232
			c-0.992,0-2.496,0.128-3.52,0.385l0.256,2.239c0.768-0.16,2.08-0.288,2.848-0.288c4.959,0,6.144,1.057,6.144,4.929
			L389.107,174.811L389.107,174.811z M389.107,177.274v3.646c0,2.272-1.151,2.944-3.583,2.944c-2.751,0-3.488-0.832-3.488-2.944
			v-1.76c0-1.952,0.735-2.752,3.072-2.752C386.516,176.41,388.051,176.826,389.107,177.274z"/>
	</g>
	<path fill="#2F71A7" d="M378.415,125.779c1.508-1.508,3.975-1.508,5.481,0l29.908,29.907h-65.3L378.415,125.779z"/>
	<g>
		<polygon fill="none" points="408.013,131.688 354.438,131.688 354.438,147.688 408.013,147.688 		"/>
		<path fill="#FFFFFF" d="M377.033,138.855v2.079l4.864,6.528h2.031v-6.736h1.488v-1.871h-1.488v-2.593h-2.16v2.593H377.033z
			 M381.721,144.616l-2.896-3.889h2.943v3.889H381.721z"/>
	</g>
	<g>
		<path fill="#FFFFFF" d="M-25.07,62.468h10.879V60.1h-8.191v-6.56c1.344-0.032,1.984-0.032,3.424-0.096
			c3.808-0.16,5.023-2.017,5.023-4.8V46.79c0-3.392-1.472-5.312-6.56-5.312c-1.6,0-3.744,0.192-5.375,0.736l0.288,2.176
			c1.6-0.384,3.52-0.544,5.056-0.544c3.2,0,3.903,0.832,3.903,3.104v1.408c0,1.92-0.64,2.72-3.295,2.783
			c-2.144,0.064-3.552,0.064-5.152,0.097V62.468z"/>
	</g>
	<path fill="#2F71A7" d="M-19.789,8.688c15.971,0,29.19,11.704,31.592,27H-51.38C-48.979,20.392-35.759,8.688-19.789,8.688z"/>
	<g>
		<polygon fill="none" points="12.16,10.688 -51.96,10.688 -51.96,26.688 12.16,26.688 		"/>
		<path fill="#FFFFFF" d="M-27.98,25.944c0.17,0.549,0.427,1.028,0.768,1.439c0.341,0.41,0.771,0.73,1.288,0.96
			c0.517,0.229,1.112,0.345,1.784,0.345c0.512,0,1-0.08,1.464-0.24c0.464-0.16,0.872-0.391,1.224-0.688
			c0.352-0.299,0.632-0.667,0.84-1.104c0.208-0.438,0.312-0.929,0.312-1.473c0-0.564-0.091-1.051-0.272-1.456
			c-0.182-0.404-0.421-0.765-0.72-1.079s-0.637-0.601-1.016-0.856c-0.378-0.256-0.76-0.509-1.144-0.76
			c-0.384-0.251-0.758-0.521-1.12-0.809c-0.363-0.288-0.683-0.624-0.96-1.008h5.296v-1.952h-8.224c0,0.65,0.093,1.217,0.28,1.696
			c0.187,0.48,0.44,0.91,0.76,1.288c0.32,0.378,0.696,0.728,1.128,1.048s0.888,0.646,1.368,0.977
			c0.245,0.171,0.506,0.344,0.784,0.52c0.277,0.176,0.531,0.371,0.76,0.584s0.421,0.454,0.576,0.72
			c0.154,0.268,0.232,0.57,0.232,0.912c0,0.544-0.158,0.968-0.472,1.272c-0.315,0.304-0.717,0.456-1.208,0.456
			c-0.331,0-0.611-0.078-0.84-0.232c-0.229-0.155-0.414-0.357-0.552-0.607s-0.237-0.528-0.296-0.832
			c-0.059-0.305-0.088-0.605-0.088-0.904h-2.176C-28.226,24.8-28.151,25.394-27.98,25.944z"/>
		<path fill="#FFFFFF" d="M-19.236,25.656c0.218,0.741,0.515,1.336,0.888,1.784c0.374,0.447,0.808,0.768,1.304,0.96
			c0.496,0.191,1.021,0.288,1.576,0.288c0.565,0,1.096-0.097,1.592-0.288c0.496-0.192,0.933-0.513,1.312-0.96
			c0.378-0.448,0.677-1.042,0.896-1.784c0.219-0.742,0.328-1.656,0.328-2.744c0-1.12-0.109-2.056-0.328-2.809
			c-0.219-0.752-0.518-1.352-0.896-1.8c-0.379-0.447-0.816-0.768-1.312-0.96c-0.496-0.191-1.027-0.288-1.592-0.288
			c-0.555,0-1.08,0.097-1.576,0.288c-0.496,0.192-0.931,0.513-1.304,0.96c-0.373,0.448-0.669,1.048-0.888,1.8
			c-0.219,0.753-0.328,1.688-0.328,2.809C-19.564,24-19.455,24.914-19.236,25.656z M-17.26,21.751
			c0.021-0.453,0.088-0.891,0.2-1.312c0.112-0.422,0.291-0.781,0.536-1.08c0.245-0.3,0.597-0.448,1.056-0.448
			c0.469,0,0.829,0.148,1.08,0.448c0.25,0.298,0.432,0.657,0.544,1.08c0.112,0.421,0.178,0.858,0.2,1.312
			c0.021,0.454,0.032,0.84,0.032,1.16c0,0.191-0.003,0.424-0.008,0.696c-0.005,0.271-0.026,0.552-0.064,0.84
			c-0.037,0.288-0.09,0.572-0.16,0.855c-0.07,0.282-0.174,0.536-0.312,0.761c-0.139,0.224-0.315,0.404-0.528,0.544
			c-0.213,0.138-0.475,0.208-0.784,0.208c-0.31,0-0.568-0.069-0.776-0.208c-0.208-0.14-0.378-0.32-0.512-0.544
			c-0.133-0.225-0.237-0.479-0.312-0.761c-0.075-0.283-0.128-0.567-0.16-0.855c-0.032-0.288-0.051-0.568-0.056-0.84
			c-0.006-0.272-0.008-0.505-0.008-0.696C-17.292,22.592-17.282,22.205-17.26,21.751z"/>
	</g>
</symbol>
<g id="bg">
</g>
<use xlink:href="#New_Symbol"  width="1003.578" height="729.375" id="XMLID_1_" x="-501.789" y="-364.688" transform="matrix(1 0 0 -1 543.999 409)" overflow="visible"/>
<g>
</g>
<g>
</g>
<g>
</g>
</svg>
