<?xml version="1.0" encoding="utf-8"?>
<!-- Generator: Adobe Illustrator 16.1.0, SVG Export Plug-In . SVG Version: 6.00 Build 0)  -->
<!DOCTYPE svg PUBLIC "-//W3C//DTD SVG 1.1//EN" "http://www.w3.org/Graphics/SVG/1.1/DTD/svg11.dtd">
<svg version="1.1" id="Layer_1" xmlns="http://www.w3.org/2000/svg" xmlns:xlink="http://www.w3.org/1999/xlink" x="0px" y="0px"
	 width="1024px" height="666px" viewBox="0 0 1024 666" enable-background="new 0 0 1024 666" xml:space="preserve">
<symbol  id="Bar_Shape" viewBox="-78.615 -141.491 157.229 282.982">
	<polygon id="Bar_Path_2_" fill="none" stroke="#000000" stroke-width="2" stroke-miterlimit="10" stroke-dasharray="3,2" points="
		77.614,105.334 -37.441,105.334 -37.441,-99.21 15.824,-99.21 20.085,-99.21 20.085,69.114 56.839,69.114 56.839,-126.906 
		43.256,-140.491 -65.853,-140.491 -77.615,-128.732 -77.615,140.491 77.614,140.491 	"/>
</symbol>
<symbol  id="Booth" viewBox="-26.033 -44.5 52.066 89">
	<polygon fill="none" stroke="#000000" stroke-width="3" stroke-miterlimit="10" points="-24.533,43 -24.533,-43 24.533,-43 
		24.533,43 	"/>
	
		<line fill="none" stroke="#000000" stroke-miterlimit="10" stroke-dasharray="3,2" x1="-24.533" y1="26.25" x2="24.533" y2="26.25"/>
	
		<line fill="none" stroke="#000000" stroke-miterlimit="10" stroke-dasharray="6,4" x1="-24.533" y1="-27.174" x2="24.533" y2="-27.174"/>
</symbol>
<symbol  id="Booth_-_2_Top" viewBox="-13.768 -44.5 27.536 89">
	<polygon fill="none" stroke="#000000" stroke-width="3" stroke-miterlimit="10" points="-12.268,43 -12.268,-43 12.268,-43 
		12.268,43 	"/>
	<line fill="none" stroke="#000000" stroke-miterlimit="10" x1="-12.268" y1="28" x2="12.268" y2="28"/>
	<line fill="none" stroke="#000000" stroke-miterlimit="10" x1="-12.268" y1="-27.174" x2="12.268" y2="-27.174"/>
</symbol>
<symbol  id="Border" viewBox="-478.25 -298.561 956.5 597.121">
	<g id="Border_Group_3_">
		<polyline fill="none" stroke="#000000" stroke-width="6" stroke-miterlimit="10" points="0,-199.127 0,-295.561 -72.75,-295.559 
			-72.75,-221.814 		"/>
		<polyline fill="none" stroke="#000000" stroke-width="6" stroke-miterlimit="10" points="475.25,244.348 475.25,-199.127 
			-52.75,-199.127 -49.75,-199.127 -49.75,-148.064 		"/>
		<line fill="none" stroke="#000000" stroke-width="6" stroke-miterlimit="10" x1="475.25" y1="293.936" x2="475.25" y2="282.186"/>
		<polyline fill="none" stroke="#000000" stroke-width="6" stroke-linejoin="bevel" stroke-miterlimit="10" points="
			-475.25,292.602 -475.25,295.561 475.25,295.561 475.25,293.936 		"/>
		<path fill="none" stroke="#000000" stroke-width="6" stroke-miterlimit="10" d="M-475.25,291.52"/>
		<polyline id="Border_Left_Corner_3_" fill="none" stroke="#000000" stroke-width="6" stroke-miterlimit="10" points="
			-161.417,-147.064 -161.417,-199.189 -161.417,-199.127 -161.417,-295.559 -161.417,-199.127 -475.25,-199.877 -475.25,235.436 		
			"/>
	</g>
</symbol>
<symbol  id="Corner_Booth" viewBox="-54.211 -47.64 108.423 95.279">
	<path fill="none" stroke="#000000" stroke-width="2.9229" stroke-miterlimit="10" d="M-52.75,46.178v-92.355h105.5v46.177
		c0,0-56.13-4.049-56.232,46.179H-52.75z"/>
	<g>
		<polyline fill="none" stroke="#000000" stroke-miterlimit="10" points="4.92,18.648 -22.09,18.648 -22.09,-18.65 24.557,-18.65 
			24.557,5.152 		"/>
	</g>
</symbol>
<symbol  id="Divider" viewBox="-3 -26.187 6 52.374">
	<line fill="none" stroke="#000000" stroke-width="6" stroke-miterlimit="10" x1="0" y1="-26.188" x2="0" y2="26.188"/>
</symbol>
<symbol  id="Door" viewBox="-22.209 -19.682 44.419 39.364">
	<g>
		<g>
			<path fill="none" stroke="#BABABA" stroke-width="2" stroke-miterlimit="10" d="M21.228,19.494
				c-0.095-0.496-0.194-0.986-0.298-1.471"/>
			<path fill="none" stroke="#BABABA" stroke-width="2" stroke-miterlimit="10" stroke-dasharray="3.1121,2.0747" d="M20.463,16.002
				c-7.328-29.526-31.282-33.93-39.146-34.573"/>
			<path fill="none" stroke="#BABABA" stroke-width="2" stroke-miterlimit="10" d="M-19.713-18.643
				c-0.957-0.052-1.496-0.037-1.496-0.037v1.5"/>
			
				<line fill="none" stroke="#BABABA" stroke-width="2" stroke-miterlimit="10" stroke-dasharray="2.8519,1.9013" x1="-21.209" y1="-15.278" x2="-21.209" y2="17.044"/>
			
				<line fill="none" stroke="#BABABA" stroke-width="2" stroke-miterlimit="10" x1="-21.209" y1="17.994" x2="-21.209" y2="19.494"/>
		</g>
	</g>
</symbol>
<symbol  id="Table_-_6_Top" viewBox="-43.5 -43.358 87 86.717">
	<polygon fill="none" stroke="#000000" stroke-width="2.9229" stroke-miterlimit="10" points="-24.084,41.896 -24.083,-41.896 
		23.723,-41.896 23.723,41.896 	"/>
	<g id="New_Symbol_4_">
		
			<use xlink:href="#Table_Chair"  width="18.75" height="23" x="-9.375" y="-11.5" transform="matrix(1 0 0 1 34.125 -0.5)" overflow="visible"/>
		
			<use xlink:href="#Table_Chair"  width="18.75" height="23" x="-9.375" y="-11.5" transform="matrix(1 0 0 1 34.125 -29.5)" overflow="visible"/>
		
			<use xlink:href="#Table_Chair"  width="18.75" height="23" x="-9.375" y="-11.5" transform="matrix(-1 0 0 -1 -34.125 -29.2559)" overflow="visible"/>
		
			<use xlink:href="#Table_Chair"  width="18.75" height="23" x="-9.375" y="-11.5" transform="matrix(-1 0 0 -1 -34.125 -0.2559)" overflow="visible"/>
		
			<use xlink:href="#Table_Chair"  width="18.75" height="23" x="-9.375" y="-11.5" transform="matrix(-1 0 0 -1 -34.125 28.8945)" overflow="visible"/>
		
			<use xlink:href="#Table_Chair"  width="18.75" height="23" x="-9.375" y="-11.5" transform="matrix(1 0 0 1 34.125 28.5)" overflow="visible"/>
	</g>
</symbol>
<symbol  id="Table_Chair" viewBox="-9.375 -11.5 18.75 23">
	<polyline fill="none" stroke="#000000" stroke-miterlimit="10" points="-9.375,11 8.875,11 8.875,-11 -9.375,-11 	"/>
	<line fill="none" stroke="#000000" stroke-miterlimit="10" x1="8" y1="11" x2="8" y2="-10.75"/>
</symbol>
<g>
	
		<use xlink:href="#Door"  width="44.419" height="39.364" id="XMLID_1_" x="-22.209" y="-19.682" transform="matrix(-1 0 0 -1 406.2676 636.2393)" overflow="visible"/>
</g>
<use xlink:href="#Border"  width="956.5" height="597.121" id="XMLID_4_" x="-478.25" y="-298.561" transform="matrix(1 0 0 -1 498.6943 320.627)" overflow="visible"/>
<g id="Layer_3">
</g>
<use xlink:href="#Door"  width="44.419" height="39.364" x="-22.209" y="-19.682" transform="matrix(0 -1 -1 0 996.3867 58.1567)" overflow="visible"/>
<use xlink:href="#Bar_Shape"  width="157.229" height="282.982" x="-78.615" y="-141.491" transform="matrix(1 0 0 -1 228.0986 166.4912)" overflow="visible"/>
<g>
	
		<use xlink:href="#Door"  width="44.419" height="39.364" x="-22.209" y="-19.682" transform="matrix(1 0 0 -1 359.7896 636.2393)" overflow="visible"/>
</g>
<path fill="none" stroke="#000000" stroke-width="2" stroke-miterlimit="10" d="M325.333,520.312"/>
<use xlink:href="#Booth"  width="52.066" height="89" id="XMLID_2_" x="-26.033" y="-44.5" transform="matrix(0.9743 0 0 -0.9743 338.5806 371.2441)" overflow="visible"/>
<use xlink:href="#Booth"  width="52.066" height="89" x="-26.033" y="-44.5" transform="matrix(0.9743 0 0 -0.9743 48.8643 252.7466)" overflow="visible"/>
<use xlink:href="#Booth"  width="52.066" height="89" x="-26.033" y="-44.5" transform="matrix(0.9743 0 0 -0.9743 48.8643 142.4751)" overflow="visible"/>
<use xlink:href="#Booth"  width="52.066" height="89" x="-26.033" y="-44.5" transform="matrix(0.9743 0 0 -0.9743 50.3257 363.0176)" overflow="visible"/>
<use xlink:href="#Corner_Booth"  width="108.423" height="95.279" x="-54.211" y="-47.64" transform="matrix(1 0 0 -1 77.7119 473.2891)" overflow="visible"/>
<use xlink:href="#Table_-_6_Top"  width="87" height="86.717" x="-43.5" y="-43.358" transform="matrix(1 0 0 -1 819.0938 469.1963)" overflow="visible"/>
<use xlink:href="#Table_-_6_Top"  width="87" height="86.717" x="-43.5" y="-43.358" transform="matrix(1 0 0 -1 713.3535 469.1963)" overflow="visible"/>
<use xlink:href="#Table_-_6_Top"  width="87" height="86.717" x="-43.5" y="-43.358" transform="matrix(1 0 0 -1 607.6143 469.1963)" overflow="visible"/>
<use xlink:href="#Table_-_6_Top"  width="87" height="86.717" id="XMLID_3_" x="-43.5" y="-43.358" transform="matrix(1 0 0 -1 501.875 469.1963)" overflow="visible"/>
<use xlink:href="#Corner_Booth"  width="108.423" height="95.279" x="-54.211" y="-47.64" transform="matrix(0 -1 -1 0 929.8164 466.1943)" overflow="visible"/>
<use xlink:href="#Booth"  width="52.066" height="89" x="-26.033" y="-44.5" transform="matrix(1 0 0 -1 432 120.9995)" overflow="visible"/>
<use xlink:href="#Booth"  width="52.066" height="89" x="-26.033" y="-44.5" transform="matrix(1 0 0 -1 432 294.333)" overflow="visible"/>
<use xlink:href="#Booth"  width="52.066" height="89" x="-26.033" y="-44.5" transform="matrix(1 0 0 -1 432 207.9995)" overflow="visible"/>
<use xlink:href="#Booth"  width="52.066" height="89" x="-26.033" y="-44.5" transform="matrix(1 0 0 -1 484 120.9995)" overflow="visible"/>
<use xlink:href="#Booth"  width="52.066" height="89" x="-26.033" y="-44.5" transform="matrix(1 0 0 -1 484 294.333)" overflow="visible"/>
<use xlink:href="#Booth"  width="52.066" height="89" x="-26.033" y="-44.5" transform="matrix(1 0 0 -1 484 207.9995)" overflow="visible"/>
<use xlink:href="#Divider"  width="6" height="52.374" x="-3" y="-26.187" transform="matrix(1 0 0 -1 458 51.813)" overflow="visible"/>
<use xlink:href="#Booth_-_2_Top"  width="27.536" height="89" x="-13.768" y="-44.5" transform="matrix(1 0 0 -1 560.1426 121.333)" overflow="visible"/>
<use xlink:href="#Booth_-_2_Top"  width="27.536" height="89" x="-13.768" y="-44.5" transform="matrix(1 0 0 -1 560.1426 208.333)" overflow="visible"/>
<use xlink:href="#Booth_-_2_Top"  width="27.536" height="89" x="-13.768" y="-44.5" transform="matrix(1 0 0 -1 560.1426 294.6665)" overflow="visible"/>
<use xlink:href="#Booth"  width="52.066" height="89" x="-26.033" y="-44.5" transform="matrix(1 0 0 -1 602.4424 121.3325)" overflow="visible"/>
<use xlink:href="#Booth"  width="52.066" height="89" x="-26.033" y="-44.5" transform="matrix(1 0 0 -1 602.4424 294.666)" overflow="visible"/>
<use xlink:href="#Booth"  width="52.066" height="89" x="-26.033" y="-44.5" transform="matrix(1 0 0 -1 602.4424 208.3325)" overflow="visible"/>
<g>
	
		<use xlink:href="#Booth"  width="52.066" height="89" x="-26.033" y="-44.5" transform="matrix(1 0 0 -1 671.8525 121.3325)" overflow="visible"/>
	
		<use xlink:href="#Booth"  width="52.066" height="89" x="-26.033" y="-44.5" transform="matrix(1 0 0 -1 671.8525 294.666)" overflow="visible"/>
	
		<use xlink:href="#Booth"  width="52.066" height="89" x="-26.033" y="-44.5" transform="matrix(1 0 0 -1 671.8525 208.3325)" overflow="visible"/>
</g>
<g>
	
		<use xlink:href="#Booth"  width="52.066" height="89" x="-26.033" y="-44.5" transform="matrix(1 0 0 -1 727.0752 121.3325)" overflow="visible"/>
	
		<use xlink:href="#Booth"  width="52.066" height="89" x="-26.033" y="-44.5" transform="matrix(1 0 0 -1 727.0752 294.666)" overflow="visible"/>
	
		<use xlink:href="#Booth"  width="52.066" height="89" x="-26.033" y="-44.5" transform="matrix(1 0 0 -1 727.0752 208.3325)" overflow="visible"/>
</g>
<use xlink:href="#Booth"  width="52.066" height="89" x="-26.033" y="-44.5" transform="matrix(0 1 1 0 815.3818 102.8662)" overflow="visible"/>
<use xlink:href="#Booth"  width="52.066" height="89" x="-26.033" y="-44.5" transform="matrix(0 1 1 0 815.3818 172.9551)" overflow="visible"/>
<use xlink:href="#Booth"  width="52.066" height="89" x="-26.033" y="-44.5" transform="matrix(0 1 1 0 815.3818 243.0439)" overflow="visible"/>
<use xlink:href="#Booth"  width="52.066" height="89" x="-26.033" y="-44.5" transform="matrix(0 1 1 0 815.3818 313.1328)" overflow="visible"/>
<use xlink:href="#Table_Chair"  width="18.75" height="23" x="-9.375" y="-11.5" transform="matrix(1 0 0 -1 295.6245 116)" overflow="visible"/>
<use xlink:href="#Table_Chair"  width="18.75" height="23" x="-9.375" y="-11.5" transform="matrix(1 0 0 -1 295.6245 246)" overflow="visible"/>
<use xlink:href="#Table_Chair"  width="18.75" height="23" x="-9.375" y="-11.5" transform="matrix(1 0 0 -1 295.6245 220)" overflow="visible"/>
<use xlink:href="#Table_Chair"  width="18.75" height="23" x="-9.375" y="-11.5" transform="matrix(1 0 0 -1 295.6245 194)" overflow="visible"/>
<use xlink:href="#Table_Chair"  width="18.75" height="23" x="-9.375" y="-11.5" transform="matrix(1 0 0 -1 295.6245 168)" overflow="visible"/>
<use xlink:href="#Table_Chair"  width="18.75" height="23" x="-9.375" y="-11.5" transform="matrix(1 0 0 -1 295.6245 142)" overflow="visible"/>
<use xlink:href="#Table_Chair"  width="18.75" height="23" x="-9.375" y="-11.5" transform="matrix(0 1 1 0 176.5 315.625)" overflow="visible"/>
<use xlink:href="#Table_Chair"  width="18.75" height="23" x="-9.375" y="-11.5" transform="matrix(0 1 1 0 203.5 315.625)" overflow="visible"/>
<use xlink:href="#Table_Chair"  width="18.75" height="23" x="-9.375" y="-11.5" transform="matrix(0 1 1 0 229.5 315.625)" overflow="visible"/>
<use xlink:href="#Table_Chair"  width="18.75" height="23" x="-9.375" y="-11.5" transform="matrix(0 1 1 0 256.5 315.625)" overflow="visible"/>
<use xlink:href="#Table_Chair"  width="18.75" height="23" x="-9.375" y="-11.5" transform="matrix(1 0 0 -1 295.6245 272)" overflow="visible"/>
<use xlink:href="#Table_Chair"  width="18.75" height="23" x="-9.375" y="-11.5" transform="matrix(-1 0 0 -1 141.3745 112)" overflow="visible"/>
<use xlink:href="#Table_Chair"  width="18.75" height="23" x="-9.375" y="-11.5" transform="matrix(-1 0 0 -1 141.3745 242)" overflow="visible"/>
<use xlink:href="#Table_Chair"  width="18.75" height="23" x="-9.375" y="-11.5" transform="matrix(-1 0 0 -1 141.3745 216)" overflow="visible"/>
<use xlink:href="#Table_Chair"  width="18.75" height="23" x="-9.375" y="-11.5" transform="matrix(-1 0 0 -1 141.3745 190)" overflow="visible"/>
<use xlink:href="#Table_Chair"  width="18.75" height="23" x="-9.375" y="-11.5" transform="matrix(-1 0 0 -1 141.3745 164)" overflow="visible"/>
<use xlink:href="#Table_Chair"  width="18.75" height="23" x="-9.375" y="-11.5" transform="matrix(-1 0 0 -1 141.3745 138)" overflow="visible"/>
<use xlink:href="#Table_Chair"  width="18.75" height="23" x="-9.375" y="-11.5" transform="matrix(-1 0 0 -1 141.3745 268)" overflow="visible"/>
<use xlink:href="#Table_Chair"  width="18.75" height="23" x="-9.375" y="-11.5" transform="matrix(-1 0 0 -1 141.3745 60)" overflow="visible"/>
<use xlink:href="#Table_Chair"  width="18.75" height="23" x="-9.375" y="-11.5" transform="matrix(-1 0 0 -1 141.3745 86)" overflow="visible"/>
</svg>
