<?xml version="1.0" encoding="utf-8"?>
<!-- Generator: Adobe Illustrator 16.1.0, SVG Export Plug-In . SVG Version: 6.00 Build 0)  -->
<!DOCTYPE svg PUBLIC "-//W3C//DTD SVG 1.1//EN" "http://www.w3.org/Graphics/SVG/1.1/DTD/svg11.dtd">
<svg version="1.1" id="Layer_1" xmlns="http://www.w3.org/2000/svg" xmlns:xlink="http://www.w3.org/1999/xlink" x="0px" y="0px"
	 width="500px" height="500px" viewBox="0 0 500 500" enable-background="new 0 0 500 500" xml:space="preserve">
<path fill="#FFFFFF" d="M0,0h500v500H0V0z"/>
<path fill="#231F20" d="M260.87,40.59c1.2-0.57,2.12-1.55,3.069-2.47c1.82,2.55,4.61,4.08,7.221,5.69
	c34.02,20.07,68.07,40.09,102.08,60.18c4.67-5.59,9.229-11.271,13.87-16.89c2.199-2.5,4.54-5.22,7.83-6.25
	c3.88-1.16,8.56,1.96,8.34,6.15c-0.54,4.62-4.28,7.82-7.101,11.17c-25.34,28.12-50.67,56.26-76.09,84.31
	c20.53,3.28,41.25,6.18,61.16,12.36c27.64,8.76,54.09,23.62,72.93,46.02c14.54,17.121,23.53,39.52,22.46,62.15
	c-1.43,14.57-5.699,28.9-12.88,41.68c-9.109,16.451-22.42,30.23-37.319,41.541c-28.03,21.1-60.9,34.63-94.07,45.359
	c-15.04,4.811-30.271,9.03-45.57,12.93c-1.51,0.69-2.69-0.739-3.88-1.39c-19.891-13.97-40.5-26.939-61.73-38.76
	c-33.38,8.18-67.67,14.399-102.17,12.87c-20.13-1.15-40.73-5.25-57.94-16.24c-12.44-7.87-22.96-20.02-25.59-34.85
	c-0.11,12.55,6.84,24.17,15.82,32.51c7.43,7.18,16.75,11.88,26.07,16.09c-14.63-4.69-28.83-12.48-38.47-24.7
	c-5.08-6.43-8.57-14.14-9.58-22.29c0.1,12.66,7.21,24.221,16.35,32.54c7.42,6.8,16.41,11.55,25.61,15.48
	c-14.68-4.55-28.87-12.42-38.54-24.61c-7.94-9.97-12.26-23.58-8.85-36.15c3.15-12.72,13.08-22.569,23.94-29.26
	c19.05-11.689,42.16-14.539,64.1-13.039c21.09,1.859,41.6,7.799,61.43,15.02c8.97-10,17.68-20.24,26.66-30.23
	c-19.11-2.89-38.39-5.55-56.79-11.689c-17.58-5.851-34.86-13.87-48.72-26.391c-9.5-8.74-17.37-20.22-18.9-33.31
	c-0.16-1.13-0.91-2.05-1.37-3.07c0.17,1.92-0.25,4.06,0.92,5.75c1.75,16.33,11.9,30.56,24.63,40.4
	c10.79,8.55,23.43,14.46,36.04,19.64c-18.1-5.98-35.82-14.63-49.6-28.06c-9.26-9.07-15.87-21.08-17.42-34.04
	c0.44,14.31,7.74,27.66,17.89,37.47c12,11.681,27.19,19.44,42.65,25.511c8.31,2.889,16.9,4.909,25.48,6.869
	c0.57-0.54,1.15-1.07,1.73-1.6c-6.69-0.95-12.98-3.51-19.36-5.6c11.09,3.17,22.34,5.969,33.75,7.879l-0.14-1.199
	c0.2,0.68,0.61,2.05,0.81,2.729c-5.06-1.239-10.21-2.11-15.2-3.61c0.15,0.701,0.45,2.08,0.6,2.781l0.19-1.011
	c7.16,1.28,14.3,2.601,21.47,3.84c1.85,0.4,3.73-0.149,5.54-0.54c-2.01-0.029-4.01,0.03-6,0.18c-0.24-0.539-0.7-1.609-0.93-2.149
	c5.73,0.989,11.5,1.72,17.23,2.69c-3.35,2.279-7.69-0.41-11.48,0.39c1.14,0.17,3.43,0.521,4.57,0.69l-0.03,1.279
	c-18.12-2.57-36.25-5.73-53.58-11.779c-17.77-5.931-35.43-13.48-49.76-25.82c-11.31-9.521-19.92-22.89-21.52-37.8
	c-1.58-15.74,2.79-32.18,12.51-44.72c8.53-10.96,20.82-18.479,33.86-22.89c6.01-2.15,12.31-3.24,18.53-4.61
	c2.27-11.7,7.92-22.49,15.09-31.92c10.06-13.2,22.59-24.31,35.76-34.32C204.08,70.26,232.31,54.9,260.87,40.59z"/>
<path fill="#FFFFFF" d="M197.23,94.19c12.84-9.92,30.09-12.69,45.82-9.94c14.5,2.6,28.12,8.68,40.96,15.73
	c20.32,11.3,38.75,25.59,56.91,40.02c-0.95,1.02-1.89,2.05-2.84,3.07c-14.8-11.74-29.88-23.24-46.07-33.03
	c-11.41-6.87-23.34-13.08-36.119-16.97c28.889,11.53,53.909,30.58,77.59,50.38c1.18,0.88,2.05,2.05,2.399,3.49
	c-2.84-1.65-5.31-3.83-7.88-5.84c-17.57-13.79-35.67-27.12-55.51-37.48c-7.301-3.69-14.77-7.18-22.7-9.29
	c31.21,12.14,57.53,33.53,83.41,54.24c-9.42,10.68-18.87,21.32-28.341,31.96c-24.31-2.49-48.689-4.82-72.77-9.1
	c-14.66-2.6-29.98-6.94-40.85-17.71c-8.31-8.1-11.95-20.38-9.95-31.75C182.59,111.04,188.48,100.84,197.23,94.19z"/>
<path fill="#FFFFFF" d="M136.05,164.42c2.14,1.03,1.86,3.62,2.48,5.56c1.97,9.55,6.78,18.71,14.5,24.84
	c10.62,8.52,23.83,12.87,36.8,16.37c25.03,6.23,50.58,10.4,76.32,12.21c-9.4,10.44-18.61,21.04-27.95,31.53
	c-20.65-2.01-41.08-5.79-61.32-10.29c-15.23-3.59-30.46-8.27-43.9-16.48c-8.56-5.37-16.66-12.78-19.6-22.76
	c-3.62-12.24,1.26-26.17,11.45-33.76c1.86,6.95,4.69,13.72,9.16,19.41c8.41,11.08,21.21,17.9,34.26,21.98
	c-9.64-4.021-19.17-9.17-25.99-17.28c-6.65-7.98-11.1-18-12.09-28.36c2.09,5.03,3.3,10.43,6.07,15.18
	c7.77,14.67,22.41,24.63,38.06,29.34c-8.11-3.4-15.98-7.71-22.22-14C143.23,188.95,137.57,176.9,136.05,164.42z"/>
<path fill="#FFFFFF" d="M252.88,257.05c9.47-10.82,19.36-21.26,28.96-31.97c13.811,1.03,27.58,2.49,41.28,4.48
	c17.91,2.76,35.979,6.13,52.57,13.69c19.01,8.43,36.319,21.96,46.649,40.26c5.55,9.881,9.19,21.01,9.351,32.42
	c-2.2-17-10.75-32.77-22.82-44.8c-12.57-12.47-28.36-21.51-45.17-26.89c17.62,7.15,34.31,17.729,46.04,32.939
	c9.5,12.221,15.93,27.33,15.88,42.98c-0.79-14.85-7.23-28.95-16.34-40.53c-13.3-16.61-32.21-28.06-52.3-34.57
	c18.079,7.29,35.189,18.16,47.079,33.86c11.07,14.41,17.301,32.92,15.311,51.15c-2.23,18.76-11.22,36.41-24.25,49.99
	c-14.42,15.25-33,25.89-52.26,33.829c-1.57,0.57-3.42,1.48-4.94,0.301c-15.22-8.5-30.42-17.011-45.641-25.501
	c23.311-4.92,46.951-9.68,68.78-19.529c13.051-5.99,25.9-14.86,31.79-28.45c6.521-14.601,4.101-32.44-5.54-45.11
	c-11.06-14.859-28.81-23.01-46.46-27.01C311.91,262.26,282.32,259.73,252.88,257.05z"/>
<path fill="#231F20" d="M173.28,297.609c1.28-0.049,2.54,0.08,3.78,0.41c-0.38,1.76-3.09,1.57-4.44,1.16
	C171.98,298.43,172.2,297.91,173.28,297.609z"/>
<path fill="#FFFFFF" d="M185.22,332.4c9.61-10.621,19.12-21.34,28.64-32.051c28.46,3.76,57.121,5.74,85.65,8.881
	c9.01,0.99,18.09,1.97,26.9,4.209c10.609,2.771,19.41,12.58,19.21,23.851c-1.38-2.899-2.45-5.979-4.41-8.56
	c-3.89-5.301-9.979-8.49-16.18-10.28c7.56,4.45,14.41,11.72,14.5,21.01c-2.3-10.13-10.971-17.7-20.92-19.95
	c6.34,3.641,12.26,8.961,14.02,16.33c2.09,7.18-1.11,14.689-5.66,20.2c-6.77,7.979-16.1,13.271-25.54,17.47
	c-7.869,3.02-16.09,5.02-24.279,6.98c-24.61-14.35-49.34-28.62-75.271-40.48C196.33,337.46,190.75,334.98,185.22,332.4z"/>
<path fill="#FFFFFF" d="M66.5,356.25c10.6-5.3,23.04-4.8,34.47-3.141c16.93,3.44,33.25,9.361,49.3,15.67
	c18.83,7.65,37.29,16.281,55.04,26.191c-2.93,0.34-6.16,2.43-8.93,0.52c-21.22-11.09-43.19-20.811-65.86-28.57
	c22.57,8.641,44.76,18.37,65.91,30.09c-1.03,0.181-3.09,0.53-4.12,0.7c-22.03-11.771-44.99-21.819-68.61-29.96
	c22.93,8.721,45.38,18.721,66.96,30.41c-27.44,5.41-55.71,9.31-83.64,5.53c-12.22-1.74-24.32-5.25-35.14-11.271
	c-6.42-3.689-12.82-8.859-14.78-16.33C55.04,368.3,59.28,359.68,66.5,356.25z"/>
<path fill="#231F20" d="M219.63,409.83c3.73,0.42,6.74,2.83,9.94,4.56c17.86,10.721,35.85,21.37,52.59,33.79
	c-2.189,0.761-3.92-0.66-5.57-1.75c-16.779-11.859-34.22-22.76-51.94-33.149C222.9,412.24,221.18,411.16,219.63,409.83z"/>
<path fill="#231F20" d="M213.39,411.01c3.12,0.01,5.63,2.04,8.26,3.431c18.52,11.029,37.071,22.109,54.48,34.85
	c-0.729,0.05-2.19,0.15-2.92,0.2c-16.39-11.75-33.46-22.53-50.79-32.83C219.37,414.83,216.21,413.18,213.39,411.01z"/>
</svg>
