<?xml version="1.0" encoding="utf-8"?>
<!-- Generator: Adobe Illustrator 16.2.0, SVG Export Plug-In . SVG Version: 6.00 Build 0)  -->
<!DOCTYPE svg PUBLIC "-//W3C//DTD SVG 1.1 Basic//EN" "http://www.w3.org/Graphics/SVG/1.1/DTD/svg11-basic.dtd">
<svg version="1.1" baseProfile="basic" id="Layer_1"
	 xmlns="http://www.w3.org/2000/svg" xmlns:xlink="http://www.w3.org/1999/xlink" x="0px" y="0px" width="640px" height="480px"
	 viewBox="0 0 640 480" xml:space="preserve">
<rect x="30.5" y="33.5" fill="#3DA7D5" stroke="#000000" stroke-width="5" stroke-miterlimit="10" width="89" height="89"/>
<path fill="#F0C618" stroke="#000000" stroke-width="5" stroke-miterlimit="10" d="M238.5,117.5c0,2.761-2.239,5-5,5h-79
	c-2.761,0-5-2.239-5-5v-79c0-2.761,2.239-5,5-5h79c2.761,0,5,2.239,5,5V117.5z"/>
<circle fill="#FFA7D5" stroke="#000000" stroke-width="5" stroke-miterlimit="10" cx="322" cy="78.5" r="45"/>
<polygon fill="#3DAE55" stroke="#000000" stroke-width="5" stroke-miterlimit="10" points="435.009,128.5 406.018,78 435.009,27.5 
	492.991,27.5 521.982,78 492.991,128.5 "/>
<path fill="#F0C618" stroke="#000000" stroke-width="5" stroke-miterlimit="10" d="M104,198c84,55,107,64,117,106s201,47,201,47
	l63-94L104,198z"/>
</svg>
