<?xml version="1.0" encoding="utf-8"?>
<!-- Generator: Adobe Illustrator 16.2.0, SVG Export Plug-In . SVG Version: 6.00 Build 0)  -->
<!DOCTYPE svg PUBLIC "-//W3C//DTD SVG 1.1 Tiny//EN" "http://www.w3.org/Graphics/SVG/1.1/DTD/svg11-tiny.dtd">
<svg version="1.1" baseProfile="tiny" id="Layer_1" xmlns="http://www.w3.org/2000/svg" xmlns:xlink="http://www.w3.org/1999/xlink"
	 x="0px" y="0px" width="800px" height="800px" viewBox="0 0 800 800" xml:space="preserve">
<text transform="matrix(1 0 0 1 126.4814 116.21)" font-family="MyriadPro-Regular" font-size="12">S</text>
<text transform="matrix(1 0 0 1 132.4331 116.21)" font-family="MyriadPro-Regular" font-size="12">a</text>
<text transform="matrix(1 0 0 1 138.2173 116.21)" font-family="MyriadPro-Regular" font-size="12">m</text>
<text transform="matrix(1 0 0 1 148.2251 116.21)" font-family="MyriadPro-Regular" font-size="12">p</text>
<text transform="matrix(1 0 0 1 155.0532 116.21)" font-family="MyriadPro-Regular" font-size="12">l</text>
<text transform="matrix(1 0 0 1 157.8848 116.21)" font-family="MyriadPro-Regular" font-size="12">e</text>
<text transform="matrix(1 0 0 1 163.897 116.21)" font-family="MyriadPro-Regular" font-size="12"> </text>
<text transform="matrix(1 0 0 1 165.9487 116.21)" font-family="MyriadPro-Regular" font-size="12">T</text>
<text transform="matrix(1 0 0 1 171.061 116.21)" font-family="MyriadPro-Regular" font-size="12">e</text>
<text transform="matrix(1 0 0 1 177.0371 116.21)" font-family="MyriadPro-Regular" font-size="12">x</text>
<text transform="matrix(1 0 0 1 182.7485 116.21)" font-family="MyriadPro-Regular" font-size="12">t</text>
<text transform="matrix(0 -1 1 0 267.4453 334.7446)" font-family="MyriadPro-Regular" font-size="45.969">S</text>
<text transform="matrix(0 -1 1 0 267.4453 311.9448)" font-family="MyriadPro-Regular" font-size="45.969">a</text>
<text transform="matrix(0 -1 1 0 267.4453 289.7876)" font-family="MyriadPro-Regular" font-size="45.969">m</text>
<text transform="matrix(0 -1 1 0 267.4453 251.4497)" font-family="MyriadPro-Regular" font-size="45.969">p</text>
<text transform="matrix(0 -1 1 0 267.4453 225.2939)" font-family="MyriadPro-Regular" font-size="45.969">l</text>
<text transform="matrix(0 -1 1 0 267.4453 214.4453)" font-family="MyriadPro-Regular" font-size="45.969">e</text>
<text transform="matrix(0 -1 1 0 267.4453 191.4155)" font-family="MyriadPro-Regular" font-size="45.969"> </text>
<text transform="matrix(0 -1 1 0 267.4453 183.5542)" font-family="MyriadPro-Regular" font-size="45.969">T</text>
<text transform="matrix(0 -1 1 0 267.4453 163.9717)" font-family="MyriadPro-Regular" font-size="45.969">e</text>
<text transform="matrix(0 -1 1 0 267.4453 141.0791)" font-family="MyriadPro-Regular" font-size="45.969">x</text>
<text transform="matrix(0 -1 1 0 267.4453 119.1987)" font-family="MyriadPro-Regular" font-size="45.969">t</text>
<text transform="matrix(0.7071 -0.7071 0.7071 0.7071 327.9072 499.4902)" fill="#3364FF" font-family="MyriadPro-Regular" font-size="45.969">S</text>
<text transform="matrix(0.7071 -0.7071 0.7071 0.7071 344.0293 483.3682)" fill="#3364FF" font-family="MyriadPro-Regular" font-size="45.969">a</text>
<text transform="matrix(0.7071 -0.7071 0.7071 0.7071 359.6968 467.7012)" fill="#3364FF" font-family="MyriadPro-Regular" font-size="45.969">m</text>
<text transform="matrix(0.7071 -0.7071 0.7071 0.7071 386.8057 440.5918)" fill="#3364FF" font-family="MyriadPro-Regular" font-size="45.969">p</text>
<text transform="matrix(0.7071 -0.7071 0.7071 0.7071 405.3008 422.0977)" fill="#3364FF" font-family="MyriadPro-Regular" font-size="45.969">l</text>
<text transform="matrix(0.7071 -0.7071 0.7071 0.7071 412.9717 414.4258)" fill="#3364FF" font-family="MyriadPro-Regular" font-size="45.969">e</text>
<text transform="matrix(0.7071 -0.7071 0.7071 0.7071 429.2559 398.1406)" fill="#3364FF" font-family="MyriadPro-Regular" font-size="45.969"> </text>
<text transform="matrix(0.7071 -0.7071 0.7071 0.7071 434.8145 392.582)" fill="#3364FF" font-family="MyriadPro-Regular" font-size="45.969">T</text>
<text transform="matrix(0.7071 -0.7071 0.7071 0.7071 448.6621 378.7354)" fill="#3364FF" font-family="MyriadPro-Regular" font-size="45.969">e</text>
<text transform="matrix(0.7071 -0.7071 0.7071 0.7071 464.8496 362.5479)" fill="#3364FF" font-family="MyriadPro-Regular" font-size="45.969">x</text>
<text transform="matrix(0.7071 -0.7071 0.7071 0.7071 480.3213 347.0762)" fill="#3364FF" font-family="MyriadPro-Regular" font-size="45.969">t</text>
</svg>
